SplineFontDB: 3.2
FontName: AgaveB-Medium
FullName: AgaveB Medium
FamilyName: AgaveB-Medium
Weight: Medium
Copyright: (c) 2013-2021 type agaric <agaric@protonmail.com>
Version: 37 ; ttfautohint (v1.8.3)
ItalicAngle: 0
UnderlinePosition: -384
UnderlineWidth: 128
Ascent: 1536
Descent: 512
InvalidEm: 0
sfntRevision: 0x00250000
LayerCount: 2
Layer: 0 1 "+gMxmbwAA" 1
Layer: 1 1 "+Uk1mbwAA" 0
XUID: [1021 327 1617118019 1636218]
StyleMap: 0x0040
FSType: 0
OS2Version: 4
OS2_WeightWidthSlopeOnly: 1
OS2_UseTypoMetrics: 1
CreationTime: 1368797729
ModificationTime: 1648210806
PfmFamily: 17
TTFWeight: 500
TTFWidth: 5
LineGap: 0
VLineGap: 0
Panose: 2 11 6 9 3 6 4 2 2 3
OS2TypoAscent: 1536
OS2TypoAOffset: 0
OS2TypoDescent: -512
OS2TypoDOffset: 0
OS2TypoLinegap: 0
OS2WinAscent: 1536
OS2WinAOffset: 0
OS2WinDescent: 512
OS2WinDOffset: 0
HheadAscent: 1536
HheadAOffset: 0
HheadDescent: -512
HheadDOffset: 0
OS2SubXSize: 1403
OS2SubYSize: 1224
OS2SubXOff: 0
OS2SubYOff: 120
OS2SupXSize: 1403
OS2SupYSize: 1224
OS2SupXOff: 0
OS2SupYOff: 648
OS2StrikeYSize: 128
OS2StrikeYPos: 512
OS2CapHeight: 1280
OS2XHeight: 1024
OS2FamilyClass: 2057
OS2Vendor: 'agrc'
OS2CodePages: 6000019f.dfd70000
OS2UnicodeRanges: e00002ff.1000f8fb.00040000.00000000
MarkAttachClasses: 1
DEI: 91125
TtTable: prep
SVTCA[y-axis]
MPPEM
PUSHW_1
 200
GT
IF
PUSHB_2
 1
 1
INSTCTRL
EIF
PUSHB_1
 1
PUSHW_2
 2048
 2048
MUL
WCVTF
PUSHB_2
 0
 7
WS
PUSHB_7
 0
 78
 65
 49
 33
 5
 0
LOOPCALL
PUSHB_2
 0
 7
WS
NPUSHB
 12
 84
 5
 70
 6
 54
 8
 38
 8
 24
 7
 5
 10
LOOPCALL
PUSHB_2
 0
 7
WS
NPUSHB
 12
 89
 3
 76
 4
 62
 6
 46
 6
 31
 5
 5
 10
LOOPCALL
PUSHB_2
 0
 12
WS
PUSHW_7
 5440
 4544
 3520
 2496
 1600
 5
 11
LOOPCALL
PUSHB_2
 0
 17
WS
PUSHW_7
 64
 64
 64
 64
 64
 5
 11
LOOPCALL
PUSHW_2
 3
 0
WCVTP
PUSHB_2
 36
 1
GETINFO
LTEQ
IF
PUSHB_1
 64
GETINFO
IF
PUSHW_2
 3
 100
WCVTP
PUSHB_2
 40
 1
GETINFO
LTEQ
IF
PUSHW_1
 2048
GETINFO
IF
PUSHW_2
 3
 0
WCVTP
EIF
ELSE
PUSHB_2
 39
 1
GETINFO
LTEQ
IF
PUSHW_3
 2176
 1
 1088
GETINFO
MUL
EQ
IF
PUSHW_2
 3

StartChar: .notdef
Encoding: 65536 -1 0
Width: 1024
Flags: W
LayerCount: 2
Fore
SplineSet
320 1280 m 2,0,-1
 433 1280 l 1,1,-1
 433 1152 l 1,2,-1
 320 1152 l 2,3,4
 267 1152 267 1152 229.5 1114.5 c 128,-1,5
 192 1077 192 1077 192 1024 c 2,6,-1
 192 768 l 1,7,-1
 64 768 l 1,8,-1
 64 1024 l 2,9,10
 64 1130 64 1130 139 1205 c 128,-1,11
 214 1280 214 1280 320 1280 c 2,0,-1
591 1280 m 1,12,-1
 704 1280 l 2,13,14
 810 1280 810 1280 885 1205 c 128,-1,15
 960 1130 960 1130 960 1024 c 2,16,-1
 960 768 l 1,17,-1
 832 768 l 1,18,-1
 832 1024 l 2,19,20
 832 1077 832 1077 794.5 1114.5 c 128,-1,21
 757 1152 757 1152 704 1152 c 2,22,-1
 591 1152 l 1,23,-1
 591 1280 l 1,12,-1
64 512 m 1,24,-1
 192 512 l 1,25,-1
 192 256 l 2,26,27
 192 203 192 203 229.5 165.5 c 128,-1,28
 267 128 267 128 320 128 c 2,29,-1
 433 128 l 1,30,-1
 433 0 l 1,31,-1
 320 0 l 2,32,33
 214 0 214 0 139 75 c 128,-1,34
 64 150 64 150 64 256 c 2,35,-1
 64 512 l 1,24,-1
832 512 m 1,36,-1
 960 512 l 1,37,-1
 960 256 l 2,38,39
 960 150 960 150 885 75 c 128,-1,40
 810 0 810 0 704 0 c 2,41,-1
 591 0 l 1,42,-1
 591 128 l 1,43,-1
 704 128 l 2,44,45
 757 128 757 128 794.5 165.5 c 128,-1,46
 832 203 832 203 832 256 c 2,47,-1
 832 512 l 1,36,-1
EndSplineSet
EndChar

StartChar: exclam
Encoding: 33 33 4
Width: 1024
GlyphClass: 2
Flags: W
LayerCount: 2
Fore
SplineSet
419 1302.5 m 1,0,-1
 605 1302.5 l 1,1,-1
 627.73559567 1302.5 l 1,2,-1
 627.498779396 1279.76563771 l 1,3,-1
 619.498779396 511.765637715 l 1,4,-1
 619.26684567 489.5 l 1,5,-1
 597 489.5 l 1,6,-1
 427 489.5 l 1,7,-1
 404.73315433 489.5 l 1,8,-1
 404.501220604 511.765637715 l 1,9,-1
 396.501220604 1279.76563771 l 1,10,-1
 396.26440433 1302.5 l 1,11,-1
 419 1302.5 l 1,0,-1
384 278.5 m 1,12,-1
 640 278.5 l 1,13,-1
 662.5 278.5 l 1,14,-1
 662.5 256 l 1,15,-1
 662.5 0 l 1,16,-1
 662.5 -22.5 l 1,17,-1
 640 -22.5 l 1,18,-1
 384 -22.5 l 1,19,-1
 361.5 -22.5 l 1,20,-1
 361.5 0 l 1,21,-1
 361.5 256 l 1,22,-1
 361.5 278.5 l 1,23,-1
 384 278.5 l 1,12,-1
EndSplineSet
EndChar

StartChar: quotedbl
Encoding: 34 34 5
Width: 1024
GlyphClass: 2
Flags: W
LayerCount: 2
Fore
SplineSet
264 1302.5 m 1,0,-1
 434 1302.5 l 1,1,-1
 457.033522711 1302.5 l 1,2,-1
 456.493822735 1279.47280103 l 1,3,-1
 444.493822735 767.47280103 l 1,4,-1
 443.978835211 745.5 l 1,5,-1
 422 745.5 l 1,6,-1
 275 745.5 l 1,7,-1
 252.97820628 745.5 l 1,8,-1
 252.50519096 767.516713087 l 1,9,-1
 241.50519096 1279.51671309 l 1,10,-1
 241.011409405 1302.5 l 1,11,-1
 264 1302.5 l 1,0,-1
590 1302.5 m 1,12,-1
 760 1302.5 l 1,13,-1
 782.988590595 1302.5 l 1,14,-1
 782.49480904 1279.51671309 l 1,15,-1
 771.49480904 767.516713087 l 1,16,-1
 771.02179372 745.5 l 1,17,-1
 749 745.5 l 1,18,-1
 602 745.5 l 1,19,-1
 580.021164789 745.5 l 1,20,-1
 579.506177265 767.47280103 l 1,21,-1
 567.506177265 1279.47280103 l 1,22,-1
 566.966477289 1302.5 l 1,23,-1
 590 1302.5 l 1,12,-1
EndSplineSet
EndChar

StartChar: numbersign
Encoding: 35 35 6
Width: 1024
GlyphClass: 2
Flags: W
LayerCount: 2
Fore
SplineSet
244 1302.5 m 1,0,-1
 390 1302.5 l 1,1,-1
 412.5 1302.5 l 1,2,-1
 412.5 1280 l 1,3,-1
 412.5 973.5 l 1,4,-1
 611.5 973.5 l 1,5,-1
 611.5 1280 l 1,6,-1
 611.5 1302.5 l 1,7,-1
 634 1302.5 l 1,8,-1
 780 1302.5 l 1,9,-1
 802.5 1302.5 l 1,10,-1
 802.5 1280 l 1,11,-1
 802.5 973.5 l 1,12,-1
 960 973.5 l 1,13,-1
 982.5 973.5 l 1,14,-1
 982.5 951 l 1,15,-1
 982.5 805 l 1,16,-1
 982.5 782.5 l 1,17,-1
 960 782.5 l 1,18,-1
 802.5 782.5 l 1,19,-1
 802.5 497.5 l 1,20,-1
 960 497.5 l 1,21,-1
 982.5 497.5 l 1,22,-1
 982.5 475 l 1,23,-1
 982.5 329 l 1,24,-1
 982.5 306.5 l 1,25,-1
 960 306.5 l 1,26,-1
 802.5 306.5 l 1,27,-1
 802.5 0 l 1,28,-1
 802.5 -22.5 l 1,29,-1
 780 -22.5 l 1,30,-1
 634 -22.5 l 1,31,-1
 611.5 -22.5 l 1,32,-1
 611.5 0 l 1,33,-1
 611.5 306.5 l 1,34,-1
 412.5 306.5 l 1,35,-1
 412.5 0 l 1,36,-1
 412.5 -22.5 l 1,37,-1
 390 -22.5 l 1,38,-1
 244 -22.5 l 1,39,-1
 221.5 -22.5 l 1,40,-1
 221.5 0 l 1,41,-1
 221.5 306.5 l 1,42,-1
 64 306.5 l 1,43,-1
 41.5 306.5 l 1,44,-1
 41.5 329 l 1,45,-1
 41.5 475 l 1,46,-1
 41.5 497.5 l 1,47,-1
 64 497.5 l 1,48,-1
 221.5 497.5 l 1,49,-1
 221.5 782.5 l 1,50,-1
 64 782.5 l 1,51,-1
 41.5 782.5 l 1,52,-1
 41.5 805 l 1,53,-1
 41.5 951 l 1,54,-1
 41.5 973.5 l 1,55,-1
 64 973.5 l 1,56,-1
 221.5 973.5 l 1,57,-1
 221.5 1280 l 1,58,-1
 221.5 1302.5 l 1,59,-1
 244 1302.5 l 1,0,-1
611.5 782.5 m 1,60,-1
 412.5 782.5 l 1,61,-1
 412.5 497.5 l 1,62,-1
 611.5 497.5 l 1,63,-1
 611.5 782.5 l 1,60,-1
EndSplineSet
EndChar

StartChar: dollar
Encoding: 36 36 7
Width: 1024
GlyphClass: 2
Flags: W
LayerCount: 2
Fore
SplineSet
435.814642978 1437 m 1,0,-1
 461.179020029 1437 l 1,1,-1
 652.820979971 1437 l 1,2,-1
 678.185357022 1437 l 1,3,-1
 678.185357022 1414.5 l 1,4,-1
 678.185357022 1211.30175781 l 1,5,6
 690.467924502 1211.5 690.467924502 1211.5 703.549734073 1211.5 c 0,7,8
 771.309570312 1211.5 771.309570312 1211.5 827.6171875 1207.44140625 c 0,9,10
 841.7265625 1206.42480469 841.7265625 1206.42480469 853.741210938 1205.42382812 c 128,-1,11
 865.756835938 1204.42285156 865.756835938 1204.42285156 876.073242188 1203.40039062 c 128,-1,12
 886.390625 1202.37792969 886.390625 1202.37792969 894.8671875 1201.33496094 c 128,-1,13
 903.344726562 1200.29101562 903.344726562 1200.29101562 910.0546875 1199.21777344 c 2,14,-1
 935.0546875 1195.21777344 l 1,15,-1
 954 1192.18652344 l 1,16,-1
 954 1173 l 1,17,-1
 954 1024 l 1,18,-1
 954 1001.5 l 1,19,-1
 931.5 1001.5 l 1,20,-1
 654.511938441 1001.5 l 1,21,-1
 654.511938441 716.87109375 l 1,22,23
 683.093099769 710.076171875 683.093099769 710.076171875 706.179746954 704.098632812 c 128,-1,24
 729.266394138 698.122070312 729.266394138 698.122070312 748.771864303 692.465820312 c 0,25,26
 790.088867188 679.237304688 790.088867188 679.237304688 840.98046875 654.537109375 c 0,27,28
 867.12890625 641.846679688 867.12890625 641.846679688 888.125976562 628.077148438 c 128,-1,29
 909.123046875 614.30859375 909.123046875 614.30859375 925.127929688 599.155273438 c 0,30,31
 957.16796875 568.821289062 957.16796875 568.821289062 979.435546875 521.422851562 c 0,32,33
 1002 473.393554688 1002 473.393554688 1002 414.624023438 c 0,34,35
 1002 280.172851562 1002 280.172851562 914.435546875 203.967773438 c 0,36,37
 834.690429688 134.568359375 834.690429688 134.568359375 678.185357022 106.890625 c 1,38,-1
 678.185357022 -134.5 l 1,39,-1
 678.185357022 -157 l 1,40,-1
 652.820979971 -157 l 1,41,-1
 461.179020029 -157 l 1,42,-1
 435.814642978 -157 l 1,43,-1
 435.814642978 -134.5 l 1,44,-1
 435.814642978 68.841796875 l 1,45,46
 415.339293639 68.5 415.339293639 68.5 389.03145864 68.5 c 0,47,48
 353.1328125 68.5 353.1328125 68.5 322.00390625 69.5126953125 c 128,-1,49
 290.874023438 70.5244140625 290.874023438 70.5244140625 260.978515625 72.5517578125 c 0,50,51
 248.9921875 73.3642578125 248.9921875 73.3642578125 238.450195312 74.1630859375 c 128,-1,52
 227.909179688 74.9619140625 227.909179688 74.9619140625 218.493164062 75.7744140625 c 128,-1,53
 209.077148438 76.587890625 209.077148438 76.587890625 200.975585938 77.4033203125 c 128,-1,54
 192.874023438 78.21875 192.874023438 78.21875 185.901367188 79.056640625 c 128,-1,55
 178.928710938 79.89453125 178.928710938 79.89453125 173.140625 80.751953125 c 2,56,-1
 147.079101562 84.76171875 l 1,57,-1
 128 87.697265625 l 1,58,-1
 128 107 l 1,59,-1
 128 256 l 1,60,-1
 128 278.5 l 1,61,-1
 150.5 278.5 l 1,62,-1
 459.488061559 278.5 l 1,63,-1
 459.488061559 563.12890625 l 1,64,65
 430.906900231 569.923828125 430.906900231 569.923828125 407.820253046 575.901367188 c 128,-1,66
 384.733605862 581.877929688 384.733605862 581.877929688 365.228135697 587.534179688 c 0,67,68
 344 594.196289062 344 594.196289062 321.204101562 603.668945312 c 128,-1,69
 298.408203125 613.140625 298.408203125 613.140625 273.01953125 625.462890625 c 0,70,71
 220.38671875 651.0078125 220.38671875 651.0078125 188.872070312 680.844726562 c 0,72,73
 156.83203125 711.178710938 156.83203125 711.178710938 134.564453125 758.577148438 c 0,74,75
 123.252929688 782.653320312 123.252929688 782.653320312 117.626953125 809.431640625 c 128,-1,76
 112 836.2109375 112 836.2109375 112 865.375976562 c 0,77,78
 112 1001.7421875 112 1001.7421875 199.505859375 1078.43261719 c 0,79,80
 279.321289062 1148.38183594 279.321289062 1148.38183594 435.814642978 1175.18261719 c 1,81,-1
 435.814642978 1414.5 l 1,82,-1
 435.814642978 1437 l 1,0,-1
459.488061559 760.241210938 m 1,83,-1
 459.488061559 982.319335938 l 1,84,85
 410.57796852 971.887695312 410.57796852 971.887695312 379.863293185 956.079101562 c 0,86,87
 350.12109375 940.270507812 350.12109375 940.270507812 338.560546875 921.014648438 c 128,-1,88
 327 901.758789062 327 901.758789062 327 877 c 0,89,90
 327 865.265625 327 865.265625 329.040039062 855.166015625 c 128,-1,91
 331.080078125 845.067382812 331.080078125 845.067382812 335.30078125 836.204101562 c 128,-1,92
 339.521484375 827.341796875 339.521484375 827.341796875 345.861328125 819.6953125 c 128,-1,93
 352.202148438 812.048828125 352.202148438 812.048828125 361.332105733 805.170898438 c 0,94,95
 378.348476222 793.272460938 378.348476222 793.272460938 403.608269253 781.685546875 c 128,-1,96
 428.8669614 770.099609375 428.8669614 770.099609375 459.488061559 760.241210938 c 1,83,-1
752.667894267 474.829101562 m 0,97,98
 717.339412325 499.532226562 717.339412325 499.532226562 654.511938441 519.758789062 c 1,99,-1
 654.511938441 299.825195312 l 1,100,101
 787 329.525390625 787 329.525390625 787 403 c 0,102,103
 787 448.0859375 787 448.0859375 752.667894267 474.829101562 c 0,97,98
EndSplineSet
EndChar

StartChar: percent
Encoding: 37 37 8
Width: 1024
GlyphClass: 2
Flags: W
LayerCount: 2
Fore
SplineSet
143.501953125 1280 m 1,0,-1
 166.001953125 1280 l 1,1,-1
 383.299550196 1280 l 1,2,-1
 407.906805079 1280 l 1,3,-1
 407.906805079 1257.5 l 1,4,-1
 407.906805079 937.5 l 1,5,-1
 407.906805079 915 l 1,6,-1
 383.299550196 915 l 1,7,-1
 166.001953125 915 l 1,8,-1
 143.501953125 915 l 1,9,-1
 143.501953125 937.5 l 1,10,-1
 143.501953125 1257.5 l 1,11,-1
 143.501953125 1280 l 1,0,-1
835.6796875 1280 m 1,12,-1
 849.001953125 1280 l 1,13,-1
 1043.00195312 1280 l 1,14,-1
 1081.00292969 1280 l 1,15,-1
 1062.72949219 1247.82226562 l 1,16,-1
 316.28856959 11.6806640625 l 1,17,-1
 309.323242188 0 l 1,18,-1
 296.001953125 0 l 1,19,-1
 102.001953125 0 l 1,20,-1
 64 0 l 1,21,-1
 82.2734375 32.177734375 l 1,22,-1
 828.714360097 1268.31933594 l 1,23,-1
 835.6796875 1280 l 1,12,-1
737.097192631 365 m 1,24,-1
 761.704447515 365 l 1,25,-1
 979.001953125 365 l 1,26,-1
 1001.50195312 365 l 1,27,-1
 1001.50195312 342.5 l 1,28,-1
 1001.50195312 22.5 l 1,29,-1
 1001.50195312 0 l 1,30,-1
 979.001953125 0 l 1,31,-1
 761.704447515 0 l 1,32,-1
 737.097192631 0 l 1,33,-1
 737.097192631 22.5 l 1,34,-1
 737.097192631 342.5 l 1,35,-1
 737.097192631 365 l 1,24,-1
EndSplineSet
EndChar

StartChar: ampersand
Encoding: 38 38 9
Width: 1024
GlyphClass: 2
Flags: W
LayerCount: 2
Fore
SplineSet
503 1310.5 m 0,0,1
 539.42285848 1310.5 539.42285848 1310.5 572.334382083 1306.32075891 c 0,2,3
 583.486331645 1304.90463833 583.486331645 1304.90463833 592.166472201 1303.58257145 c 128,-1,4
 600.846612757 1302.26050458 600.846612757 1302.26050458 608.379843883 1300.78497331 c 128,-1,5
 615.913075009 1299.30944204 615.913075009 1299.30944204 621.989786486 1297.68898565 c 2,6,-1
 636.181225378 1293.63428882 l 1,7,-1
 652.5 1288.97178179 l 1,8,-1
 652.5 1272 l 1,9,-1
 652.5 1123 l 1,10,-1
 652.5 1100.5 l 1,11,-1
 630 1100.5 l 1,12,-1
 503 1100.5 l 2,13,14
 409.728291522 1100.5 409.728291522 1100.5 363.825477394 1064.74876977 c 0,15,16
 320.5 1031.00488833 320.5 1031.00488833 320.5 946 c 0,17,18
 320.5 871.247074882 320.5 871.247074882 350.770345855 829.131811083 c 0,19,20
 378.536960071 790.5 378.536960071 790.5 425 790.5 c 2,21,-1
 607.5 790.5 l 1,22,-1
 607.5 987 l 1,23,-1
 607.5 1009.5 l 1,24,-1
 630 1009.5 l 1,25,-1
 800 1009.5 l 1,26,-1
 822.5 1009.5 l 1,27,-1
 822.5 987 l 1,28,-1
 822.5 790.5 l 1,29,-1
 960 790.5 l 1,30,-1
 982.5 790.5 l 1,31,-1
 982.5 768 l 1,32,-1
 982.5 611 l 1,33,-1
 982.5 588.5 l 1,34,-1
 960 588.5 l 1,35,-1
 822.5 588.5 l 1,36,-1
 822.5 321 l 2,37,38
 822.5 276.024243829 822.5 276.024243829 831.557943159 245.463729061 c 128,-1,39
 840.615886319 214.903214294 840.615886319 214.903214294 857.006032273 198.313188511 c 0,40,41
 873.914625897 181.198392525 873.914625897 181.198392525 899.28708035 172.349196263 c 128,-1,42
 924.659534803 163.5 924.659534803 163.5 960 163.5 c 2,43,-1
 982.5 163.5 l 1,44,-1
 982.5 141 l 1,45,-1
 982.5 -8 l 1,46,-1
 982.5 -30.5 l 1,47,-1
 960 -30.5 l 2,48,49
 738.242318691 -30.5 738.242318691 -30.5 656.333817728 104.514012575 c 1,50,-1
 527.909902577 -23.9099025767 l 1,51,-1
 521.319805153 -30.5 l 1,52,-1
 512 -30.5 l 2,53,54
 284.22296163 -30.5 284.22296163 -30.5 164.105872223 63.8024517707 c 0,55,56
 41.5 160.058816367 41.5 160.058816367 41.5 380 c 0,57,58
 41.5 452.266533261 41.5 452.266533261 59.9288875591 514.398211317 c 0,59,60
 78.5005444264 577.011225899 78.5005444264 577.011225899 105.690996898 615.077859359 c 0,61,62
 112.164725645 624.141079604 112.164725645 624.141079604 118.644172994 632.597258786 c 128,-1,63
 125.123620342 641.053437967 125.123620342 641.053437967 131.651016711 648.954118653 c 128,-1,64
 138.178413079 656.854799339 138.178413079 656.854799339 144.753745245 664.185018352 c 128,-1,65
 151.329077411 671.515237364 151.329077411 671.515237364 157.933361119 678.251606746 c 0,66,67
 177.856703682 698.573416159 177.856703682 698.573416159 193.941109511 710.356357202 c 1,68,69
 190.593111103 713.752877326 190.593111103 713.752877326 187.40410488 717.162131573 c 128,-1,70
 184.215098656 720.57138582 184.215098656 720.57138582 180.275881709 724.948293538 c 0,71,72
 160.661694357 746.741835041 160.661694357 746.741835041 145.464529302 773.336873887 c 0,73,74
 137.480183931 787.309478286 137.480183931 787.309478286 130.663229839 805.494391871 c 128,-1,75
 123.846275747 823.679305456 123.846275747 823.679305456 117.747314317 846.749289992 c 128,-1,76
 111.6067816 869.976522445 111.6067816 869.976522445 108.5533908 894.80190112 c 128,-1,77
 105.5 919.627279796 105.5 919.627279796 105.5 946 c 0,78,79
 105.5 1009.95397884 105.5 1009.95397884 116.577418724 1062.24742532 c 128,-1,80
 127.654837448 1114.5408718 127.654837448 1114.5408718 150.860335299 1156.26610137 c 128,-1,81
 174.06583315 1197.99133093 174.06583315 1197.99133093 209.212541806 1226.88155742 c 0,82,83
 260.676836563 1269.18466882 260.676836563 1269.18466882 334.242860409 1289.84233441 c 128,-1,84
 407.808884256 1310.5 407.808884256 1310.5 503 1310.5 c 0,0,1
385 588.5 m 2,85,86
 327.177479854 588.5 327.177479854 588.5 293.337166898 536.695076462 c 0,87,88
 256.5 480.30237652 256.5 480.30237652 256.5 380 c 0,89,90
 256.5 283.547498432 256.5 283.547498432 322.89272909 228.294488987 c 0,91,92
 391.13771989 171.5 391.13771989 171.5 512 171.5 c 2,93,-1
 627.006651934 171.5 l 1,94,95
 607.5 235.601462958 607.5 235.601462958 607.5 321 c 2,96,-1
 607.5 588.5 l 1,97,-1
 385 588.5 l 2,85,86
EndSplineSet
EndChar

StartChar: quotesingle
Encoding: 39 39 10
Width: 1024
GlyphClass: 2
Flags: W
LayerCount: 2
Fore
SplineSet
427 1302.5 m 1,0,-1
 597 1302.5 l 1,1,-1
 620.033522711 1302.5 l 1,2,-1
 619.493822735 1279.47280103 l 1,3,-1
 607.493822735 767.47280103 l 1,4,-1
 606.978835211 745.5 l 1,5,-1
 585 745.5 l 1,6,-1
 439 745.5 l 1,7,-1
 417.021164789 745.5 l 1,8,-1
 416.506177265 767.47280103 l 1,9,-1
 404.506177265 1279.47280103 l 1,10,-1
 403.966477289 1302.5 l 1,11,-1
 427 1302.5 l 1,0,-1
EndSplineSet
EndChar

StartChar: parenleft
Encoding: 40 40 11
Width: 1024
GlyphClass: 2
Flags: W
LayerCount: 2
Fore
SplineSet
662 1459.5 m 1,0,-1
 854 1459.5 l 1,1,-1
 924.210463702 1459.5 l 1,2,-1
 867.077859359 1418.6909969 l 2,3,4
 860.619637259 1414.07798111 860.619637259 1414.07798111 848.137584909 1403.99632345 c 0,5,6
 836.066012094 1394.24620694 836.066012094 1394.24620694 799.409902577 1357.59009742 c 0,7,8
 762.982769206 1321.16296405 762.982769206 1321.16296405 730.401882504 1278.37015764 c 128,-1,9
 697.835150479 1235.59594244 697.835150479 1235.59594244 657.092626605 1163.43749654 c 0,10,11
 636.801231246 1127.49972404 636.801231246 1127.49972404 619.440152918 1089.72103712 c 128,-1,12
 602.079074589 1051.94235021 602.079074589 1051.94235021 587.641539116 1012.30030366 c 0,13,14
 558.796828021 933.099571496 558.796828021 933.099571496 538.638638636 821.983698301 c 0,15,16
 528.57386986 766.504728948 528.57386986 766.504728948 523.53693493 708.764236812 c 128,-1,17
 518.5 651.023744675 518.5 651.023744675 518.5 591 c 0,18,19
 518.5 470.935569312 518.5 470.935569312 537.669430459 360.34270128 c 0,20,21
 556.787007254 250.048989001 556.787007254 250.048989001 587.97725476 169.636632149 c 0,22,23
 619.494631995 88.3808939656 619.494631995 88.3808939656 656.868304491 18.0593786107 c 0,24,25
 693.854651717 -51.5333536693 693.854651717 -51.5333536693 730.496675606 -96.8537516376 c 0,26,27
 738.007000712 -106.142837953 738.007000712 -106.142837953 745.283037705 -114.921095166 c 128,-1,28
 752.559074698 -123.69935238 752.559074698 -123.69935238 759.570500187 -131.931496286 c 128,-1,29
 766.581925677 -140.163640192 766.581925677 -140.163640192 773.351812079 -147.878295642 c 128,-1,30
 780.121698482 -155.592951092 780.121698482 -155.592951092 786.625562287 -162.763114756 c 128,-1,31
 793.129426092 -169.933278419 793.129426092 -169.933278419 799.384499836 -176.579294272 c 0,32,33
 829.819735403 -208.916732063 829.819735403 -208.916732063 847.720663732 -223.165497799 c 2,34,-1
 867.5 -238 l 1,35,-1
 921.5 -278.5 l 1,36,-1
 854 -278.5 l 1,37,-1
 662 -278.5 l 1,38,-1
 654.789536298 -278.5 l 1,39,-1
 648.922140641 -274.309003102 l 2,40,41
 646.279309029 -272.421266236 646.279309029 -272.421266236 643.044127657 -269.965429265 c 128,-1,42
 639.808946285 -267.509592294 639.808946285 -267.509592294 636.087884409 -264.575722045 c 128,-1,43
 632.366822532 -261.641851796 632.366822532 -261.641851796 627.862415091 -258.003676555 c 0,44,45
 620.210395483 -251.823199179 620.210395483 -251.823199179 607.875078873 -239.852440274 c 128,-1,46
 595.539762262 -227.881681368 595.539762262 -227.881681368 576.376570863 -208.193471027 c 0,47,48
 538.867786726 -169.657048968 538.867786726 -169.657048968 505 -124.5 c 0,49,50
 487.898094264 -101.697459019 487.898094264 -101.697459019 469.047462912 -71.7647436126 c 128,-1,51
 450.196831561 -41.8320282064 450.196831561 -41.8320282064 429.350406423 -4.4609977774 c 0,52,53
 387.433184193 70.6832908546 387.433184193 70.6832908546 357.80199454 153.957151431 c 0,54,55
 342.927940724 195.75837164 342.927940724 195.75837164 330.461100809 245.245000608 c 128,-1,56
 317.994260893 294.731629576 317.994260893 294.731629576 307.844346586 352.078645413 c 128,-1,57
 297.667698613 409.576706463 297.667698613 409.576706463 292.583849306 469.311920492 c 128,-1,58
 287.5 529.04713452 287.5 529.04713452 287.5 591 c 0,59,60
 287.5 632.280275727 287.5 632.280275727 289.699983365 672.50667775 c 128,-1,61
 291.899966731 712.733079773 291.899966731 712.733079773 296.307987961 751.957427976 c 128,-1,62
 300.71600919 791.18177618 300.71600919 791.18177618 307.330569541 829.34270128 c 0,63,64
 327.192476266 943.930624692 327.192476266 943.930624692 358.937844016 1028.41426467 c 0,65,66
 390.427573482 1112.21757696 390.427573482 1112.21757696 428.574247803 1184.95056933 c 0,67,68
 434.95821408 1197.12266503 434.95821408 1197.12266503 441.337417612 1208.59347461 c 128,-1,69
 447.716621145 1220.06428419 447.716621145 1220.06428419 454.133224416 1230.90628987 c 128,-1,70
 460.549827688 1241.74829554 460.549827688 1241.74829554 466.984976798 1251.91390407 c 128,-1,71
 473.420125907 1262.0795126 473.420125907 1262.0795126 479.886758484 1271.59344071 c 128,-1,72
 486.353391062 1281.10736881 486.353391062 1281.10736881 492.863826382 1289.97297311 c 128,-1,73
 499.374261703 1298.83857742 499.374261703 1298.83857742 505.912212543 1307.03280914 c 0,74,75
 543.926152586 1354.67694733 543.926152586 1354.67694733 575.485834605 1388.78176499 c 0,76,77
 581.931248639 1395.74697048 581.931248639 1395.74697048 587.705082794 1401.7755725 c 128,-1,78
 593.478916948 1407.80417451 593.478916948 1407.80417451 598.961170684 1413.27654202 c 128,-1,79
 604.44342442 1418.74890952 604.44342442 1418.74890952 609.430146303 1423.43399931 c 128,-1,80
 614.416868185 1428.1190891 614.416868185 1428.1190891 619.143371328 1432.23626683 c 128,-1,81
 623.869874471 1436.35344456 623.869874471 1436.35344456 628.276893785 1439.83267034 c 2,82,-1
 648.5 1455 l 1,83,-1
 654.5 1459.5 l 1,84,-1
 662 1459.5 l 1,0,-1
EndSplineSet
EndChar

StartChar: parenright
Encoding: 41 41 12
Width: 1024
GlyphClass: 2
Flags: W
LayerCount: 2
Fore
SplineSet
375.077859359 1455.3090031 m 2,0,1
 382.619637259 1449.92201889 382.619637259 1449.92201889 396.137584909 1439.00367655 c 0,2,3
 410.184650021 1427.65797012 410.184650021 1427.65797012 447.623429137 1389.19347103 c 128,-1,4
 485.132213274 1350.65704897 485.132213274 1350.65704897 519 1305.5 c 128,-1,5
 552.910409031 1260.28612129 552.910409031 1260.28612129 594.649593577 1185.46099778 c 0,6,7
 636.556064433 1110.33598295 636.556064433 1110.33598295 666.18326975 1027.58413361 c 0,8,9
 672.146852199 1010.92723091 672.146852199 1010.92723091 677.725202817 993.005833053 c 128,-1,10
 683.303553435 975.084435191 683.303553435 975.084435191 688.48168642 955.96397077 c 128,-1,11
 693.659819404 936.843506348 693.659819404 936.843506348 698.464776276 916.436763699 c 128,-1,12
 703.269733148 896.03002105 703.269733148 896.03002105 707.685413368 874.429819327 c 128,-1,13
 712.101093588 852.829617604 712.101093588 852.829617604 716.155653414 829.921354587 c 0,14,15
 736.5 714.975796376 736.5 714.975796376 736.5 591 c 128,-1,16
 736.5 467.064430688 736.5 467.064430688 716.669430459 352.65729872 c 128,-1,17
 696.807523734 238.069375308 696.807523734 238.069375308 665.062155984 153.585735327 c 0,18,19
 633.572426518 69.7824230392 633.572426518 69.7824230392 595.425752197 -2.95056933385 c 0,20,21
 556.927807299 -76.3533176045 556.927807299 -76.3533176045 518.087787457 -125.032809141 c 0,22,23
 480.125696912 -172.611962623 480.125696912 -172.611962623 448.626506488 -207.159461798 c 0,24,25
 416.386513651 -242.519453942 416.386513651 -242.519453942 395.723106215 -258.832670339 c 2,26,-1
 375.5 -274 l 1,27,-1
 369.5 -278.5 l 1,28,-1
 362 -278.5 l 1,29,-1
 170 -278.5 l 1,30,-1
 99.7895362983 -278.5 l 1,31,-1
 156.922140641 -237.690996898 l 2,32,33
 163.380362741 -233.077981113 163.380362741 -233.077981113 175.862415091 -222.996323445 c 0,34,35
 187.933987906 -213.246206941 187.933987906 -213.246206941 224.590097423 -176.590097423 c 0,36,37
 261.017230794 -140.162964053 261.017230794 -140.162964053 293.598117496 -97.3701576386 c 0,38,39
 304.330712326 -83.2736151743 304.330712326 -83.2736151743 316.034462641 -65.8520746708 c 128,-1,40
 327.738212956 -48.4305341673 327.738212956 -48.4305341673 340.515599669 -27.490129157 c 128,-1,41
 353.292986381 -6.54972414667 353.292986381 -6.54972414667 366.907373395 17.562503457 c 0,42,43
 407.483114388 89.4255628054 407.483114388 89.4255628054 436.343302119 169.157945859 c 128,-1,44
 465.199179309 248.87842013 465.199179309 248.87842013 485.361361364 360.016301699 c 128,-1,45
 505.5 471.024407352 505.5 471.024407352 505.5 591 c 128,-1,46
 505.5 711.064430688 505.5 711.064430688 486.330569541 821.65729872 c 0,47,48
 467.212992746 931.951010999 467.212992746 931.951010999 436.02274524 1012.36336785 c 0,49,50
 404.505368005 1093.61910603 404.505368005 1093.61910603 367.131695509 1163.94062139 c 0,51,52
 330.145348283 1233.53335367 330.145348283 1233.53335367 293.503324394 1278.85375164 c 0,53,54
 256.087844052 1325.13079311 256.087844052 1325.13079311 224.730014306 1357.95852113 c 0,55,56
 194.247471424 1389.86993321 194.247471424 1389.86993321 176.279485958 1404.16538553 c 2,57,-1
 156.5 1419 l 1,58,-1
 102.5 1459.5 l 1,59,-1
 170 1459.5 l 1,60,-1
 362 1459.5 l 1,61,-1
 369.210463702 1459.5 l 1,62,-1
 375.077859359 1455.3090031 l 2,0,1
EndSplineSet
EndChar

StartChar: asterisk
Encoding: 42 42 13
Width: 1024
GlyphClass: 2
Flags: W
LayerCount: 2
Fore
SplineSet
439 1302.5 m 1,0,-1
 585 1302.5 l 1,1,-1
 607.757871236 1302.5 l 1,2,-1
 607.498539115 1279.74360639 l 1,3,-1
 603.859258159 960.396702524 l 1,4,-1
 907.846564757 1062.33256581 l 1,5,-1
 929.403296152 1069.56117035 l 1,6,-1
 936.406174717 1047.93005656 l 1,7,-1
 981.406174717 908.930056563 l 1,8,-1
 988.401390026 887.32261372 l 1,9,-1
 966.729431136 880.529910187 l 1,10,-1
 661.980820546 785.011688957 l 1,11,-1
 853.045969983 528.438488285 l 1,12,-1
 866.623386314 510.205957782 l 1,13,-1
 848.252181314 496.816774477 l 1,14,-1
 730.252181314 410.816774477 l 1,15,-1
 711.864190607 397.415357521 l 1,16,-1
 698.669519111 415.952261867 l 1,17,-1
 512 678.200171643 l 1,18,-1
 325.330480889 415.952261867 l 1,19,-1
 312.135809393 397.415357521 l 1,20,-1
 293.747818686 410.816774477 l 1,21,-1
 175.747818686 496.816774477 l 1,22,-1
 157.376613686 510.205957782 l 1,23,-1
 170.954030017 528.438488285 l 1,24,-1
 362.019179454 785.011688957 l 1,25,-1
 57.2705688645 880.529910187 l 1,26,-1
 35.5986099736 887.32261372 l 1,27,-1
 42.5938252826 908.930056563 l 1,28,-1
 87.5938252826 1047.93005656 l 1,29,-1
 94.596703848 1069.56117035 l 1,30,-1
 116.153435243 1062.33256581 l 1,31,-1
 420.140741841 960.396702524 l 1,32,-1
 416.501460885 1279.74360639 l 1,33,-1
 416.242128764 1302.5 l 1,34,-1
 439 1302.5 l 1,0,-1
EndSplineSet
EndChar

StartChar: plus
Encoding: 43 43 14
Width: 1024
GlyphClass: 2
Flags: W
LayerCount: 2
Fore
SplineSet
427 1110.5 m 1,0,-1
 597 1110.5 l 1,1,-1
 619.5 1110.5 l 1,2,-1
 619.5 1088 l 1,3,-1
 619.5 741.5 l 1,4,-1
 960 741.5 l 1,5,-1
 982.5 741.5 l 1,6,-1
 982.5 719 l 1,7,-1
 982.5 561 l 1,8,-1
 982.5 538.5 l 1,9,-1
 960 538.5 l 1,10,-1
 619.5 538.5 l 1,11,-1
 619.5 192 l 1,12,-1
 619.5 169.5 l 1,13,-1
 597 169.5 l 1,14,-1
 427 169.5 l 1,15,-1
 404.5 169.5 l 1,16,-1
 404.5 192 l 1,17,-1
 404.5 538.5 l 1,18,-1
 64 538.5 l 1,19,-1
 41.5 538.5 l 1,20,-1
 41.5 561 l 1,21,-1
 41.5 719 l 1,22,-1
 41.5 741.5 l 1,23,-1
 64 741.5 l 1,24,-1
 404.5 741.5 l 1,25,-1
 404.5 1088 l 1,26,-1
 404.5 1110.5 l 1,27,-1
 427 1110.5 l 1,0,-1
EndSplineSet
EndChar

StartChar: comma
Encoding: 44 44 15
Width: 1024
GlyphClass: 2
Flags: W
LayerCount: 2
Fore
SplineSet
384 438.5 m 1,0,-1
 640 438.5 l 1,1,-1
 662.5 438.5 l 1,2,-1
 662.5 416 l 1,3,-1
 662.5 160 l 2,4,5
 662.5 152.023581436 662.5 152.023581436 661.415413234 139.550833632 c 0,6,7
 660.81069812 132.596609811 660.81069812 132.596609811 658.932373153 121.102737733 c 128,-1,8
 657.054048186 109.608865655 657.054048186 109.608865655 653.610988017 91.334161678 c 0,9,10
 646.771665876 55.0331441604 646.771665876 55.0331441604 634.145352028 20.3107810805 c 0,11,12
 627.661816775 2.48105913232 627.661816775 2.48105913232 617.580432254 -17.5492195498 c 128,-1,13
 607.499047734 -37.5794982318 607.499047734 -37.5794982318 593.715201257 -60.2058122599 c 0,14,15
 565.814143705 -106.005661448 565.814143705 -106.005661448 527.909902577 -143.909902577 c 2,16,-1
 399.909902577 -271.909902577 l 1,17,-1
 384.763225168 -287.056579986 l 1,18,-1
 368.890812943 -272.672206407 l 1,19,-1
 240.890812943 -156.672206407 l 1,20,-1
 223.378511564 -140.801683282 l 1,21,-1
 240.090097423 -124.090097423 l 1,22,-1
 368.090097423 3.9099025767 l 2,23,24
 423.929579038 59.7493841912 423.929579038 59.7493841912 454.949752521 101.43274231 c 0,25,26
 471.177437706 123.238694277 471.177437706 123.238694277 479.603219584 137.5 c 1,27,-1
 384 137.5 l 1,28,-1
 361.5 137.5 l 1,29,-1
 361.5 160 l 1,30,-1
 361.5 416 l 1,31,-1
 361.5 438.5 l 1,32,-1
 384 438.5 l 1,0,-1
EndSplineSet
EndChar

StartChar: hyphen
Encoding: 45 45 16
Width: 1024
GlyphClass: 2
Flags: W
LayerCount: 2
Fore
SplineSet
192 741.5 m 1,0,-1
 832 741.5 l 1,1,-1
 854.5 741.5 l 1,2,-1
 854.5 719 l 1,3,-1
 854.5 561 l 1,4,-1
 854.5 538.5 l 1,5,-1
 832 538.5 l 1,6,-1
 192 538.5 l 1,7,-1
 169.5 538.5 l 1,8,-1
 169.5 561 l 1,9,-1
 169.5 719 l 1,10,-1
 169.5 741.5 l 1,11,-1
 192 741.5 l 1,0,-1
EndSplineSet
EndChar

StartChar: period
Encoding: 46 46 17
Width: 1024
GlyphClass: 2
Flags: W
LayerCount: 2
Fore
SplineSet
640 -22.5 m 1,0,-1
 384 -22.5 l 1,1,-1
 361.5 -22.5 l 1,2,-1
 361.5 0 l 1,3,-1
 361.5 320 l 1,4,-1
 361.5 342.5 l 1,5,-1
 384 342.5 l 1,6,-1
 640 342.5 l 1,7,-1
 662.5 342.5 l 1,8,-1
 662.5 320 l 1,9,-1
 662.5 0 l 1,10,-1
 662.5 -22.5 l 1,11,-1
 640 -22.5 l 1,0,-1
EndSplineSet
EndChar

StartChar: slash
Encoding: 47 47 18
Width: 1024
GlyphClass: 2
Flags: W
LayerCount: 2
Fore
SplineSet
155.39386408 -249.721075681 m 1,0,-1
 647.39386408 1443.27892432 l 1,1,-1
 652.107844727 1459.5 l 1,2,-1
 669 1459.5 l 1,3,-1
 847 1459.5 l 1,4,-1
 876.986534959 1459.5 l 1,5,-1
 868.602713326 1430.7093103 l 1,6,-1
 375.602713326 -262.290689704 l 1,7,-1
 370.882577487 -278.5 l 1,8,-1
 354 -278.5 l 1,9,-1
 177 -278.5 l 1,10,-1
 147.03046729 -278.5 l 1,11,-1
 155.39386408 -249.721075681 l 1,0,-1
EndSplineSet
EndChar

StartChar: zero
Encoding: 48 48 19
Width: 1024
GlyphClass: 2
Flags: W
LayerCount: 2
Fore
SplineSet
199.713867188 1116.05371094 m 0,0,1
 322.381835938 1296 322.381835938 1296 557 1296 c 128,-1,2
 791.618164062 1296 791.618164062 1296 914.286132812 1116.05371094 c 0,3,4
 1034 940.443359375 1034 940.443359375 1034 640 c 0,5,6
 1034 490.352539062 1034 490.352539062 1004.24707031 371.309570312 c 128,-1,7
 974.494140625 252.266601562 974.494140625 252.266601562 914.286132812 163.946289062 c 0,8,9
 853.529296875 74.8203125 853.529296875 74.8203125 767.148984308 29.41015625 c 0,10,11
 673.731164891 -16 673.731164891 -16 557 -16 c 0,12,13
 322.381835938 -16 322.381835938 -16 199.713867188 163.946289062 c 0,14,15
 80 339.556640625 80 339.556640625 80 640 c 128,-1,16
 80 940.443359375 80 940.443359375 199.713867188 1116.05371094 c 0,0,1
740.821672221 1011.57226562 m 0,17,18
 672.416746573 1139 672.416746573 1139 557 1139 c 128,-1,19
 441.583253427 1139 441.583253427 1139 373.178327779 1011.57226562 c 0,20,21
 303 876.271484375 303 876.271484375 303 640 c 128,-1,22
 303 403.728515625 303 403.728515625 373.178327779 268.427734375 c 0,23,24
 441.583253427 141 441.583253427 141 557 141 c 0,25,26
 614.792214784 141 614.792214784 141 660.206179039 171.92578125 c 128,-1,27
 705.619061467 202.8515625 705.619061467 202.8515625 740.821672221 268.427734375 c 0,28,29
 764.727858221 312.9609375 764.727858221 312.9609375 780.82758942 368.784179688 c 0,30,31
 796.08203125 424.608398438 796.08203125 424.608398438 803.541015625 492.720703125 c 128,-1,32
 811 560.833007812 811 560.833007812 811 640 c 0,33,34
 811 699.4375 811 699.4375 806.807617188 752.64453125 c 128,-1,35
 802.615234375 805.8515625 802.615234375 805.8515625 794.328125 852.232421875 c 0,36,37
 785.802906165 898.61328125 785.802906165 898.61328125 772.266020229 938.413085938 c 128,-1,38
 758.730216118 978.211914062 758.730216118 978.211914062 740.821672221 1011.57226562 c 0,17,18
437.912618569 790.5 m 1,39,-1
 462.83788445 790.5 l 1,40,-1
 651.16211555 790.5 l 1,41,-1
 676.087381431 790.5 l 1,42,-1
 676.087381431 768 l 1,43,-1
 676.087381431 512 l 1,44,-1
 676.087381431 489.5 l 1,45,-1
 651.16211555 489.5 l 1,46,-1
 462.83788445 489.5 l 1,47,-1
 437.912618569 489.5 l 1,48,-1
 437.912618569 512 l 1,49,-1
 437.912618569 768 l 1,50,-1
 437.912618569 790.5 l 1,39,-1
EndSplineSet
EndChar

StartChar: one
Encoding: 49 49 20
Width: 1024
GlyphClass: 2
Flags: W
LayerCount: 2
Fore
SplineSet
534.5 1280 m 1,0,-1
 543.819335938 1280 l 1,1,-1
 713.819335938 1280 l 1,2,-1
 736.319335938 1280 l 1,3,-1
 736.319335938 1257.5 l 1,4,-1
 736.319335938 22.5 l 1,5,-1
 736.319335938 0 l 1,6,-1
 713.819335938 0 l 1,7,-1
 543.819335938 0 l 1,8,-1
 521.319335938 0 l 1,9,-1
 521.319335938 22.5 l 1,10,-1
 521.319335938 973.953125 l 1,11,-1
 327.729492188 787.084960938 l 1,12,-1
 311.819335938 771.727539062 l 1,13,-1
 295.91015625 787.084960938 l 1,14,-1
 175.91015625 902.91796875 l 1,15,-1
 160 918.275390625 l 1,16,-1
 175.91015625 933.6328125 l 1,17,-1
 527.91015625 1273.41015625 l 1,18,-1
 534.5 1280 l 1,0,-1
EndSplineSet
EndChar

StartChar: two
Encoding: 50 50 21
Width: 1024
GlyphClass: 2
Flags: W
LayerCount: 2
Fore
SplineSet
377.538135148 1274.93359375 m 0,0,1
 458.524415156 1296 458.524415156 1296 557 1296 c 0,2,3
 753.852539062 1296 753.852539062 1296 861.94921875 1187.37109375 c 128,-1,4
 970 1078.78710938 970 1078.78710938 970 925.5 c 0,5,6
 970 904.776367188 970 904.776367188 966.73828125 883.844726562 c 128,-1,7
 963.4765625 862.9140625 963.4765625 862.9140625 957.004882812 841.8828125 c 0,8,9
 944.521484375 801.311523438 944.521484375 801.311523438 928.814453125 768.326171875 c 0,10,11
 912.952148438 735.016601562 912.952148438 735.016601562 876.284179688 683.887695312 c 0,12,13
 840.452148438 633.923828125 840.452148438 633.923828125 814.596679688 601.477539062 c 128,-1,14
 788.814453125 569.125 788.814453125 569.125 732.909454175 503.125 c 2,15,-1
 406.329249195 157 l 1,16,-1
 963.5 157 l 1,17,-1
 986 157 l 1,18,-1
 986 140.140625 l 1,19,-1
 986 22.5 l 1,20,-1
 986 0 l 1,21,-1
 963.5 0 l 1,22,-1
 150.5 0 l 1,23,-1
 128 0 l 1,24,-1
 128 22.5 l 1,25,-1
 128 179.5 l 1,26,-1
 128 187.607421875 l 1,27,-1
 133.170898438 193.8515625 l 1,28,-1
 555.462588798 676.827148438 l 2,29,30
 581.940349857 705.03125 581.940349857 705.03125 603.526449206 728.298828125 c 128,-1,31
 625.111435295 751.56640625 625.111435295 751.56640625 641.595466913 769.66796875 c 128,-1,32
 658.07949853 787.770507812 658.07949853 787.770507812 669.505992791 800.750976562 c 0,33,34
 702.750144352 838.51953125 702.750144352 838.51953125 730.704087346 887.5625 c 0,35,36
 755 933.811523438 755 933.811523438 755 970.5 c 0,37,38
 755 1032.68945312 755 1032.68945312 700.617139383 1086.22167969 c 0,39,40
 644.964189792 1139 644.964189792 1139 557 1139 c 128,-1,41
 469.035810208 1139 469.035810208 1139 413.382860617 1086.86816406 c 0,42,43
 359 1033.3359375 359 1033.3359375 359 971.146484375 c 2,44,-1
 359 948.646484375 l 1,45,-1
 336.5 948.646484375 l 1,46,-1
 166.5 948.646484375 l 1,47,-1
 144 948.646484375 l 1,48,-1
 144 971.146484375 l 2,49,50
 144 1001.59082031 144 1001.59082031 148.362304688 1030.46484375 c 128,-1,51
 152.723632812 1059.33886719 152.723632812 1059.33886719 161.41796875 1086.48339844 c 128,-1,52
 170.11328125 1113.62695312 170.11328125 1113.62695312 183.086914062 1139 c 0,53,54
 196.060546875 1158.65820312 196.060546875 1158.65820312 213.325195312 1176.89453125 c 128,-1,55
 230.58984375 1195.13085938 230.58984375 1195.13085938 252.05078125 1211.83984375 c 0,56,57
 306.032226562 1253.8671875 306.032226562 1253.8671875 377.538135148 1274.93359375 c 0,0,1
EndSplineSet
EndChar

StartChar: three
Encoding: 51 51 22
Width: 1024
GlyphClass: 2
Flags: W
LayerCount: 2
Fore
SplineSet
273.010742188 1283.9296875 m 128,-1,1
 326.453125 1288 326.453125 1288 394.998814745 1288 c 0,2,3
 539.685761008 1288 539.685761008 1288 650.46433284 1267.68652344 c 0,4,5
 760.653320312 1248.07714844 760.653320312 1248.07714844 829.184570312 1207.87207031 c 0,6,7
 899.423828125 1166.66601562 899.423828125 1166.66601562 934.711914062 1097.74511719 c 128,-1,8
 970 1028.82421875 970 1028.82421875 970 935.412109375 c 0,9,10
 970 880.084960938 970 880.084960938 950.907226562 833.741210938 c 0,11,12
 931.69140625 787.100585938 931.69140625 787.100585938 903.41015625 759.797851562 c 0,13,14
 896.84765625 753.462890625 896.84765625 753.462890625 890.274414062 747.592773438 c 128,-1,15
 883.701171875 741.72265625 883.701171875 741.72265625 877.077148438 736.28515625 c 128,-1,16
 870.453125 730.84765625 870.453125 730.84765625 863.778320312 725.854492188 c 128,-1,17
 857.103515625 720.861328125 857.103515625 720.861328125 850.403320312 716.333007812 c 0,18,19
 840.375976562 709.557617188 840.375976562 709.557617188 831.108398438 704.194335938 c 1,20,21
 835.508789062 701.455078125 835.508789062 701.455078125 840.168945312 698.426757812 c 128,-1,22
 844.830078125 695.3984375 844.830078125 695.3984375 849.807617188 692.05078125 c 128,-1,23
 854.786132812 688.703125 854.786132812 688.703125 860.578125 684.708984375 c 0,24,25
 898.1015625 658.833984375 898.1015625 658.833984375 926.543945312 624.640625 c 0,26,27
 941.274414062 606.932617188 941.274414062 606.932617188 954.165039062 583.065429688 c 128,-1,28
 967.0546875 559.19921875 967.0546875 559.19921875 978.625 528.737304688 c 0,29,30
 990.34765625 497.872070312 990.34765625 497.872070312 996.173828125 463.869140625 c 128,-1,31
 1002 429.866210938 1002 429.866210938 1002 392.862304688 c 0,32,33
 1002 283.591796875 1002 283.591796875 962.228515625 204.75390625 c 0,34,35
 921.868164062 124.749023438 921.868164062 124.749023438 843.306640625 77.9970703125 c 0,36,37
 804.985351562 55.19140625 804.985351562 55.19140625 760.247070312 38.822265625 c 0,38,39
 710.077639092 22.453125 710.077639092 22.453125 652.241819191 12.4501953125 c 0,40,41
 538.095320232 -8 538.095320232 -8 387.065426099 -8 c 0,42,43
 320.73828125 -8 320.73828125 -8 260.978515625 -3.9482421875 c 128,-1,44
 201.086914062 0.1123046875 201.086914062 0.1123046875 173.140625 4.251953125 c 2,45,-1
 147.079101562 8.26171875 l 1,46,-1
 128 11.197265625 l 1,47,-1
 128 30.5 l 1,48,-1
 128 179.5 l 1,49,-1
 128 202 l 1,50,-1
 150.5 202 l 1,51,-1
 387.065426099 202 l 2,52,53
 590.275501743 202 590.275501743 202 694.529614023 249.048828125 c 0,54,55
 787 292.629882812 787 292.629882812 787 395.25 c 0,56,57
 787 484.317382812 787 484.317382812 715.008337531 535.579101562 c 0,58,59
 636.453623178 588.5 636.453623178 588.5 498.132867133 588.5 c 2,60,-1
 310.5 588.5 l 1,61,-1
 288 588.5 l 1,62,-1
 288 611 l 1,63,-1
 288 768 l 1,64,-1
 288 790.5 l 1,65,-1
 310.5 790.5 l 1,66,-1
 484.532772312 790.5 l 2,67,68
 613.763556127 790.5 613.763556127 790.5 686.5796237 831.358398438 c 0,69,70
 754.834656869 869.658203125 754.834656869 869.658203125 754.834656869 934.713867188 c 0,71,72
 754.834656869 973.293945312 754.834656869 973.293945312 734.625987327 999.293945312 c 128,-1,73
 714.417317785 1025.29296875 714.417317785 1025.29296875 671.379127096 1041.98632812 c 0,74,75
 578.529260993 1078 578.529260993 1078 394.998814745 1078 c 2,76,-1
 182.5 1078 l 1,77,-1
 160 1078 l 1,78,-1
 160 1100.5 l 1,79,-1
 160 1249.5 l 1,80,-1
 160 1267.9453125 l 1,81,-1
 178.086914062 1271.56347656 l 2,82,0
 219.567382812 1279.859375 219.567382812 1279.859375 273.010742188 1283.9296875 c 128,-1,1
EndSplineSet
EndChar

StartChar: four
Encoding: 52 52 23
Width: 1024
GlyphClass: 2
Flags: W
LayerCount: 2
Fore
SplineSet
637.78437427 1280 m 1,0,-1
 651.609949275 1280 l 1,1,-1
 867.5 1280 l 1,2,-1
 890 1280 l 1,3,-1
 890 1257.5 l 1,4,-1
 890 435.5 l 1,5,-1
 1027.5 435.5 l 1,6,-1
 1050 435.5 l 1,7,-1
 1050 413 l 1,8,-1
 1050 256 l 1,9,-1
 1050 233.5 l 1,10,-1
 1027.5 233.5 l 1,11,-1
 890 233.5 l 1,12,-1
 890 22.5 l 1,13,-1
 890 0 l 1,14,-1
 867.5 0 l 1,15,-1
 686.81365133 0 l 1,16,-1
 662.061048323 0 l 1,17,-1
 662.061048323 22.5 l 1,18,-1
 662.061048323 233.5 l 1,19,-1
 86.5 233.5 l 1,20,-1
 64 233.5 l 1,21,-1
 64 255.521484375 l 1,22,-1
 64 409.18359375 l 1,23,-1
 64 415.420898438 l 1,24,-1
 67.341796875 420.732421875 l 1,25,-1
 630.533709439 1269.29980469 l 1,26,-1
 637.78437427 1280 l 1,0,-1
328.457411551 435.5 m 1,27,-1
 662.061048323 435.5 l 1,28,-1
 662.061048323 928.478515625 l 1,29,-1
 328.457411551 435.5 l 1,27,-1
EndSplineSet
EndChar

StartChar: five
Encoding: 53 53 24
Width: 1024
GlyphClass: 2
Flags: W
LayerCount: 2
Fore
SplineSet
931.5 1123 m 1,0,-1
 375.165343131 1123 l 1,1,-1
 375.165343131 819.5 l 1,2,-1
 555.93327012 819.5 l 2,3,4
 772.779296875 819.5 772.779296875 819.5 886.583984375 725.198242188 c 0,5,6
 1002 629.560546875 1002 629.560546875 1002 465.622070312 c 0,7,8
 1002 336.673828125 1002 336.673828125 962.802734375 244.073242188 c 0,9,10
 922.875 149.747070312 922.875 149.747070312 844.71875 94.505859375 c 0,11,12
 768.1328125 40.373046875 768.1328125 40.373046875 653.203609751 15.9873046875 c 0,13,14
 538.594477358 -8 538.594477358 -8 387.065426099 -8 c 0,15,16
 320.73828125 -8 320.73828125 -8 260.978515625 -3.9482421875 c 128,-1,17
 201.086914062 0.1123046875 201.086914062 0.1123046875 173.140625 4.251953125 c 2,18,-1
 147.079101562 8.26171875 l 1,19,-1
 128 11.197265625 l 1,20,-1
 128 30.5 l 1,21,-1
 128 179.5 l 1,22,-1
 128 202 l 1,23,-1
 150.5 202 l 1,24,-1
 387.065426099 202 l 2,25,26
 588.588771233 202 588.588771233 202 691.886626846 263.50390625 c 0,27,28
 787 322.577148438 787 322.577148438 787 464.295898438 c 0,29,30
 787 534.709960938 787 534.709960938 730.912745292 575.259765625 c 0,31,32
 668.213740444 617.5 668.213740444 617.5 555.93327012 617.5 c 2,33,-1
 182.5 617.5 l 1,34,-1
 160 617.5 l 1,35,-1
 160 639.236328125 l 1,36,-1
 160 1257.5 l 1,37,-1
 160 1280 l 1,38,-1
 182.5 1280 l 1,39,-1
 931.5 1280 l 1,40,-1
 954 1280 l 1,41,-1
 954 1257.5 l 1,42,-1
 954 1139.859375 l 1,43,-1
 954 1123 l 1,44,-1
 931.5 1123 l 1,0,-1
EndSplineSet
EndChar

StartChar: six
Encoding: 54 54 25
Width: 1024
GlyphClass: 2
Flags: W
LayerCount: 2
Fore
SplineSet
542.036778955 1280 m 1,0,-1
 557 1280 l 1,1,-1
 773.5 1280 l 1,2,-1
 811.657226562 1280 l 1,3,-1
 793.189453125 1248.125 l 1,4,-1
 508.975018035 805.743164062 l 1,5,6
 521.894997595 806.15234375 521.894997595 806.15234375 533.111908957 806.326171875 c 128,-1,7
 544.327719434 806.5 544.327719434 806.5 557 806.5 c 0,8,9
 773.819335938 806.5 773.819335938 806.5 887.91015625 695.448242188 c 128,-1,10
 1002 584.395507812 1002 584.395507812 1002 395.25 c 128,-1,11
 1002 206.104492188 1002 206.104492188 887.91015625 95.0517578125 c 128,-1,12
 773.819335938 -16 773.819335938 -16 557 -16 c 128,-1,13
 340.180664062 -16 340.180664062 -16 226.08984375 94.228515625 c 128,-1,14
 112 204.456054688 112 204.456054688 112 392.198242188 c 0,15,16
 112 562.953125 112 562.953125 162.77734375 652.892578125 c 2,17,-1
 534.799564774 1268.38183594 l 1,18,-1
 542.036778955 1280 l 1,0,-1
728.033403587 543.509765625 m 0,19,20
 665.635274627 604.5 665.635274627 604.5 557 604.5 c 0,21,22
 421.391956184 604.5 421.391956184 604.5 372.534705597 556.215820312 c 0,23,24
 327 507.345703125 327 507.345703125 327 372.75 c 0,25,26
 327 263.454101562 327 263.454101562 385.966596413 201.990234375 c 0,27,28
 417.185476813 171.475585938 417.185476813 171.475585938 459.429714685 156.23828125 c 128,-1,29
 501.675053442 141 501.675053442 141 557 141 c 0,30,31
 665.635274627 141 665.635274627 141 728.033403587 201.990234375 c 0,32,33
 787 263.454101562 787 263.454101562 787 372.75 c 128,-1,34
 787 482.045898438 787 482.045898438 728.033403587 543.509765625 c 0,19,20
EndSplineSet
EndChar

StartChar: seven
Encoding: 55 55 26
Width: 1024
GlyphClass: 2
Flags: W
LayerCount: 2
Fore
SplineSet
1018 1280 m 1,0,-1
 1018 1257.5 l 1,1,-1
 1018 1105.98632812 l 1,2,-1
 1018 1102.09375 l 1,3,-1
 1016.59863281 1098.44335938 l 1,4,-1
 580.56163602 14.6845703125 l 1,5,-1
 574.487194334 -0 l 1,6,-1
 557 0 l 1,7,-1
 354.870499118 0 l 1,8,-1
 321.170898438 0 l 1,9,-1
 332.401367188 30.3154296875 l 1,10,-1
 782.170898438 1123 l 1,11,-1
 118.5 1123 l 1,12,-1
 96 1123 l 1,13,-1
 96 1139.859375 l 1,14,-1
 96 1257.5 l 1,15,-1
 96 1280 l 1,16,-1
 118.5 1280 l 1,17,-1
 995.5 1280 l 1,18,-1
 1018 1280 l 1,0,-1
EndSplineSet
EndChar

StartChar: eight
Encoding: 56 56 27
Width: 1024
GlyphClass: 2
Flags: W
LayerCount: 2
Fore
SplineSet
115.221679688 925.015625 m 128,-1,1
 112 941.978515625 112 941.978515625 112 959.056640625 c 0,2,3
 112 1115.39160156 112 1115.39160156 227.796875 1206.51953125 c 0,4,5
 343.197690047 1296 343.197690047 1296 557 1296 c 128,-1,6
 770.802309953 1296 770.802309953 1296 886.203125 1206.51953125 c 0,7,8
 1002 1115.39160156 1002 1115.39160156 1002 959.056640625 c 0,9,10
 1002 933.5703125 1002 933.5703125 995.127929688 908.620117188 c 128,-1,11
 988.255859375 883.670898438 988.255859375 883.670898438 974.760742188 859.706054688 c 0,12,13
 948.329101562 812.766601562 948.329101562 812.766601562 910.282226562 780.7109375 c 0,14,15
 874.381835938 750.463867188 874.381835938 750.463867188 838.403320312 726.11328125 c 0,16,17
 812.442382812 708.543945312 812.442382812 708.543945312 790.62109375 697.265625 c 1,18,19
 810.6953125 685.190429688 810.6953125 685.190429688 848.15234375 659.100585938 c 0,20,21
 896.189453125 625.640625 896.189453125 625.640625 933.51953125 589.047851562 c 0,22,23
 941.298828125 581.420898438 941.298828125 581.420898438 948.74609375 572.97265625 c 128,-1,24
 956.193359375 564.525390625 956.193359375 564.525390625 963.245117188 555.344726562 c 128,-1,25
 970.296875 546.165039062 970.296875 546.165039062 977.034179688 536.166015625 c 128,-1,26
 983.771484375 526.166992188 983.771484375 526.166992188 990.130859375 515.461914062 c 128,-1,27
 996.491210938 504.7578125 996.491210938 504.7578125 1002.55371094 493.236328125 c 0,28,29
 1018.16601562 463.567382812 1018.16601562 463.567382812 1026.08300781 433.213867188 c 128,-1,30
 1034 402.859375 1034 402.859375 1034 372.185546875 c 0,31,32
 1034 192.151367188 1034 192.151367188 910.31640625 87.5166015625 c 0,33,34
 787.923284686 -16 787.923284686 -16 557 -16 c 128,-1,35
 326.076715314 -16 326.076715314 -16 203.68359375 87.5166015625 c 0,36,37
 80 192.151367188 80 192.151367188 80 372.185546875 c 0,38,39
 80 433.357421875 80 433.357421875 110.33984375 492.547851562 c 0,40,41
 140.044921875 550.501953125 140.044921875 550.501953125 182.294921875 590.31640625 c 0,42,43
 202.517578125 609.373046875 202.517578125 609.373046875 222.788085938 626.366210938 c 128,-1,44
 243.057617188 643.359375 243.057617188 643.359375 263.391601562 658.291015625 c 0,45,46
 296.62109375 682.69140625 296.62109375 682.69140625 322.60546875 697.515625 c 1,47,48
 305.568359375 707.173828125 305.568359375 707.173828125 277.125 725.283203125 c 0,49,50
 234.602539062 752.357421875 234.602539062 752.357421875 201.760742188 781.590820312 c 0,51,52
 167.624023438 811.975585938 167.624023438 811.975585938 140.372070312 858.989257812 c 0,53,54
 131.033203125 875.100585938 131.033203125 875.100585938 124.73828125 891.577148438 c 128,-1,0
 118.443359375 908.053710938 118.443359375 908.053710938 115.221679688 925.015625 c 128,-1,1
385.638797068 1097.86035156 m 0,55,56
 327.133659097 1059.10351562 327.133659097 1059.10351562 327.133659097 992.5 c 0,57,58
 327.133659097 989.079101562 327.133659097 989.079101562 327.443061269 985.694335938 c 128,-1,59
 327.752463441 982.310546875 327.752463441 982.310546875 328.383167869 978.883789062 c 128,-1,60
 329.013872296 975.45703125 329.013872296 975.45703125 329.982106366 972.036132812 c 128,-1,61
 330.951422261 968.616210938 330.951422261 968.616210938 332.259349625 965.15625 c 128,-1,62
 333.568358814 961.697265625 333.568358814 961.697265625 335.243025115 958.212890625 c 128,-1,63
 336.917691416 954.727539062 336.917691416 954.727539062 338.95044205 951.208007812 c 128,-1,64
 340.984274509 947.688476562 340.984274509 947.688476562 343.41189155 944.110351562 c 128,-1,65
 345.840590418 940.532226562 345.840590418 940.532226562 348.646846481 936.920898438 c 0,66,67
 372.04349254 906.814453125 372.04349254 906.814453125 405.905721157 886.13671875 c 0,68,69
 442.574205838 863.745117188 442.574205838 863.745117188 479.182108275 845.763671875 c 0,70,71
 496.778004523 837.12109375 496.778004523 837.12109375 512.334659183 830.354492188 c 128,-1,72
 527.891313843 823.587890625 527.891313843 823.587890625 538.914036675 819.659179688 c 2,73,-1
 556.342249928 814.415039062 l 2,74,75
 559.866838307 815.625976562 559.866838307 815.625976562 562.649294203 816.567382812 c 0,76,77
 564.475416113 817.185546875 564.475416113 817.185546875 567.587828871 818.330078125 c 128,-1,78
 570.701323454 819.475585938 570.701323454 819.475585938 574.964798838 821.096679688 c 128,-1,79
 579.228274221 822.71875 579.228274221 822.71875 584.826722612 824.895507812 c 128,-1,80
 590.426252829 827.072265625 590.426252829 827.072265625 596.85987072 829.61328125 c 0,81,82
 609.76821588 834.7109375 609.76821588 834.7109375 622.119420766 840.043945312 c 128,-1,83
 634.469543825 845.375976562 634.469543825 845.375976562 646.262526611 850.940429688 c 0,84,85
 657.704997844 856.33984375 657.704997844 856.33984375 670.552760761 863.393554688 c 128,-1,86
 683.400523678 870.447265625 683.400523678 870.447265625 697.531331965 879.112304688 c 0,87,88
 724.936142525 895.916015625 724.936142525 895.916015625 744.315969478 913.41015625 c 0,89,90
 762.647507253 929.95703125 762.647507253 929.95703125 775.276741363 951.880859375 c 0,91,92
 786.866340903 972 786.866340903 972 786.866340903 992.5 c 0,93,94
 786.866340903 1059.10351562 786.866340903 1059.10351562 728.361202932 1097.86035156 c 0,95,96
 666.261157907 1139 666.261157907 1139 557 1139 c 0,97,98
 501.612683916 1139 501.612683916 1139 458.916266011 1128.56054688 c 128,-1,99
 416.220929932 1118.12011719 416.220929932 1118.12011719 385.638797068 1097.86035156 c 0,55,56
577.144677776 621.795898438 m 2,100,-1
 556.610542721 630.034179688 l 1,101,102
 553.382374605 628.817382812 553.382374605 628.817382812 550.609655141 627.763671875 c 0,103,104
 546.236915354 626.1015625 546.236915354 626.1015625 536.003925338 621.610351562 c 128,-1,105
 525.770935322 617.119140625 525.770935322 617.119140625 511.25716071 610.44921875 c 0,106,107
 481.828254123 596.924804688 481.828254123 596.924804688 455.669706857 581.985351562 c 0,108,109
 429.716706489 567.1640625 429.716706489 567.1640625 397.025013361 543.458984375 c 0,110,111
 365.027852382 520.256835938 365.027852382 520.256835938 342.708704796 496.829101562 c 0,112,113
 321.696289062 474.313476562 321.696289062 474.313476562 308.03515625 443.8046875 c 0,114,115
 295 414.692382812 295 414.692382812 295 385.5 c 0,116,117
 295 301.422851562 295 301.422851562 360.276473574 252.678710938 c 0,118,119
 431.591510559 202 431.591510559 202 557 202 c 128,-1,120
 682.408489441 202 682.408489441 202 753.723526426 252.678710938 c 0,121,122
 819 301.422851562 819 301.422851562 819 385.5 c 0,123,124
 819 425.267578125 819 425.267578125 795.206054688 464.923828125 c 0,125,126
 768.330338055 506.48828125 768.330338055 506.48828125 729.137953839 534.974609375 c 0,127,128
 708.374471719 550.06640625 708.374471719 550.06640625 687.658589932 563.423828125 c 128,-1,129
 666.943789972 576.78125 666.943789972 576.78125 646.285244952 588.40625 c 0,130,131
 632.471411617 596.1796875 632.471411617 596.1796875 620.153743331 602.484375 c 128,-1,132
 607.836075044 608.790039062 607.836075044 608.790039062 597.171436543 613.571289062 c 128,-1,133
 586.506798043 618.352539062 586.506798043 618.352539062 577.144677776 621.795898438 c 2,100,-1
EndSplineSet
EndChar

StartChar: nine
Encoding: 57 57 28
Width: 1024
GlyphClass: 2
Flags: W
LayerCount: 2
Fore
SplineSet
571.963221045 -0 m 1,0,-1
 557 0 l 1,1,-1
 340.5 0 l 1,2,-1
 302.342773438 0 l 1,3,-1
 320.810546875 31.875 l 1,4,-1
 605.024981965 474.256835938 l 1,5,6
 592.105002405 473.84765625 592.105002405 473.84765625 580.888091043 473.673828125 c 128,-1,7
 569.672280566 473.5 569.672280566 473.5 557 473.5 c 0,8,9
 340.180664062 473.5 340.180664062 473.5 226.08984375 584.551757812 c 128,-1,10
 112 695.604492188 112 695.604492188 112 884.75 c 128,-1,11
 112 1073.89550781 112 1073.89550781 226.08984375 1184.94824219 c 128,-1,12
 340.180664062 1296 340.180664062 1296 557 1296 c 128,-1,13
 773.819335938 1296 773.819335938 1296 887.91015625 1185.77148438 c 128,-1,14
 1002 1075.54394531 1002 1075.54394531 1002 887.801757812 c 0,15,16
 1002 831.265625 1002 831.265625 996.616210938 784.100585938 c 128,-1,17
 991.232421875 736.936523438 991.232421875 736.936523438 979.904296875 697.390625 c 128,-1,18
 968.576171875 657.844726562 968.576171875 657.844726562 951.22265625 627.107421875 c 2,19,-1
 579.200435226 11.6181640625 l 1,20,-1
 571.963221045 -0 l 1,0,-1
385.966596413 736.490234375 m 0,21,22
 448.364725373 675.5 448.364725373 675.5 557 675.5 c 0,23,24
 692.608043816 675.5 692.608043816 675.5 741.465294403 723.784179688 c 0,25,26
 787 772.654296875 787 772.654296875 787 907.25 c 0,27,28
 787 1016.54589844 787 1016.54589844 728.033403587 1078.00976562 c 0,29,30
 665.635274627 1139 665.635274627 1139 557 1139 c 128,-1,31
 448.364725373 1139 448.364725373 1139 385.966596413 1078.00976562 c 0,32,33
 327 1016.54589844 327 1016.54589844 327 907.25 c 128,-1,34
 327 797.954101562 327 797.954101562 385.966596413 736.490234375 c 0,21,22
EndSplineSet
EndChar

StartChar: colon
Encoding: 58 58 29
Width: 1024
GlyphClass: 2
Flags: W
LayerCount: 2
Fore
SplineSet
384 1206.5 m 1,0,-1
 640 1206.5 l 1,1,-1
 662.5 1206.5 l 1,2,-1
 662.5 1184 l 1,3,-1
 662.5 864 l 1,4,-1
 662.5 841.5 l 1,5,-1
 640 841.5 l 1,6,-1
 384 841.5 l 1,7,-1
 361.5 841.5 l 1,8,-1
 361.5 864 l 1,9,-1
 361.5 1184 l 1,10,-1
 361.5 1206.5 l 1,11,-1
 384 1206.5 l 1,0,-1
384 438.5 m 1,12,-1
 640 438.5 l 1,13,-1
 662.5 438.5 l 1,14,-1
 662.5 416 l 1,15,-1
 662.5 96 l 1,16,-1
 662.5 73.5 l 1,17,-1
 640 73.5 l 1,18,-1
 384 73.5 l 1,19,-1
 361.5 73.5 l 1,20,-1
 361.5 96 l 1,21,-1
 361.5 416 l 1,22,-1
 361.5 438.5 l 1,23,-1
 384 438.5 l 1,12,-1
EndSplineSet
EndChar

StartChar: semicolon
Encoding: 59 59 30
Width: 1024
GlyphClass: 2
Flags: W
LayerCount: 2
Fore
SplineSet
384 1206.5 m 1,0,-1
 640 1206.5 l 1,1,-1
 662.5 1206.5 l 1,2,-1
 662.5 1184 l 1,3,-1
 662.5 864 l 1,4,-1
 662.5 841.5 l 1,5,-1
 640 841.5 l 1,6,-1
 384 841.5 l 1,7,-1
 361.5 841.5 l 1,8,-1
 361.5 864 l 1,9,-1
 361.5 1184 l 1,10,-1
 361.5 1206.5 l 1,11,-1
 384 1206.5 l 1,0,-1
384 438.5 m 1,12,-1
 640 438.5 l 1,13,-1
 662.5 438.5 l 1,14,-1
 662.5 416 l 1,15,-1
 662.5 160 l 2,16,17
 662.5 152.023581436 662.5 152.023581436 661.415413234 139.550833632 c 0,18,19
 660.81069812 132.596609811 660.81069812 132.596609811 658.932373153 121.102737733 c 128,-1,20
 657.054048186 109.608865655 657.054048186 109.608865655 653.610988017 91.334161678 c 0,21,22
 646.771665876 55.0331441604 646.771665876 55.0331441604 634.145352028 20.3107810805 c 0,23,24
 627.661816775 2.48105913232 627.661816775 2.48105913232 617.580432254 -17.5492195498 c 128,-1,25
 607.499047734 -37.5794982318 607.499047734 -37.5794982318 593.715201257 -60.2058122599 c 0,26,27
 565.814143705 -106.005661448 565.814143705 -106.005661448 527.909902577 -143.909902577 c 2,28,-1
 399.909902577 -271.909902577 l 1,29,-1
 384.763225168 -287.056579986 l 1,30,-1
 368.890812943 -272.672206407 l 1,31,-1
 240.890812943 -156.672206407 l 1,32,-1
 223.378511564 -140.801683282 l 1,33,-1
 240.090097423 -124.090097423 l 1,34,-1
 368.090097423 3.9099025767 l 2,35,36
 423.929579038 59.7493841912 423.929579038 59.7493841912 454.949752521 101.43274231 c 0,37,38
 471.177437706 123.238694277 471.177437706 123.238694277 479.603219584 137.5 c 1,39,-1
 384 137.5 l 1,40,-1
 361.5 137.5 l 1,41,-1
 361.5 160 l 1,42,-1
 361.5 416 l 1,43,-1
 361.5 438.5 l 1,44,-1
 384 438.5 l 1,12,-1
EndSplineSet
EndChar

StartChar: less
Encoding: 60 60 31
Width: 1024
GlyphClass: 2
Flags: W
LayerCount: 2
Fore
SplineSet
854.922215205 1179.17373286 m 1,0,-1
 946.922215205 1036.17373286 l 1,1,-1
 959.097158448 1017.2496363 l 1,2,-1
 940.171851536 1005.07657457 l 1,3,-1
 372.591864517 640 l 1,4,-1
 940.171851536 274.923425435 l 1,5,-1
 959.097158448 262.750363703 l 1,6,-1
 946.922215205 243.826267141 l 1,7,-1
 854.922215205 100.826267141 l 1,8,-1
 842.749458731 81.9055695777 l 1,9,-1
 823.827784883 94.0768084314 l 1,10,-1
 83.8277848829 570.076808431 l 1,11,-1
 73.5 576.720086275 l 1,12,-1
 73.5 589 l 1,13,-1
 73.5 691 l 1,14,-1
 73.5 703.279913725 l 1,15,-1
 83.8277848829 709.923191569 l 1,16,-1
 823.827784883 1185.92319157 l 1,17,-1
 842.749458731 1198.09443042 l 1,18,-1
 854.922215205 1179.17373286 l 1,0,-1
EndSplineSet
EndChar

StartChar: equal
Encoding: 61 61 32
Width: 1024
GlyphClass: 2
Flags: W
LayerCount: 2
Fore
SplineSet
96 947.5 m 1,0,-1
 928 947.5 l 1,1,-1
 950.5 947.5 l 1,2,-1
 950.5 925 l 1,3,-1
 950.5 768 l 1,4,-1
 950.5 745.5 l 1,5,-1
 928 745.5 l 1,6,-1
 96 745.5 l 1,7,-1
 73.5 745.5 l 1,8,-1
 73.5 768 l 1,9,-1
 73.5 925 l 1,10,-1
 73.5 947.5 l 1,11,-1
 96 947.5 l 1,0,-1
96 534.5 m 1,12,-1
 928 534.5 l 1,13,-1
 950.5 534.5 l 1,14,-1
 950.5 512 l 1,15,-1
 950.5 355 l 1,16,-1
 950.5 332.5 l 1,17,-1
 928 332.5 l 1,18,-1
 96 332.5 l 1,19,-1
 73.5 332.5 l 1,20,-1
 73.5 355 l 1,21,-1
 73.5 512 l 1,22,-1
 73.5 534.5 l 1,23,-1
 96 534.5 l 1,12,-1
EndSplineSet
EndChar

StartChar: greater
Encoding: 62 62 33
Width: 1024
GlyphClass: 2
Flags: W
LayerCount: 2
Fore
SplineSet
200.172215117 1185.92319157 m 1,0,-1
 940.172215117 709.923191569 l 1,1,-1
 950.5 703.279913725 l 1,2,-1
 950.5 691 l 1,3,-1
 950.5 589 l 1,4,-1
 950.5 576.720086275 l 1,5,-1
 940.172215117 570.076808431 l 1,6,-1
 200.172215117 94.0768084314 l 1,7,-1
 181.250541269 81.9055695777 l 1,8,-1
 169.077784795 100.826267141 l 1,9,-1
 77.0777847948 243.826267141 l 1,10,-1
 64.9028415522 262.750363703 l 1,11,-1
 83.828148464 274.923425435 l 1,12,-1
 651.408135483 640 l 1,13,-1
 83.828148464 1005.07657457 l 1,14,-1
 64.9028415522 1017.2496363 l 1,15,-1
 77.0777847948 1036.17373286 l 1,16,-1
 169.077784795 1179.17373286 l 1,17,-1
 181.250541269 1198.09443042 l 1,18,-1
 200.172215117 1185.92319157 l 1,0,-1
EndSplineSet
EndChar

StartChar: question
Encoding: 63 63 34
Width: 1024
GlyphClass: 2
Flags: W
LayerCount: 2
Fore
SplineSet
156.513225201 1294.22818934 m 2,0,1
 260.246018135 1310.5 260.246018135 1310.5 427 1310.5 c 0,2,3
 501.999026137 1310.5 501.999026137 1310.5 565.271994277 1301.85918703 c 128,-1,4
 628.544962417 1293.21837406 628.544962417 1293.21837406 681.5265787 1275.33660631 c 128,-1,5
 734.508194984 1257.45483857 734.508194984 1257.45483857 775.850058904 1230.30760604 c 0,6,7
 839.103180698 1188.77229431 839.103180698 1188.77229431 870.801590349 1121.42961653 c 128,-1,8
 902.5 1054.08693875 902.5 1054.08693875 902.5 964 c 0,9,10
 902.5 817.21148079 902.5 817.21148079 795.088030732 730.95641456 c 0,11,12
 696.971416787 652.165800332 696.971416787 652.165800332 534.5 646.845998999 c 1,13,-1
 534.5 512 l 1,14,-1
 534.5 489.5 l 1,15,-1
 512 489.5 l 1,16,-1
 342 489.5 l 1,17,-1
 319.5 489.5 l 1,18,-1
 319.5 512 l 1,19,-1
 319.5 805 l 1,20,-1
 319.5 827.5 l 1,21,-1
 342 827.5 l 2,22,23
 430.002047496 827.5 430.002047496 827.5 496.803134068 836.528200343 c 128,-1,24
 563.60422064 845.556400687 563.60422064 845.556400687 607.7590413 862.93648967 c 0,25,26
 649.659825519 879.429351543 649.659825519 879.429351543 668.579912759 903.989002781 c 128,-1,27
 687.5 928.548654018 687.5 928.548654018 687.5 964 c 0,28,29
 687.5 1036.180221 687.5 1036.180221 627.826356538 1066.43144303 c 0,30,31
 560.622627728 1100.5 560.622627728 1100.5 427 1100.5 c 2,32,-1
 160 1100.5 l 1,33,-1
 137.5 1100.5 l 1,34,-1
 137.5 1123 l 1,35,-1
 137.5 1272 l 1,36,-1
 137.5 1291.24572265 l 1,37,-1
 156.513225201 1294.22818934 l 2,0,1
384 278.5 m 1,38,-1
 640 278.5 l 1,39,-1
 662.5 278.5 l 1,40,-1
 662.5 256 l 1,41,-1
 662.5 0 l 1,42,-1
 662.5 -22.5 l 1,43,-1
 640 -22.5 l 1,44,-1
 384 -22.5 l 1,45,-1
 361.5 -22.5 l 1,46,-1
 361.5 0 l 1,47,-1
 361.5 256 l 1,48,-1
 361.5 278.5 l 1,49,-1
 384 278.5 l 1,38,-1
EndSplineSet
EndChar

StartChar: at
Encoding: 64 64 35
Width: 1024
GlyphClass: 2
Flags: W
LayerCount: 2
Fore
SplineSet
586 1318.5 m 0,0,1
 645.598245 1318.5 645.598245 1318.5 697.197344025 1309.4528321 c 128,-1,2
 748.79644305 1300.4056642 748.79644305 1300.4056642 793.136183789 1281.82940594 c 128,-1,3
 837.475924527 1263.25314768 837.475924527 1263.25314768 873.350278941 1235.23188578 c 0,4,5
 909.451172388 1207.03367547 909.451172388 1207.03367547 933.790747959 1171.51272216 c 128,-1,6
 958.130323531 1135.99176884 958.130323531 1135.99176884 970.315161765 1093.99276284 c 128,-1,7
 982.5 1051.99375684 982.5 1051.99375684 982.5 1004 c 2,8,-1
 982.5 512 l 2,9,10
 982.5 467.412728033 982.5 467.412728033 973.569928384 435.026447901 c 128,-1,11
 964.639856768 402.640167769 964.639856768 402.640167769 944.534680332 382.215861548 c 128,-1,12
 924.310258862 361.670417515 924.310258862 361.670417515 891.729797536 352.585208758 c 128,-1,13
 859.14933621 343.5 859.14933621 343.5 814 343.5 c 2,14,-1
 627 343.5 l 2,15,16
 560.357083398 343.5 560.357083398 343.5 506.376495217 365.832575725 c 128,-1,17
 452.395907036 388.165151449 452.395907036 388.165151449 413.137708252 432.603251462 c 0,18,19
 335.5 520.484823997 335.5 520.484823997 335.5 670 c 0,20,21
 335.5 690.077603937 335.5 690.077603937 337.691966133 708.954898595 c 128,-1,22
 339.883932266 727.832193254 339.883932266 727.832193254 344.261096854 745.492568543 c 128,-1,23
 348.638261443 763.152943831 348.638261443 763.152943831 355.255000894 779.527491509 c 128,-1,24
 361.871740344 795.902039188 361.871740344 795.902039188 370.661535001 810.882489602 c 128,-1,25
 379.451329659 825.862940016 379.451329659 825.862940016 390.532291372 839.478155126 c 128,-1,26
 401.613253086 853.093370235 401.613253086 853.093370235 414.859110222 865.143420824 c 0,27,28
 493.296876644 936.5 493.296876644 936.5 627 936.5 c 2,29,-1
 791.5 936.5 l 1,30,-1
 791.5 1004 l 2,31,32
 791.5 1018.2712542 791.5 1018.2712542 788.545792424 1030.54198128 c 128,-1,33
 785.591584848 1042.81270835 785.591584848 1042.81270835 779.398604148 1053.72402916 c 128,-1,34
 773.205623449 1064.63534997 773.205623449 1064.63534997 763.652091005 1074.11373174 c 128,-1,35
 754.098558562 1083.5921135 754.098558562 1083.5921135 740.880111712 1092.04325165 c 0,36,37
 713.717997734 1109.40919338 713.717997734 1109.40919338 674.998211223 1118.45459669 c 128,-1,38
 636.278424712 1127.5 636.278424712 1127.5 586 1127.5 c 0,39,40
 418.940871697 1127.5 418.940871697 1127.5 330.697236648 1015.10547536 c 0,41,42
 240.5 900.222679206 240.5 900.222679206 240.5 640 c 0,43,44
 240.5 572.935182647 240.5 572.935182647 247.321027949 516.058552043 c 128,-1,45
 254.142055898 459.18192144 254.142055898 459.18192144 267.608756892 412.769898373 c 0,46,47
 294.027579626 321.719312877 294.027579626 321.719312877 345.551315491 269.267221411 c 0,48,49
 397.356353247 216.528759551 397.356353247 216.528759551 465.874885797 192.757023768 c 0,50,51
 500.596077815 180.710895925 500.596077815 180.710895925 541.895267999 174.605447963 c 128,-1,52
 583.194458183 168.5 583.194458183 168.5 631 168.5 c 2,53,-1
 896 168.5 l 1,54,-1
 918.5 168.5 l 1,55,-1
 918.5 146 l 1,56,-1
 918.5 8 l 1,57,-1
 918.5 -11.2162194307 l 1,58,-1
 899.520456211 -14.2228798329 l 2,59,60
 796.771135156 -30.5 796.771135156 -30.5 631 -30.5 c 0,61,62
 517.413883576 -30.5 517.413883576 -30.5 426.895205876 -9.41326258117 c 0,63,64
 381.055741988 1.26524889274 381.055741988 1.26524889274 338.964889891 19.0427822432 c 128,-1,65
 296.874037793 36.8203155936 296.874037793 36.8203155936 258.728682916 61.6409232189 c 0,66,67
 181.770348248 111.716551942 181.770348248 111.716551942 130.681634711 189.666341668 c 0,68,69
 80.0405910296 266.933088728 80.0405910296 266.933088728 52.6258064091 380.730307908 c 0,70,71
 39.0173084628 437.218412591 39.0173084628 437.218412591 32.2586542314 502.001734742 c 128,-1,72
 25.5 566.785056893 25.5 566.785056893 25.5 640 c 0,73,74
 25.5 788.453580304 25.5 788.453580304 50.5288275795 901.849493012 c 0,75,76
 75.7998822501 1016.34284274 75.7998822501 1016.34284274 122.11638733 1094.92477833 c 0,77,78
 169.060413115 1174.57138387 169.060413115 1174.57138387 239.987009809 1224.85516511 c 0,79,80
 310.370038385 1274.75358089 310.370038385 1274.75358089 395.885830407 1296.78832485 c 0,81,82
 424.108022211 1304.06030065 424.108022211 1304.06030065 454.716854331 1308.8915648 c 128,-1,83
 485.32568645 1313.72282894 485.32568645 1313.72282894 518.078488631 1316.11141447 c 128,-1,84
 550.831290812 1318.5 550.831290812 1318.5 586 1318.5 c 0,0,1
627 745.5 m 2,85,86
 582.186414407 745.5 582.186414407 745.5 557.458775894 724.76069028 c 0,87,88
 534.5 705.504942755 534.5 705.504942755 534.5 670 c 0,89,90
 534.5 604.334025669 534.5 604.334025669 561.178048177 567.7592822 c 0,91,92
 585.4377599 534.5 585.4377599 534.5 627 534.5 c 2,93,-1
 791.5 534.5 l 1,94,-1
 791.5 745.5 l 1,95,-1
 627 745.5 l 2,85,86
EndSplineSet
EndChar

StartChar: A
Encoding: 65 65 36
Width: 1024
GlyphClass: 2
Flags: W
LayerCount: 2
Fore
SplineSet
435.675921144 1280 m 1,0,-1
 453.923673432 1280 l 1,1,-1
 675.287347189 1280 l 1,2,-1
 693.534039794 1280 l 1,3,-1
 698.702116908 1263.87207031 l 1,4,-1
 1088.68359375 27.8798828125 l 1,5,-1
 1097.20996094 -0 l 1,6,-1
 1067.10546875 0 l 1,7,-1
 890.10546875 0 l 1,8,-1
 873.29296875 0 l 1,9,-1
 868.52734375 16.123046875 l 1,10,-1
 781.832179135 291 l 1,11,-1
 347.378841487 291 l 1,12,-1
 260.682617188 16.123046875 l 1,13,-1
 255.91796875 -0 l 1,14,-1
 239.10546875 0 l 1,15,-1
 62.10546875 0 l 1,16,-1
 32 0 l 1,17,-1
 40.5263671875 27.8798828125 l 1,18,-1
 430.507844029 1263.87207031 l 1,19,-1
 435.675921144 1280 l 1,0,-1
573.087218169 922.240234375 m 1,20,-1
 564.605510311 968.356445312 l 1,21,-1
 556.123802452 922.240234375 l 1,22,-1
 555.880075215 920.918945312 l 1,23,-1
 555.468917963 919.633789062 l 1,24,-1
 411.70693688 470.5 l 1,25,-1
 717.503024057 470.5 l 1,26,-1
 573.741042975 919.633789062 l 1,27,-1
 573.329885722 920.918945312 l 1,28,-1
 573.087218169 922.240234375 l 1,20,-1
EndSplineSet
EndChar

StartChar: B
Encoding: 66 66 37
Width: 1024
GlyphClass: 2
Flags: W
LayerCount: 2
Fore
SplineSet
128 1280 m 1,0,-1
 150.5 1280 l 1,1,-1
 410.48749594 1280 l 2,2,3
 670.479407503 1280 670.479407503 1280 808.408203125 1200.12304688 c 0,4,5
 938 1117.40625 938 1117.40625 938 935.796875 c 0,6,7
 938 880.463867188 938 880.463867188 918.907226562 834.114257812 c 0,8,9
 899.69140625 787.46875 899.69140625 787.46875 871.41015625 760.162109375 c 0,10,11
 864.84765625 753.826171875 864.84765625 753.826171875 858.274414062 747.955078125 c 128,-1,12
 851.701171875 742.084960938 851.701171875 742.084960938 845.077148438 736.646484375 c 128,-1,13
 838.453125 731.208984375 838.453125 731.208984375 831.778320312 726.21484375 c 128,-1,14
 825.103515625 721.220703125 825.103515625 721.220703125 818.403320312 716.692382812 c 128,-1,15
 811.744140625 712.192382812 811.744140625 712.192382812 805.358398438 708.271484375 c 1,16,17
 822.924804688 700.170898438 822.924804688 700.170898438 848.834960938 686.42578125 c 0,18,19
 896.77734375 660.9921875 896.77734375 660.9921875 934.319335938 627.298828125 c 0,20,21
 972.974609375 592.604492188 972.974609375 592.604492188 1003.32421875 530.916015625 c 0,22,23
 1034 468.5625 1034 468.5625 1034 393.182617188 c 0,24,25
 1034 285.650390625 1034 285.650390625 993.571289062 208.608398438 c 0,26,27
 979.954101562 182.66015625 979.954101562 182.66015625 961.78515625 160.150390625 c 128,-1,28
 943.616210938 137.641601562 943.616210938 137.641601562 921.11328125 118.786132812 c 128,-1,29
 898.609375 99.931640625 898.609375 99.931640625 871.885742188 84.7939453125 c 0,30,31
 793.622070312 40.4638671875 793.622070312 40.4638671875 677.937576755 20.4365234375 c 0,32,33
 563.306567042 0 563.306567042 0 410.48749594 0 c 2,34,-1
 150.5 0 l 1,35,-1
 128 0 l 1,36,-1
 128 22.5 l 1,37,-1
 128 1257.5 l 1,38,-1
 128 1280 l 1,0,-1
410.48749594 1123 m 2,39,-1
 343 1123 l 1,40,-1
 343 790.5 l 1,41,-1
 410.48749594 790.5 l 2,42,43
 440.01343273 790.5 440.01343273 790.5 467.04053226 792.5078125 c 128,-1,44
 494.068727291 794.514648438 494.068727291 794.514648438 518.090868205 798.42578125 c 128,-1,45
 542.113009119 802.336914062 542.113009119 802.336914062 563.631930771 808.155273438 c 128,-1,46
 585.150852423 813.974609375 585.150852423 813.974609375 603.791893548 821.5390625 c 128,-1,47
 622.434030174 829.103515625 622.434030174 829.103515625 638.566374533 838.475585938 c 0,48,49
 678.119429883 861.453125 678.119429883 861.453125 696.587381886 890.508789062 c 128,-1,50
 715.054238389 919.565429688 715.054238389 919.565429688 715.054238389 957.286132812 c 0,51,52
 715.054238389 1031.58886719 715.054238389 1031.58886719 638.667160604 1075.50292969 c 0,53,54
 556.047778931 1123 556.047778931 1123 410.48749594 1123 c 2,39,-1
410.48749594 588.5 m 2,55,-1
 343 588.5 l 1,56,-1
 343 157 l 1,57,-1
 410.48749594 157 l 2,58,59
 517.521207804 157 517.521207804 157 590.917568483 166.787109375 c 0,60,61
 614.883838858 169.983398438 614.883838858 169.983398438 637.179470557 174.850585938 c 128,-1,62
 659.475102255 179.717773438 659.475102255 179.717773438 679.902905139 186.1796875 c 128,-1,63
 700.330708022 192.641601562 700.330708022 192.641601562 719.128405758 200.737304688 c 0,64,65
 771.76502682 223.407226562 771.76502682 223.407226562 795.96484375 264.783203125 c 0,66,67
 819 307.313476562 819 307.313476562 819 372.75 c 128,-1,68
 819 438.186523438 819 438.186523438 795.96484375 480.716796875 c 0,69,70
 771.76502682 522.092773438 771.76502682 522.092773438 719.128405758 544.762695312 c 0,71,72
 700.330708022 552.858398438 700.330708022 552.858398438 679.902905139 559.3203125 c 128,-1,73
 659.475102255 565.782226562 659.475102255 565.782226562 637.179470557 570.649414062 c 128,-1,74
 614.883838858 575.516601562 614.883838858 575.516601562 590.917568483 578.712890625 c 0,75,76
 554.447252304 583.576171875 554.447252304 583.576171875 509.260036487 586.038085938 c 128,-1,77
 464.07282067 588.5 464.07282067 588.5 410.48749594 588.5 c 2,55,-1
EndSplineSet
EndChar

StartChar: C
Encoding: 67 67 38
Width: 1024
GlyphClass: 2
Flags: W
LayerCount: 2
Fore
SplineSet
265.885742188 1112.20996094 m 0,0,1
 429.570847022 1288 429.570847022 1288 731.467938841 1288 c 0,2,3
 797.28125 1288 797.28125 1288 855.561523438 1283.9453125 c 0,4,5
 875.069335938 1282.58886719 875.069335938 1282.58886719 890.77734375 1281.25585938 c 128,-1,6
 906.485351562 1279.92382812 906.485351562 1279.92382812 919.079101562 1278.54199219 c 128,-1,7
 931.673828125 1277.16113281 931.673828125 1277.16113281 940.920898438 1275.73828125 c 2,8,-1
 966.920898438 1271.73828125 l 1,9,-1
 986 1268.80273438 l 1,10,-1
 986 1254.05273438 l 1,11,-1
 986 1140.19335938 l 1,12,-1
 986 1123 l 1,13,-1
 963.5 1123 l 1,14,-1
 731.467938841 1123 l 2,15,16
 546.755453101 1123 546.755453101 1123 440.511352988 996.303710938 c 0,17,18
 335 866.861328125 335 866.861328125 335 640 c 0,19,20
 335 376.021484375 335 376.021484375 434.066581492 265.700195312 c 0,21,22
 534.66721778 157 534.66721778 157 731.467938841 157 c 2,23,-1
 963.5 157 l 1,24,-1
 986 157 l 1,25,-1
 986 139.821289062 l 1,26,-1
 986 26.0595703125 l 1,27,-1
 986 11.7216796875 l 1,28,-1
 967.525390625 8.36328125 l 2,29,30
 877.529296875 -8 877.529296875 -8 731.467938841 -8 c 0,31,32
 576.515621528 -8 576.515621528 -8 460.888252869 25.5341796875 c 0,33,34
 345.294921875 59.5400390625 345.294921875 59.5400390625 267.58984375 134.637695312 c 0,35,36
 189.541992188 210.06640625 189.541992188 210.06640625 150.420898438 338.110351562 c 0,37,38
 112 463.86328125 112 463.86328125 112 640 c 0,39,40
 112 937.950195312 112 937.950195312 265.885742188 1112.20996094 c 0,0,1
EndSplineSet
EndChar

StartChar: D
Encoding: 68 68 39
Width: 1024
GlyphClass: 2
Flags: W
LayerCount: 2
Fore
SplineSet
128 1280 m 1,0,-1
 150.5 1280 l 1,1,-1
 410.48749594 1280 l 2,2,3
 564.864369139 1280 564.864369139 1280 680.896524338 1247.02636719 c 0,4,5
 797.514648438 1213.56445312 797.514648438 1213.56445312 876.248046875 1139.02636719 c 0,6,7
 955.354492188 1064.13476562 955.354492188 1064.13476562 995.02734375 938.065429688 c 0,8,9
 1034 814.219726562 1034 814.219726562 1034 640 c 128,-1,10
 1034 465.780273438 1034 465.780273438 995.02734375 341.934570312 c 0,11,12
 954.78125 215.750976562 954.78125 215.750976562 876.248046875 140.973632812 c 0,13,14
 836.959960938 103.779296875 836.959960938 103.779296875 790.940429688 76.724609375 c 0,15,16
 739.646039704 49.669921875 739.646039704 49.669921875 680.896524338 32.9736328125 c 0,17,18
 564.864369139 0 564.864369139 0 410.48749594 0 c 2,19,-1
 150.5 0 l 1,20,-1
 128 0 l 1,21,-1
 128 22.5 l 1,22,-1
 128 1257.5 l 1,23,-1
 128 1280 l 1,0,-1
410.48749594 1123 m 2,24,-1
 343 1123 l 1,25,-1
 343 157 l 1,26,-1
 410.48749594 157 l 2,27,28
 509.199783945 157 509.199783945 157 581.265111187 181.772460938 c 0,29,30
 616.608157072 193.920898438 616.608157072 193.920898438 647.408161259 213.40234375 c 128,-1,31
 678.209260946 232.883789062 678.209260946 232.883789062 704.882513727 260.0234375 c 0,32,33
 757.962812601 314.03125 757.962812601 314.03125 785.509179497 407.64453125 c 0,34,35
 794.137695312 439.407226562 794.137695312 439.407226562 799.727539062 475.701171875 c 128,-1,36
 805.31640625 511.995117188 805.31640625 511.995117188 808.158203125 553.198242188 c 128,-1,37
 811 594.401367188 811 594.401367188 811 640 c 0,38,39
 811 776.311523438 811 776.311523438 785.509179497 872.35546875 c 0,40,41
 757.962812601 965.96875 757.962812601 965.96875 704.882513727 1019.9765625 c 0,42,43
 678.209260946 1047.11621094 678.209260946 1047.11621094 647.408161259 1066.59765625 c 128,-1,44
 616.607061571 1086.07910156 616.607061571 1086.07910156 581.265111187 1098.22753906 c 0,45,46
 509.199783945 1123 509.199783945 1123 410.48749594 1123 c 2,24,-1
EndSplineSet
EndChar

StartChar: E
Encoding: 69 69 40
Width: 1024
GlyphClass: 2
Flags: W
LayerCount: 2
Fore
SplineSet
160 1280 m 1,0,-1
 182.5 1280 l 1,1,-1
 963.5 1280 l 1,2,-1
 986 1280 l 1,3,-1
 986 1257.5 l 1,4,-1
 986 1139.859375 l 1,5,-1
 986 1123 l 1,6,-1
 963.5 1123 l 1,7,-1
 375 1123 l 1,8,-1
 375 790.5 l 1,9,-1
 899.5 790.5 l 1,10,-1
 922 790.5 l 1,11,-1
 922 768 l 1,12,-1
 922 611 l 1,13,-1
 922 588.5 l 1,14,-1
 899.5 588.5 l 1,15,-1
 375 588.5 l 1,16,-1
 375 157 l 1,17,-1
 963.5 157 l 1,18,-1
 986 157 l 1,19,-1
 986 140.140625 l 1,20,-1
 986 22.5 l 1,21,-1
 986 0 l 1,22,-1
 963.5 0 l 1,23,-1
 182.5 0 l 1,24,-1
 160 0 l 1,25,-1
 160 22.5 l 1,26,-1
 160 1257.5 l 1,27,-1
 160 1280 l 1,0,-1
EndSplineSet
EndChar

StartChar: F
Encoding: 70 70 41
Width: 1024
GlyphClass: 2
Flags: W
LayerCount: 2
Fore
SplineSet
160 1280 m 1,0,-1
 182.5 1280 l 1,1,-1
 963.5 1280 l 1,2,-1
 986 1280 l 1,3,-1
 986 1257.5 l 1,4,-1
 986 1139.859375 l 1,5,-1
 986 1123 l 1,6,-1
 963.5 1123 l 1,7,-1
 375 1123 l 1,8,-1
 375 790.5 l 1,9,-1
 931.5 790.5 l 1,10,-1
 954 790.5 l 1,11,-1
 954 768 l 1,12,-1
 954 611 l 1,13,-1
 954 588.5 l 1,14,-1
 931.5 588.5 l 1,15,-1
 375 588.5 l 1,16,-1
 375 22.5 l 1,17,-1
 375 0 l 1,18,-1
 352.5 0 l 1,19,-1
 182.5 0 l 1,20,-1
 160 0 l 1,21,-1
 160 22.5 l 1,22,-1
 160 1257.5 l 1,23,-1
 160 1280 l 1,0,-1
EndSplineSet
EndChar

StartChar: G
Encoding: 71 71 42
Width: 1024
GlyphClass: 2
Flags: W
LayerCount: 2
Fore
SplineSet
229.772460938 1114.01464844 m 0,0,1
 387.210053466 1288 387.210053466 1288 700.243598685 1288 c 0,2,3
 775.171875 1288 775.171875 1288 839.903320312 1283.95605469 c 0,4,5
 872.374023438 1281.92675781 872.374023438 1281.92675781 896.311523438 1279.91113281 c 128,-1,6
 920.248046875 1277.89648438 920.248046875 1277.89648438 936.426757812 1275.80859375 c 2,7,-1
 966.473632812 1271.80273438 l 1,8,-1
 986 1269.19921875 l 1,9,-1
 986 1254.13671875 l 1,10,-1
 986 1140.20410156 l 1,11,-1
 986 1123 l 1,12,-1
 963.5 1123 l 1,13,-1
 700.243598685 1123 l 2,14,15
 660.218302632 1123 660.218302632 1123 624.446949996 1118.23828125 c 128,-1,16
 588.676683381 1113.4765625 588.676683381 1113.4765625 557.176650495 1104.02539062 c 128,-1,17
 525.676617609 1094.57421875 525.676617609 1094.57421875 498.075399343 1080.33691406 c 128,-1,18
 470.474181077 1066.09960938 470.474181077 1066.09960938 446.863003177 1047.28417969 c 128,-1,19
 423.251825278 1028.46875 423.251825278 1028.46875 403.184333202 1004.84277344 c 0,20,21
 303 883.890625 303 883.890625 303 662.5 c 0,22,23
 303 529.919921875 303 529.919921875 323.485351562 435.784179688 c 0,24,25
 345.440608032 344.010742188 345.440608032 344.010742188 388.389472039 291.896484375 c 0,26,27
 409.778651412 265.943359375 409.778651412 265.943359375 434.155473965 247.430664062 c 128,-1,28
 458.532296519 228.916992188 458.532296519 228.916992188 486.12699866 217.413085938 c 0,29,30
 542.285133483 194 542.285133483 194 619.06137292 194 c 0,31,32
 651.967802724 194 651.967802724 194 679.870934768 196.578125 c 128,-1,33
 707.774066812 199.15625 707.774066812 199.15625 728.898257113 203.859375 c 128,-1,34
 750.021361393 208.561523438 750.021361393 208.561523438 765.605759666 215.326171875 c 0,35,36
 803 233.052734375 803 233.052734375 803 273.940429688 c 2,37,-1
 803 588.5 l 1,38,-1
 557.896682276 588.5 l 1,39,-1
 532.874763376 588.5 l 1,40,-1
 532.874763376 611 l 1,41,-1
 532.874763376 768 l 1,42,-1
 532.874763376 790.5 l 1,43,-1
 557.896682276 790.5 l 1,44,-1
 995.5 790.5 l 1,45,-1
 1018 790.5 l 1,46,-1
 1018 768.616210938 l 1,47,-1
 1018 270.6484375 l 2,48,49
 1018 120.79296875 1018 120.79296875 915.93359375 54.97265625 c 0,50,51
 818.28125 -8 818.28125 -8 619.06137292 -8 c 0,52,53
 484.295967615 -8 484.295967615 -8 383.204808809 25.828125 c 0,54,55
 285.249023438 60.126953125 285.249023438 60.126953125 216.595703125 135.663085938 c 128,-1,56
 148.067382812 211.061523438 148.067382812 211.061523438 113.723632812 338.799804688 c 0,57,58
 80 464.227539062 80 464.227539062 80 640 c 0,59,60
 80 941.720703125 80 941.720703125 229.772460938 1114.01464844 c 0,0,1
EndSplineSet
EndChar

StartChar: H
Encoding: 72 72 43
Width: 1024
GlyphClass: 2
Flags: W
LayerCount: 2
Fore
SplineSet
96 1280 m 1,0,-1
 118.5 1280 l 1,1,-1
 288.5 1280 l 1,2,-1
 311 1280 l 1,3,-1
 311 1257.5 l 1,4,-1
 311 790.5 l 1,5,-1
 803 790.5 l 1,6,-1
 803 1257.5 l 1,7,-1
 803 1280 l 1,8,-1
 825.5 1280 l 1,9,-1
 995.5 1280 l 1,10,-1
 1018 1280 l 1,11,-1
 1018 1257.5 l 1,12,-1
 1018 22.5 l 1,13,-1
 1018 0 l 1,14,-1
 995.5 0 l 1,15,-1
 825.5 0 l 1,16,-1
 803 0 l 1,17,-1
 803 22.5 l 1,18,-1
 803 588.5 l 1,19,-1
 311 588.5 l 1,20,-1
 311 22.5 l 1,21,-1
 311 0 l 1,22,-1
 288.5 0 l 1,23,-1
 118.5 0 l 1,24,-1
 96 0 l 1,25,-1
 96 22.5 l 1,26,-1
 96 1257.5 l 1,27,-1
 96 1280 l 1,0,-1
EndSplineSet
EndChar

StartChar: I
Encoding: 73 73 44
Width: 1024
GlyphClass: 2
Flags: W
LayerCount: 2
Fore
SplineSet
160 1280 m 1,0,-1
 182.5 1280 l 1,1,-1
 931.5 1280 l 1,2,-1
 954 1280 l 1,3,-1
 954 1257.5 l 1,4,-1
 954 1139.859375 l 1,5,-1
 954 1123 l 1,6,-1
 931.5 1123 l 1,7,-1
 683.287867019 1123 l 1,8,-1
 683.287867019 157 l 1,9,-1
 931.5 157 l 1,10,-1
 954 157 l 1,11,-1
 954 140.140625 l 1,12,-1
 954 22.5 l 1,13,-1
 954 0 l 1,14,-1
 931.5 0 l 1,15,-1
 182.5 0 l 1,16,-1
 160 0 l 1,17,-1
 160 22.5 l 1,18,-1
 160 140.140625 l 1,19,-1
 160 157 l 1,20,-1
 182.5 157 l 1,21,-1
 430.712132981 157 l 1,22,-1
 430.712132981 1123 l 1,23,-1
 182.5 1123 l 1,24,-1
 160 1123 l 1,25,-1
 160 1139.859375 l 1,26,-1
 160 1257.5 l 1,27,-1
 160 1280 l 1,0,-1
EndSplineSet
EndChar

StartChar: J
Encoding: 74 74 45
Width: 1024
GlyphClass: 2
Flags: W
LayerCount: 2
Fore
SplineSet
192 1280 m 1,0,-1
 214.5 1280 l 1,1,-1
 899.5 1280 l 1,2,-1
 922 1280 l 1,3,-1
 922 1257.5 l 1,4,-1
 922 529.966796875 l 2,5,6
 922 383.71875 922 383.71875 886.896484375 279.612304688 c 0,7,8
 851.052734375 173.314453125 851.052734375 173.314453125 779.647460938 110.5859375 c 0,9,10
 708.936523438 48.466796875 708.936523438 48.466796875 604.464529405 20.5029296875 c 0,11,12
 496.096506889 -8 496.096506889 -8 354.5 -8 c 0,13,14
 340.293945312 -8 340.293945312 -8 326.400390625 -7.74609375 c 128,-1,15
 312.505859375 -7.4921875 312.505859375 -7.4921875 298.911132812 -6.984375 c 128,-1,16
 285.31640625 -6.4765625 285.31640625 -6.4765625 272.021484375 -5.712890625 c 128,-1,17
 258.7265625 -4.94921875 258.7265625 -4.94921875 245.740234375 -3.9306640625 c 0,18,19
 240.564453125 -3.525390625 240.564453125 -3.525390625 235.711914062 -3.123046875 c 128,-1,20
 230.859375 -2.7216796875 230.859375 -2.7216796875 226.2421875 -2.31640625 c 128,-1,21
 221.625 -1.9111328125 221.625 -1.9111328125 217.315429688 -1.5078125 c 128,-1,22
 213.004882812 -1.1044921875 213.004882812 -1.1044921875 208.935546875 -0.6962890625 c 128,-1,23
 204.866210938 -0.2890625 204.866210938 -0.2890625 201.084960938 0.1201171875 c 128,-1,24
 197.3046875 0.5283203125 197.3046875 0.5283203125 193.76953125 0.9423828125 c 128,-1,25
 190.233398438 1.35546875 190.233398438 1.35546875 186.969726562 1.7734375 c 128,-1,26
 183.705078125 2.1904296875 183.705078125 2.1904296875 180.690429688 2.6142578125 c 128,-1,27
 177.67578125 3.037109375 177.67578125 3.037109375 174.9140625 3.466796875 c 128,-1,28
 172.15234375 3.896484375 172.15234375 3.896484375 169.64453125 4.3330078125 c 2,29,-1
 146.64453125 8.3330078125 l 1,30,-1
 128 11.5751953125 l 1,31,-1
 128 26.0283203125 l 1,32,-1
 128 139.817382812 l 1,33,-1
 128 157 l 1,34,-1
 150.5 157 l 1,35,-1
 354.5 157 l 2,36,37
 530.406928754 157 530.406928754 157 621.326621242 239.141601562 c 0,38,39
 665.835981496 279.353515625 665.835981496 279.353515625 687.19140625 349.557617188 c 0,40,41
 707 419.76171875 707 419.76171875 707 520.4296875 c 2,42,-1
 707 1123 l 1,43,-1
 214.5 1123 l 1,44,-1
 192 1123 l 1,45,-1
 192 1139.859375 l 1,46,-1
 192 1257.5 l 1,47,-1
 192 1280 l 1,0,-1
EndSplineSet
EndChar

StartChar: K
Encoding: 75 75 46
Width: 1024
GlyphClass: 2
Flags: W
LayerCount: 2
Fore
SplineSet
784.185350207 1280 m 1,0,-1
 796.645958081 1280 l 1,1,-1
 995.5 1280 l 1,2,-1
 1040.60546875 1280 l 1,3,-1
 1013.47460938 1245.19042969 l 1,4,-1
 544.369627776 679.224609375 l 1,5,-1
 1045.85253906 34.310546875 l 1,6,-1
 1071.04296875 -0 l 1,7,-1
 1027.5 0 l 1,8,-1
 818.859855128 0 l 1,9,-1
 805.94802747 0 l 1,10,-1
 798.476869127 9.4814453125 l 1,11,-1
 343 591.893554688 l 1,12,-1
 343 22.5 l 1,13,-1
 343 0 l 1,14,-1
 320.5 0 l 1,15,-1
 150.5 0 l 1,16,-1
 128 0 l 1,17,-1
 128 22.5 l 1,18,-1
 128 1257.5 l 1,19,-1
 128 1280 l 1,20,-1
 150.5 1280 l 1,21,-1
 320.5 1280 l 1,22,-1
 343 1280 l 1,23,-1
 343 1257.5 l 1,24,-1
 343 748.750976562 l 1,25,-1
 776.68707529 1271.04003906 l 1,26,-1
 784.185350207 1280 l 1,0,-1
EndSplineSet
EndChar

StartChar: L
Encoding: 76 76 47
Width: 1024
GlyphClass: 2
Flags: W
LayerCount: 2
Fore
SplineSet
160 1280 m 1,0,-1
 182.5 1280 l 1,1,-1
 352.5 1280 l 1,2,-1
 375 1280 l 1,3,-1
 375 1257.5 l 1,4,-1
 375 157 l 1,5,-1
 963.5 157 l 1,6,-1
 986 157 l 1,7,-1
 986 140.140625 l 1,8,-1
 986 22.5 l 1,9,-1
 986 0 l 1,10,-1
 963.5 0 l 1,11,-1
 182.5 0 l 1,12,-1
 160 0 l 1,13,-1
 160 22.5 l 1,14,-1
 160 1257.5 l 1,15,-1
 160 1280 l 1,0,-1
EndSplineSet
EndChar

StartChar: M
Encoding: 77 77 48
Width: 1024
GlyphClass: 2
Flags: W
LayerCount: 2
Fore
SplineSet
64 1280 m 1,0,-1
 86.5 1280 l 1,1,-1
 243.5 1280 l 1,2,-1
 257.073242188 1280 l 1,3,-1
 263.403320312 1267.9921875 l 1,4,-1
 557 753.748046875 l 1,5,-1
 850.596679688 1267.9921875 l 1,6,-1
 856.926757812 1280 l 1,7,-1
 870.5 1280 l 1,8,-1
 1027.5 1280 l 1,9,-1
 1050 1280 l 1,10,-1
 1050 1257.5 l 1,11,-1
 1050 22.5 l 1,12,-1
 1050 0 l 1,13,-1
 1027.5 0 l 1,14,-1
 870.5 0 l 1,15,-1
 848 0 l 1,16,-1
 848 22.5 l 1,17,-1
 848 790.5 l 1,18,-1
 848 791.115234375 l 1,19,-1
 848.033203125 791.728515625 l 1,20,-1
 855.653320312 931.06640625 l 1,21,-1
 784.067530987 781.015625 l 1,22,-1
 783.805394046 780.50390625 l 1,23,-1
 635.000780763 524.004882812 l 1,24,-1
 628.035888172 512 l 1,25,-1
 613.105900151 512 l 1,26,-1
 500.894099849 512 l 1,27,-1
 485.964111828 512 l 1,28,-1
 478.999219237 524.004882812 l 1,29,-1
 330.483601189 780.004882812 l 1,30,-1
 329.932469013 781.015625 l 1,31,-1
 258.346679688 931.06640625 l 1,32,-1
 265.966796875 791.728515625 l 1,33,-1
 266 791.115234375 l 1,34,-1
 266 790.5 l 1,35,-1
 266 22.5 l 1,36,-1
 266 0 l 1,37,-1
 243.5 0 l 1,38,-1
 86.5 0 l 1,39,-1
 64 0 l 1,40,-1
 64 22.5 l 1,41,-1
 64 1257.5 l 1,42,-1
 64 1280 l 1,0,-1
EndSplineSet
EndChar

StartChar: N
Encoding: 78 78 49
Width: 1024
GlyphClass: 2
Flags: W
LayerCount: 2
Fore
SplineSet
96 1280 m 1,0,-1
 118.5 1280 l 1,1,-1
 322.5 1280 l 1,2,-1
 336.955078125 1280 l 1,3,-1
 343.104403722 1266.85253906 l 1,4,-1
 735.181805193 498.65234375 l 1,5,-1
 805.239257812 346.012695312 l 1,6,-1
 803 489.32421875 l 1,7,-1
 803 1257.5 l 1,8,-1
 803 1280 l 1,9,-1
 825.5 1280 l 1,10,-1
 995.5 1280 l 1,11,-1
 1018 1280 l 1,12,-1
 1018 1257.5 l 1,13,-1
 1018 22.5 l 1,14,-1
 1018 0 l 1,15,-1
 995.5 0 l 1,16,-1
 790.5 0 l 1,17,-1
 776.02734375 0 l 1,18,-1
 769.767953063 13.1689453125 l 1,19,-1
 378.812741987 781.358398438 l 1,20,-1
 308.760742188 933.987304688 l 1,21,-1
 311 790.67578125 l 1,22,-1
 311 22.5 l 1,23,-1
 311 0 l 1,24,-1
 288.5 0 l 1,25,-1
 118.5 0 l 1,26,-1
 96 0 l 1,27,-1
 96 22.5 l 1,28,-1
 96 1257.5 l 1,29,-1
 96 1280 l 1,0,-1
EndSplineSet
EndChar

StartChar: O
Encoding: 79 79 50
Width: 1024
GlyphClass: 2
Flags: W
LayerCount: 2
Fore
SplineSet
87.4873046875 475.741210938 m 128,-1,1
 80 551.552734375 80 551.552734375 80 640 c 0,2,3
 80 817.122070312 80 817.122070312 110.0703125 943.521484375 c 0,4,5
 140.666015625 1072.125 140.666015625 1072.125 201.143554688 1148.24804688 c 0,6,7
 262.145507812 1225.02929688 262.145507812 1225.02929688 346.421530859 1260.08300781 c 0,8,9
 436.532208878 1296 436.532208878 1296 557 1296 c 128,-1,10
 677.467791122 1296 677.467791122 1296 767.578469141 1260.08300781 c 0,11,12
 790.20703125 1251.296875 790.20703125 1251.296875 809.541015625 1239.84277344 c 128,-1,13
 828.875976562 1228.38867188 828.875976562 1228.38867188 846.786132812 1214.36914062 c 128,-1,14
 864.697265625 1200.34960938 864.697265625 1200.34960938 881.211914062 1183.81933594 c 128,-1,15
 897.727539062 1167.29003906 897.727539062 1167.29003906 912.856445312 1148.24804688 c 0,16,17
 973.333984375 1072.125 973.333984375 1072.125 1003.9296875 943.521484375 c 0,18,19
 1034 817.122070312 1034 817.122070312 1034 640 c 128,-1,20
 1034 462.877929688 1034 462.877929688 1003.9296875 336.478515625 c 0,21,22
 988.705078125 272.485351562 988.705078125 272.485351562 966.04296875 221.329101562 c 128,-1,23
 943.380859375 170.172851562 943.380859375 170.172851562 912.856445312 131.751953125 c 0,24,25
 892.671875 106.346679688 892.671875 106.346679688 870.060546875 85.4384765625 c 128,-1,26
 847.44921875 64.5302734375 847.44921875 64.5302734375 822.256835938 48.078125 c 128,-1,27
 797.065429688 31.625 797.065429688 31.625 767.578469141 19.9169921875 c 0,28,29
 677.467791122 -16 677.467791122 -16 557 -16 c 128,-1,30
 436.532208878 -16 436.532208878 -16 346.421530859 19.9169921875 c 0,31,32
 262.145507812 54.970703125 262.145507812 54.970703125 201.143554688 131.751953125 c 0,33,34
 140.666015625 207.875 140.666015625 207.875 110.0703125 336.478515625 c 0,35,0
 94.9755859375 399.930664062 94.9755859375 399.930664062 87.4873046875 475.741210938 c 128,-1,1
662.61324139 1072.05273438 m 128,-1,37
 617.955473354 1094 617.955473354 1094 557 1094 c 0,38,39
 541.489863848 1094 541.489863848 1094 527.127544845 1092.60449219 c 128,-1,40
 512.766307667 1091.20800781 512.766307667 1091.20800781 499.610224404 1088.43164062 c 128,-1,41
 486.455222967 1085.65527344 486.455222967 1085.65527344 474.452365982 1081.57226562 c 128,-1,42
 462.450590822 1077.49023438 462.450590822 1077.49023438 451.38675861 1072.05273438 c 0,43,44
 429.336985642 1061.21582031 429.336985642 1061.21582031 409.723484321 1043.4921875 c 128,-1,45
 390.108901175 1025.76953125 390.108901175 1025.76953125 372.993335571 1000.72265625 c 0,46,47
 361.629837619 984.091796875 361.629837619 984.091796875 351.900978415 963.151367188 c 128,-1,48
 342.172119211 942.2109375 342.172119211 942.2109375 333.980534434 916.370117188 c 128,-1,49
 325.788949658 890.529296875 325.788949658 890.529296875 320.146484375 860.592773438 c 0,50,51
 311.61328125 815.298828125 311.61328125 815.298828125 307.306640625 760.083984375 c 128,-1,52
 303 704.868164062 303 704.868164062 303 640 c 0,53,54
 303 607.524414062 303 607.524414062 304.083007812 577.416015625 c 128,-1,55
 305.166015625 547.30859375 305.166015625 547.30859375 307.3203125 519.737304688 c 128,-1,56
 309.474609375 492.166992188 309.474609375 492.166992188 312.680664062 467.090820312 c 128,-1,57
 315.88671875 442.015625 315.88671875 442.015625 320.146484375 419.407226562 c 0,58,59
 338.140154543 330.283203125 338.140154543 330.283203125 372.993335571 279.27734375 c 0,60,61
 406.743054308 229.888671875 406.743054308 229.888671875 451.38675861 207.947265625 c 128,-1,62
 496.044526646 186 496.044526646 186 557 186 c 128,-1,63
 617.955473354 186 617.955473354 186 662.61324139 207.947265625 c 0,64,65
 684.663014358 218.784179688 684.663014358 218.784179688 704.276515679 236.5078125 c 128,-1,66
 723.891098825 254.23046875 723.891098825 254.23046875 741.006664429 279.27734375 c 0,67,68
 775.859845457 330.283203125 775.859845457 330.283203125 793.853515625 419.407226562 c 0,69,70
 797.259765625 437.48828125 797.259765625 437.48828125 799.993164062 457.139648438 c 128,-1,71
 802.725585938 476.790039062 802.725585938 476.790039062 804.7890625 498.0859375 c 128,-1,72
 806.852539062 519.380859375 806.852539062 519.380859375 808.231445312 542.213867188 c 128,-1,73
 809.610351562 565.047851562 809.610351562 565.047851562 810.305664062 589.529296875 c 128,-1,74
 811 614.01171875 811 614.01171875 811 640 c 0,75,76
 811 769.575195312 811 769.575195312 793.853515625 860.592773438 c 0,77,78
 775.859845457 949.716796875 775.859845457 949.716796875 741.006664429 1000.72265625 c 0,79,36
 707.256945692 1050.11132812 707.256945692 1050.11132812 662.61324139 1072.05273438 c 128,-1,37
EndSplineSet
EndChar

StartChar: P
Encoding: 80 80 51
Width: 1024
GlyphClass: 2
Flags: W
LayerCount: 2
Fore
SplineSet
160 1280 m 1,0,-1
 182.5 1280 l 1,1,-1
 655.933744222 1280 l 2,2,3
 838.608398438 1280 838.608398438 1280 936.821289062 1172.50292969 c 0,4,5
 1034 1066.13769531 1034 1066.13769531 1034 884.75 c 0,6,7
 1034 701.677734375 1034 701.677734375 907.224609375 594.985351562 c 0,8,9
 781.037350824 489.5 781.037350824 489.5 538.066255778 489.5 c 2,10,-1
 375 489.5 l 1,11,-1
 375 22.5 l 1,12,-1
 375 0 l 1,13,-1
 352.5 0 l 1,14,-1
 182.5 0 l 1,15,-1
 160 0 l 1,16,-1
 160 22.5 l 1,17,-1
 160 1257.5 l 1,18,-1
 160 1280 l 1,0,-1
655.933744222 1123 m 2,19,-1
 375 1123 l 1,20,-1
 375 691.5 l 1,21,-1
 538.066255778 691.5 l 2,22,23
 565.558634956 691.5 565.558634956 691.5 590.565189511 693.940429688 c 128,-1,24
 615.571744066 696.381835938 615.571744066 696.381835938 637.754906541 701.154296875 c 128,-1,25
 659.938069015 705.926757812 659.938069015 705.926757812 679.774860964 713.061523438 c 128,-1,26
 699.610546134 720.197265625 699.610546134 720.197265625 716.814311913 729.498046875 c 128,-1,27
 734.01918447 738.798828125 734.01918447 738.798828125 749.016033821 750.384765625 c 0,28,29
 773.901949514 769.610351562 773.901949514 769.610351562 790.024414062 792.963867188 c 0,30,31
 804.459960938 816.31640625 804.459960938 816.31640625 811.729492188 844.80859375 c 128,-1,32
 819 873.30078125 819 873.30078125 819 907.25 c 0,33,34
 819 928.305664062 819 928.305664062 817.2734375 947.487304688 c 128,-1,35
 815.546875 966.668945312 815.546875 966.668945312 812.19921875 983.596679688 c 128,-1,36
 808.850585938 1000.5234375 808.850585938 1000.5234375 803.862304688 1015.65722656 c 128,-1,37
 798.873046875 1030.79003906 798.873046875 1030.79003906 792.421875 1043.828125 c 0,38,39
 785.668112277 1056.86523438 785.668112277 1056.86523438 776.594741725 1068.18945312 c 0,40,41
 761.652124524 1086.83691406 761.652124524 1086.83691406 743.736700138 1098.92773438 c 128,-1,42
 725.821275752 1111.01953125 725.821275752 1111.01953125 704.036553555 1117.00976562 c 128,-1,43
 682.251831359 1123 682.251831359 1123 655.933744222 1123 c 2,19,-1
EndSplineSet
EndChar

StartChar: Q
Encoding: 81 81 52
Width: 1024
GlyphClass: 2
Flags: W
LayerCount: 2
Fore
SplineSet
154.670898438 1159.03320312 m 0,0,1
 263.42578125 1296 263.42578125 1296 557 1296 c 128,-1,2
 850.57421875 1296 850.57421875 1296 959.329101562 1159.03320312 c 0,3,4
 1066 1024.69238281 1066 1024.69238281 1066 693.455078125 c 0,5,6
 1066 390.443359375 1066 390.443359375 977.991210938 256.145507812 c 0,7,8
 891.98046875 124.896484375 891.98046875 124.896484375 674.547146299 100.836914062 c 1,9,-1
 674.547146299 -134.5 l 1,10,-1
 674.547146299 -157 l 1,11,-1
 649.944255213 -157 l 1,12,-1
 464.055744787 -157 l 1,13,-1
 439.452853701 -157 l 1,14,-1
 439.452853701 -134.5 l 1,15,-1
 439.452853701 100.836914062 l 1,16,17
 222.01953125 124.896484375 222.01953125 124.896484375 136.008789062 256.145507812 c 0,18,19
 48 390.443359375 48 390.443359375 48 693.455078125 c 0,20,21
 48 1024.69238281 48 1024.69238281 154.670898438 1159.03320312 c 0,0,1
700.053424792 1072.13769531 m 128,-1,23
 643.08769429 1094 643.08769429 1094 557 1094 c 128,-1,24
 470.910170042 1094 470.910170042 1094 413.782128801 1072.12304688 c 128,-1,25
 356.655155393 1050.24511719 356.655155393 1050.24511719 325.411405815 1007.49707031 c 0,26,27
 262.02734375 916.713867188 262.02734375 916.713867188 263 674.600585938 c 0,28,29
 263.487304688 565.302734375 263.487304688 565.302734375 276.071289062 487.245117188 c 128,-1,30
 288.655273438 409.1875 288.655273438 409.1875 313.609706497 364.974609375 c 0,31,32
 328.292421447 339.448242188 328.292421447 339.448242188 349.329815426 320.5859375 c 128,-1,33
 370.368277239 301.72265625 370.368277239 301.72265625 398.529190595 289.041992188 c 128,-1,34
 426.69010395 276.361328125 426.69010395 276.361328125 462.415552048 269.780273438 c 1,35,-1
 462.415552048 674.5 l 1,36,-1
 462.415552048 697 l 1,37,-1
 487.018443134 697 l 1,38,-1
 626.981556866 697 l 1,39,-1
 651.584447952 697 l 1,40,-1
 651.584447952 674.5 l 1,41,-1
 651.584447952 269.779296875 l 1,42,43
 756.901693574 289.168945312 756.901693574 289.168945312 800.984009103 365.055664062 c 0,44,45
 851 456.10546875 851 456.10546875 851 674.5 c 0,46,47
 851 795.772460938 851 795.772460938 835.413085938 879.747070312 c 128,-1,48
 819.787494743 963.721679688 819.787494743 963.721679688 787.992742916 1007.56445312 c 0,49,22
 757.018087459 1050.27636719 757.018087459 1050.27636719 700.053424792 1072.13769531 c 128,-1,23
EndSplineSet
EndChar

StartChar: R
Encoding: 82 82 53
Width: 1024
GlyphClass: 2
Flags: W
LayerCount: 2
Fore
SplineSet
128 1280 m 1,0,-1
 150.5 1280 l 1,1,-1
 619.510047098 1280 l 2,2,3
 814.965028677 1280 814.965028677 1280 907.959960938 1200.11425781 c 0,4,5
 1002 1119.24609375 1002 1119.24609375 1002 935.607421875 c 0,6,7
 1002 817.193359375 1002 817.193359375 946.740234375 737.778320312 c 128,-1,8
 891.48046875 658.364257812 891.48046875 658.364257812 780.424432467 622.595703125 c 1,9,-1
 1048.1640625 30.3359375 l 1,10,-1
 1061.69238281 0 l 1,11,-1
 1027.5 0 l 1,12,-1
 842.5 0 l 1,13,-1
 827.689453125 0 l 1,14,-1
 821.833007812 13.6044921875 l 1,15,-1
 536.223395752 611 l 1,16,-1
 343 611 l 1,17,-1
 343 22.5 l 1,18,-1
 343 0 l 1,19,-1
 320.5 0 l 1,20,-1
 150.5 0 l 1,21,-1
 128 0 l 1,22,-1
 128 22.5 l 1,23,-1
 128 1257.5 l 1,24,-1
 128 1280 l 1,0,-1
619.510047098 1123 m 2,25,-1
 343 1123 l 1,26,-1
 343 790.5 l 1,27,-1
 503.726750467 790.5 l 2,28,29
 646.112938147 790.5 646.112938147 790.5 718.180690774 831.166992188 c 0,30,31
 783.721934145 868.151367188 783.721934145 868.151367188 783.721934145 957.286132812 c 0,32,33
 783.721934145 1004.33105469 783.721934145 1004.33105469 773.148836942 1036.1484375 c 128,-1,34
 762.576826947 1067.96582031 762.576826947 1067.96582031 743.161467579 1085.59570312 c 0,35,36
 729.836647084 1097.6953125 729.836647084 1097.6953125 712.320639985 1105.8984375 c 128,-1,37
 694.804632886 1114.10058594 694.804632886 1114.10058594 671.376389017 1118.55078125 c 128,-1,38
 647.949232356 1123 647.949232356 1123 619.510047098 1123 c 2,25,-1
EndSplineSet
EndChar

StartChar: S
Encoding: 83 83 54
Width: 1024
GlyphClass: 2
Flags: W
LayerCount: 2
Fore
SplineSet
260.631835938 1204.41699219 m 0,0,1
 410.3071993 1288 410.3071993 1288 711.795257547 1288 c 0,2,3
 719.321381591 1288 719.321381591 1288 726.781258367 1287.95996094 c 128,-1,4
 734.241135144 1287.91894531 734.241135144 1287.91894531 741.635850673 1287.83789062 c 128,-1,5
 749.031652223 1287.7578125 749.031652223 1287.7578125 756.361206505 1287.63671875 c 128,-1,6
 763.690760787 1287.51464844 763.690760787 1287.51464844 770.955153821 1287.35351562 c 128,-1,7
 778.219546856 1287.19140625 778.219546856 1287.19140625 785.418778644 1286.98925781 c 0,8,9
 792.176757812 1286.78710938 792.176757812 1286.78710938 798.590820312 1286.54394531 c 128,-1,10
 805.005859375 1286.30078125 805.005859375 1286.30078125 811.362304688 1286.01757812 c 128,-1,11
 817.71875 1285.734375 817.71875 1285.734375 824.015625 1285.41015625 c 128,-1,12
 830.313476562 1285.0859375 830.313476562 1285.0859375 836.552734375 1284.72167969 c 128,-1,13
 842.791992188 1284.35742188 842.791992188 1284.35742188 848.97265625 1283.95214844 c 0,14,15
 869.607421875 1282.59863281 869.607421875 1282.59863281 886.224609375 1281.26367188 c 128,-1,16
 902.841796875 1279.9296875 902.841796875 1279.9296875 916.032226562 1278.55273438 c 128,-1,17
 929.22265625 1277.17578125 929.22265625 1277.17578125 938.739257812 1275.765625 c 2,18,-1
 966.681640625 1271.7734375 l 1,19,-1
 986 1269.01367188 l 1,20,-1
 986 1254.09765625 l 1,21,-1
 986 1140.19921875 l 1,22,-1
 986 1123 l 1,23,-1
 963.5 1123 l 1,24,-1
 711.795257547 1123 l 2,25,26
 663.329407948 1123 663.329407948 1123 620.53150083 1120.35839844 c 128,-1,27
 577.733593711 1117.71679688 577.733593711 1117.71679688 541.589735946 1112.55859375 c 128,-1,28
 505.44587818 1107.39941406 505.44587818 1107.39941406 475.562930244 1099.90039062 c 128,-1,29
 445.681068328 1092.40039062 445.681068328 1092.40039062 422.025363577 1082.57421875 c 0,30,31
 376.750243046 1063.76660156 376.750243046 1063.76660156 355.495730251 1034.36914062 c 0,32,33
 335 1004.97167969 335 1004.97167969 335 961.5 c 0,34,35
 335 919.803710938 335 919.803710938 355.621708662 888.190429688 c 0,36,37
 366.717583029 871.782226562 366.717583029 871.782226562 381.44185284 858.1015625 c 128,-1,38
 396.166122651 844.419921875 396.166122651 844.419921875 414.846766184 833.220703125 c 0,39,40
 454.510417315 809.444335938 454.510417315 809.444335938 507.293199537 789.788085938 c 0,41,42
 520.890179772 784.724609375 520.890179772 784.724609375 534.799933994 779.751953125 c 128,-1,43
 548.709688216 774.779296875 548.709688216 774.779296875 562.938732549 769.896484375 c 128,-1,44
 577.167776882 765.013671875 577.167776882 765.013671875 591.716111326 760.219726562 c 128,-1,45
 606.264445769 755.42578125 606.264445769 755.42578125 621.124468179 750.724609375 c 0,46,47
 681.371471259 731.663085938 681.371471259 731.663085938 741.615216278 711.599609375 c 0,48,49
 802.087890625 690.942382812 802.087890625 690.942382812 853.2265625 661.499023438 c 0,50,51
 905.171875 631.590820312 905.171875 631.590820312 944.693359375 593.123046875 c 0,52,53
 965.166015625 573.197265625 965.166015625 573.197265625 981.452148438 548.49609375 c 128,-1,54
 997.73828125 523.794921875 997.73828125 523.794921875 1009.796875 494.5859375 c 0,55,56
 1034 435.961914062 1034 435.961914062 1034 363.5 c 0,57,58
 1034 293.959960938 1034 293.959960938 1018.92578125 238.456054688 c 128,-1,59
 1003.8515625 182.953125 1003.8515625 182.953125 972.971679688 141.961914062 c 0,60,61
 957.416015625 121.313476562 957.416015625 121.313476562 937.198242188 103.678710938 c 128,-1,62
 916.98046875 86.0439453125 916.98046875 86.0439453125 892.4140625 71.6083984375 c 128,-1,63
 867.84765625 57.1728515625 867.84765625 57.1728515625 839.243164062 45.75 c 128,-1,64
 810.639648438 34.3271484375 810.639648438 34.3271484375 776.49603187 25.728515625 c 0,65,66
 703.935725122 8.7080078125 703.935725122 8.7080078125 604.658221028 0.353515625 c 128,-1,67
 505.379630912 -8 505.379630912 -8 378.169672213 -8 c 0,68,69
 303.797851562 -8 303.797851562 -8 239.096679688 -3.9560546875 c 128,-1,70
 174.2578125 0.0966796875 174.2578125 0.0966796875 144.42578125 4.2109375 c 2,71,-1
 115.42578125 8.2109375 l 1,72,-1
 96 10.890625 l 1,73,-1
 96 25.8828125 l 1,74,-1
 96 139.797851562 l 1,75,-1
 96 157 l 1,76,-1
 118.5 157 l 1,77,-1
 378.169672213 157 l 2,78,79
 504.693265776 157 504.693265776 157 593.172465199 166.866210938 c 128,-1,80
 681.650578601 176.732421875 681.650578601 176.732421875 727.814064135 195.079101562 c 0,81,82
 811 229.155273438 811 229.155273438 811 318.5 c 0,83,84
 811 332.671875 811 332.671875 808.831054688 345.524414062 c 128,-1,85
 806.662109375 358.376953125 806.662109375 358.376953125 802.416015625 369.834960938 c 128,-1,86
 798.170898438 381.29296875 798.170898438 381.29296875 791.775390625 391.809570312 c 0,87,88
 786.627519778 400.0078125 786.627519778 400.0078125 780.200448769 407.502929688 c 128,-1,89
 773.774463781 414.997070312 773.774463781 414.997070312 766.39169448 421.860351562 c 128,-1,90
 759.00892518 428.724609375 759.00892518 428.724609375 750.656339318 434.946289062 c 128,-1,91
 742.303753456 441.168945312 742.303753456 441.168945312 732.946598367 446.779296875 c 0,92,93
 693.282947236 470.555664062 693.282947236 470.555664062 640.500165014 490.211914062 c 0,94,95
 613.30186046 500.340820312 613.30186046 500.340820312 584.842685774 510.107421875 c 128,-1,96
 556.384597108 519.874023438 556.384597108 519.874023438 526.668896372 529.275390625 c 0,97,98
 466.421893292 548.336914062 466.421893292 548.336914062 406.178148273 568.400390625 c 0,99,100
 375.176598928 578.725585938 375.176598928 578.725585938 345.445693901 591.252929688 c 0,101,102
 318.340820312 603.780273438 318.340820312 603.780273438 292.7734375 618.500976562 c 0,103,104
 240.828125 648.409179688 240.828125 648.409179688 201.306640625 686.876953125 c 0,105,106
 160.4765625 726.618164062 160.4765625 726.618164062 136.203125 785.4140625 c 128,-1,107
 112 844.038085938 112 844.038085938 112 916.5 c 0,108,109
 112 1117.39941406 112 1117.39941406 260.631835938 1204.41699219 c 0,0,1
EndSplineSet
EndChar

StartChar: T
Encoding: 84 84 55
Width: 1024
GlyphClass: 2
Flags: W
LayerCount: 2
Fore
SplineSet
64 1280 m 1,0,-1
 86.5 1280 l 1,1,-1
 1027.5 1280 l 1,2,-1
 1050 1280 l 1,3,-1
 1050 1257.5 l 1,4,-1
 1050 1139.859375 l 1,5,-1
 1050 1123 l 1,6,-1
 1027.5 1123 l 1,7,-1
 675.262436593 1123 l 1,8,-1
 675.262436593 22.5 l 1,9,-1
 675.262436593 0 l 1,10,-1
 650.509833585 0 l 1,11,-1
 463.490166415 0 l 1,12,-1
 438.737563407 0 l 1,13,-1
 438.737563407 22.5 l 1,14,-1
 438.737563407 1123 l 1,15,-1
 86.5 1123 l 1,16,-1
 64 1123 l 1,17,-1
 64 1139.859375 l 1,18,-1
 64 1257.5 l 1,19,-1
 64 1280 l 1,0,-1
EndSplineSet
EndChar

StartChar: U
Encoding: 85 85 56
Width: 1024
GlyphClass: 2
Flags: W
LayerCount: 2
Fore
SplineSet
96 1280 m 1,0,-1
 118.5 1280 l 1,1,-1
 288.5 1280 l 1,2,-1
 311 1280 l 1,3,-1
 311 1257.5 l 1,4,-1
 311 581.874023438 l 2,5,6
 311 352.411132812 311 352.411132812 363.921090061 266.173828125 c 0,7,8
 416.46010311 186 416.46010311 186 557 186 c 128,-1,9
 697.53989689 186 697.53989689 186 750.078909939 266.173828125 c 0,10,11
 803 352.411132812 803 352.411132812 803 581.874023438 c 2,12,-1
 803 1257.5 l 1,13,-1
 803 1280 l 1,14,-1
 825.5 1280 l 1,15,-1
 995.5 1280 l 1,16,-1
 1018 1280 l 1,17,-1
 1018 1257.5 l 1,18,-1
 1018 578.104492188 l 2,19,20
 1018 495.12890625 1018 495.12890625 1012.68164062 426.556640625 c 128,-1,21
 1007.36230469 357.983398438 1007.36230469 357.983398438 996.604492188 303.354492188 c 0,22,23
 974.70703125 192.158203125 974.70703125 192.158203125 922.45703125 119.833984375 c 0,24,25
 868.973632812 45.8017578125 868.973632812 45.8017578125 784.458984375 14.955078125 c 0,26,27
 694.484136458 -16 694.484136458 -16 557 -16 c 128,-1,28
 419.515863542 -16 419.515863542 -16 329.541015625 14.955078125 c 0,29,30
 245.026367188 45.8017578125 245.026367188 45.8017578125 191.54296875 119.833984375 c 0,31,32
 139.29296875 192.158203125 139.29296875 192.158203125 117.395507812 303.354492188 c 0,33,34
 96 412.001953125 96 412.001953125 96 578.104492188 c 2,35,-1
 96 1257.5 l 1,36,-1
 96 1280 l 1,0,-1
EndSplineSet
EndChar

StartChar: V
Encoding: 86 86 57
Width: 1024
GlyphClass: 2
Flags: W
LayerCount: 2
Fore
SplineSet
32 1280 m 1,0,-1
 62.10546875 1280 l 1,1,-1
 239.10546875 1280 l 1,2,-1
 255.9296875 1280 l 1,3,-1
 260.686523438 1263.86230469 l 1,4,-1
 555.469977646 337.862304688 l 1,5,-1
 555.881134899 336.579101562 l 1,6,-1
 556.123802452 335.259765625 l 1,7,-1
 564.605510311 289.143554688 l 1,8,-1
 573.087218169 335.259765625 l 1,9,-1
 573.329885722 336.579101562 l 1,10,-1
 573.739983291 337.862304688 l 1,11,-1
 868.5234375 1263.86230469 l 1,12,-1
 873.28125 1280 l 1,13,-1
 890.10546875 1280 l 1,14,-1
 1067.10546875 1280 l 1,15,-1
 1097.20996094 1280 l 1,16,-1
 1088.68359375 1252.12011719 l 1,17,-1
 698.702116908 16.1279296875 l 1,18,-1
 693.534039794 -0 l 1,19,-1
 675.287347189 0 l 1,20,-1
 453.923673432 0 l 1,21,-1
 435.675921144 0 l 1,22,-1
 430.507844029 16.1279296875 l 1,23,-1
 40.5263671875 1252.12011719 l 1,24,-1
 32 1280 l 1,0,-1
EndSplineSet
EndChar

StartChar: W
Encoding: 87 87 58
Width: 1024
GlyphClass: 2
Flags: W
LayerCount: 2
Fore
SplineSet
32 1280 m 1,0,-1
 56.2509765625 1280 l 1,1,-1
 213.250976562 1280 l 1,2,-1
 234.119140625 1280 l 1,3,-1
 235.6875 1259.19042969 l 1,4,-1
 308.406100782 326.829101562 l 1,5,-1
 480.379830404 753.325195312 l 1,6,-1
 486.297000582 768 l 1,7,-1
 503.311784152 768 l 1,8,-1
 614.190253976 768 l 1,9,-1
 631.20397598 768 l 1,10,-1
 637.121146159 753.325195312 l 1,11,-1
 809.095937346 326.829101562 l 1,12,-1
 881.814453125 1259.19042969 l 1,13,-1
 883.3828125 1280 l 1,14,-1
 904.250976562 1280 l 1,15,-1
 1061.25097656 1280 l 1,16,-1
 1085.50097656 1280 l 1,17,-1
 1083.6875 1256.65136719 l 1,18,-1
 987.6875 20.8173828125 l 1,19,-1
 986.125976562 -0 l 1,20,-1
 965.250976562 0 l 1,21,-1
 754.418906989 0 l 1,22,-1
 737.395630889 0 l 1,23,-1
 731.482706976 14.685546875 l 1,24,-1
 558.751019064 443.716796875 l 1,25,-1
 386.018269587 14.685546875 l 1,26,-1
 380.10640724 0 l 1,27,-1
 363.08313114 0 l 1,28,-1
 152.250976562 0 l 1,29,-1
 131.375 0 l 1,30,-1
 129.813476562 20.8173828125 l 1,31,-1
 33.8134765625 1256.65136719 l 1,32,-1
 32 1280 l 1,0,-1
EndSplineSet
EndChar

StartChar: X
Encoding: 88 88 59
Width: 1024
GlyphClass: 2
Flags: W
LayerCount: 2
Fore
SplineSet
32 1280 m 1,0,-1
 71.580078125 1280 l 1,1,-1
 269.580078125 1280 l 1,2,-1
 282.987773128 1280 l 1,3,-1
 290.011315852 1268.72265625 l 1,4,-1
 574.080118248 812.608398438 l 1,5,-1
 858.148920643 1268.72265625 l 1,6,-1
 865.17140656 1280 l 1,7,-1
 878.580078125 1280 l 1,8,-1
 1076.58007812 1280 l 1,9,-1
 1116.15917969 1280 l 1,10,-1
 1095.91308594 1247.14550781 l 1,11,-1
 709.551216393 640 l 1,12,-1
 1095.91308594 32.8544921875 l 1,13,-1
 1116.15917969 -0 l 1,14,-1
 1076.58007812 0 l 1,15,-1
 878.580078125 0 l 1,16,-1
 865.17140656 0 l 1,17,-1
 858.148920643 11.27734375 l 1,18,-1
 574.080118248 467.391601562 l 1,19,-1
 290.011315852 11.27734375 l 1,20,-1
 282.987773128 -0 l 1,21,-1
 269.580078125 0 l 1,22,-1
 71.580078125 0 l 1,23,-1
 32 0 l 1,24,-1
 52.24609375 32.8544921875 l 1,25,-1
 438.607963295 640 l 1,26,-1
 52.24609375 1247.14550781 l 1,27,-1
 32 1280 l 1,0,-1
EndSplineSet
EndChar

StartChar: Y
Encoding: 89 89 60
Width: 1024
GlyphClass: 2
Flags: W
LayerCount: 2
Fore
SplineSet
32 1280 m 1,0,-1
 68.8740234375 1280 l 1,1,-1
 259.874023438 1280 l 1,2,-1
 273.80078125 1280 l 1,3,-1
 280.19964855 1267.53417969 l 1,4,-1
 571.374023438 727.951171875 l 1,5,-1
 862.548398325 1267.53417969 l 1,6,-1
 868.946289062 1280 l 1,7,-1
 882.874023438 1280 l 1,8,-1
 1073.87402344 1280 l 1,9,-1
 1110.74804688 1280 l 1,10,-1
 1093.8828125 1248.34179688 l 1,11,-1
 687.795546453 511.551757812 l 1,12,-1
 687.795546453 22.5 l 1,13,-1
 687.795546453 0 l 1,14,-1
 663.428250938 0 l 1,15,-1
 479.319795937 0 l 1,16,-1
 454.952500422 0 l 1,17,-1
 454.952500422 22.5 l 1,18,-1
 454.952500422 511.551757812 l 1,19,-1
 48.865234375 1248.34179688 l 1,20,-1
 32 1280 l 1,0,-1
EndSplineSet
EndChar

StartChar: Z
Encoding: 90 90 61
Width: 1024
GlyphClass: 2
Flags: W
LayerCount: 2
Fore
SplineSet
986 1280 m 1,0,-1
 986 1257.5 l 1,1,-1
 986 1100.5 l 1,2,-1
 986 1093.96386719 l 1,3,-1
 982.498046875 1088.44433594 l 1,4,-1
 346.970453234 157 l 1,5,-1
 995.5 157 l 1,6,-1
 1018 157 l 1,7,-1
 1018 140.140625 l 1,8,-1
 1018 22.5 l 1,9,-1
 1018 0 l 1,10,-1
 995.5 0 l 1,11,-1
 118.5 0 l 1,12,-1
 96 0 l 1,13,-1
 96 22.5 l 1,14,-1
 96 179.5 l 1,15,-1
 96 186.036132812 l 1,16,-1
 99.501953125 191.555664062 l 1,17,-1
 731.2939444 1123 l 1,18,-1
 150.5 1123 l 1,19,-1
 128 1123 l 1,20,-1
 128 1139.859375 l 1,21,-1
 128 1257.5 l 1,22,-1
 128 1280 l 1,23,-1
 150.5 1280 l 1,24,-1
 963.5 1280 l 1,25,-1
 986 1280 l 1,0,-1
EndSplineSet
EndChar

StartChar: bracketleft
Encoding: 91 91 62
Width: 1024
GlyphClass: 2
Flags: W
LayerCount: 2
Fore
SplineSet
822 1257.5 m 1,0,-1
 534.5 1257.5 l 1,1,-1
 534.5 -76.5 l 1,2,-1
 822 -76.5 l 1,3,-1
 844.5 -76.5 l 1,4,-1
 844.5 -99 l 1,5,-1
 844.5 -256 l 1,6,-1
 844.5 -278.5 l 1,7,-1
 822 -278.5 l 1,8,-1
 342 -278.5 l 1,9,-1
 319.5 -278.5 l 1,10,-1
 319.5 -256 l 1,11,-1
 319.5 1437 l 1,12,-1
 319.5 1459.5 l 1,13,-1
 342 1459.5 l 1,14,-1
 822 1459.5 l 1,15,-1
 844.5 1459.5 l 1,16,-1
 844.5 1437 l 1,17,-1
 844.5 1280 l 1,18,-1
 844.5 1257.5 l 1,19,-1
 822 1257.5 l 1,0,-1
EndSplineSet
EndChar

StartChar: backslash
Encoding: 92 92 63
Width: 1024
GlyphClass: 2
Flags: W
LayerCount: 2
Fore
SplineSet
177 1459.5 m 1,0,-1
 354 1459.5 l 1,1,-1
 370.882577487 1459.5 l 1,2,-1
 375.602713326 1443.2906897 l 1,3,-1
 868.602713326 -249.709310296 l 1,4,-1
 876.986534959 -278.5 l 1,5,-1
 847 -278.5 l 1,6,-1
 669 -278.5 l 1,7,-1
 652.107844727 -278.5 l 1,8,-1
 647.39386408 -262.278924319 l 1,9,-1
 155.39386408 1430.72107568 l 1,10,-1
 147.03046729 1459.5 l 1,11,-1
 177 1459.5 l 1,0,-1
EndSplineSet
EndChar

StartChar: bracketright
Encoding: 93 93 64
Width: 1024
GlyphClass: 2
Flags: W
LayerCount: 2
Fore
SplineSet
179.5 1280 m 1,0,-1
 179.5 1437 l 1,1,-1
 179.5 1459.5 l 1,2,-1
 202 1459.5 l 1,3,-1
 682 1459.5 l 1,4,-1
 704.5 1459.5 l 1,5,-1
 704.5 1437 l 1,6,-1
 704.5 -256 l 1,7,-1
 704.5 -278.5 l 1,8,-1
 682 -278.5 l 1,9,-1
 202 -278.5 l 1,10,-1
 179.5 -278.5 l 1,11,-1
 179.5 -256 l 1,12,-1
 179.5 -99 l 1,13,-1
 179.5 -76.5 l 1,14,-1
 202 -76.5 l 1,15,-1
 489.5 -76.5 l 1,16,-1
 489.5 1257.5 l 1,17,-1
 202 1257.5 l 1,18,-1
 179.5 1257.5 l 1,19,-1
 179.5 1280 l 1,0,-1
EndSplineSet
EndChar

StartChar: asciicircum
Encoding: 94 94 65
Width: 1024
GlyphClass: 2
Flags: W
LayerCount: 2
Fore
SplineSet
410 1302.5 m 1,0,-1
 614 1302.5 l 1,1,-1
 627.413553036 1302.5 l 1,2,-1
 633.792697223 1290.70042694 l 1,3,-1
 979.792697223 650.700426936 l 1,4,-1
 997.741678036 617.5 l 1,5,-1
 960 617.5 l 1,6,-1
 767 617.5 l 1,7,-1
 753.595602051 617.5 l 1,8,-1
 747.213732037 629.28768932 l 1,9,-1
 512 1063.74128849 l 1,10,-1
 276.786267963 629.28768932 l 1,11,-1
 270.404397949 617.5 l 1,12,-1
 257 617.5 l 1,13,-1
 64 617.5 l 1,14,-1
 26.2583219641 617.5 l 1,15,-1
 44.2073027766 650.700426936 l 1,16,-1
 390.207302777 1290.70042694 l 1,17,-1
 396.586446964 1302.5 l 1,18,-1
 410 1302.5 l 1,0,-1
EndSplineSet
EndChar

StartChar: underscore
Encoding: 95 95 66
Width: 1024
GlyphClass: 2
Flags: W
LayerCount: 2
Fore
SplineSet
85 -76.5 m 1,0,-1
 939 -76.5 l 1,1,-1
 961.5 -76.5 l 1,2,-1
 961.5 -99 l 1,3,-1
 961.5 -256 l 1,4,-1
 961.5 -278.5 l 1,5,-1
 939 -278.5 l 1,6,-1
 85 -278.5 l 1,7,-1
 62.5 -278.5 l 1,8,-1
 62.5 -256 l 1,9,-1
 62.5 -99 l 1,10,-1
 62.5 -76.5 l 1,11,-1
 85 -76.5 l 1,0,-1
EndSplineSet
EndChar

StartChar: grave
Encoding: 96 96 67
Width: 1024
GlyphClass: 2
Flags: W
LayerCount: 2
Fore
SplineSet
259.090097423 1156.90990258 m 1,0,-1
 379.090097423 1276.90990258 l 1,1,-1
 395.355484666 1293.17528982 l 1,2,-1
 411.257533146 1276.55450469 l 1,3,-1
 765.257533146 906.554504685 l 1,4,-1
 780.472089706 890.652284552 l 1,5,-1
 764.909902577 875.090097423 l 1,6,-1
 660.909902577 771.090097423 l 1,7,-1
 645.347715448 755.527910294 l 1,8,-1
 629.445495315 770.742466854 l 1,9,-1
 259.445495315 1124.74246685 l 1,10,-1
 242.82471018 1140.64451533 l 1,11,-1
 259.090097423 1156.90990258 l 1,0,-1
EndSplineSet
EndChar

StartChar: a
Encoding: 97 97 68
Width: 1024
GlyphClass: 2
Flags: W
LayerCount: 2
Fore
SplineSet
241.682617188 1015.47851562 m 2,0,1
 317.063476562 1032 317.063476562 1032 449.265971317 1032 c 0,2,3
 760.592773438 1032 760.592773438 1032 871.403320312 957.673828125 c 0,4,5
 986 880.807617188 986 880.807617188 986 688.479492188 c 2,6,-1
 1031 266.86328125 l 2,7,8
 1031 119.950195312 1031 119.950195312 968.41015625 59.974609375 c 128,-1,9
 905.819335938 0 905.819335938 0 707.5 0 c 2,10,-1
 519.5 0 l 2,11,12
 307.400390625 0 307.400390625 0 209.859375 90.98828125 c 0,13,14
 112 182.2734375 112 182.2734375 112 338.100585938 c 0,15,16
 112 466.424804688 112 466.424804688 211.719726562 540.947265625 c 0,17,18
 260.66796875 577.52734375 260.66796875 577.52734375 326.529296875 595.513671875 c 0,19,20
 397.007208529 613.5 397.007208529 613.5 490.066255778 613.5 c 2,21,-1
 771 613.5 l 1,22,-1
 771 704.036132812 l 2,23,24
 771 728.00390625 771 728.00390625 767.452148438 747.504882812 c 128,-1,25
 763.903320312 767.005859375 763.903320312 767.005859375 756.760742188 782.280273438 c 128,-1,26
 749.618164062 797.553710938 749.618164062 797.553710938 739.196573454 809.002929688 c 0,27,28
 727.524486868 820.451171875 727.524486868 820.451171875 711.717475619 828.955078125 c 0,29,30
 678.21196858 846.978515625 678.21196858 846.978515625 611.596074443 856.989257812 c 128,-1,31
 544.980180307 867 544.980180307 867 449.265971317 867 c 2,32,-1
 246.5 867 l 1,33,-1
 224 867 l 1,34,-1
 224 884.16015625 l 1,35,-1
 224 997.796875 l 1,36,-1
 224 1011.60253906 l 1,37,-1
 241.682617188 1015.47851562 l 2,0,1
816 410.5 m 1,38,-1
 519.5 410.5 l 2,39,40
 485.247452271 410.5 485.247452271 410.5 455.978003503 407.266601562 c 128,-1,41
 426.708554734 404.034179688 426.708554734 404.034179688 403.933505915 398.076171875 c 128,-1,42
 381.158457095 392.118164062 381.158457095 392.118164062 363.346212236 383.435546875 c 0,43,44
 343.340820312 370.974609375 343.340820312 370.974609375 335.169921875 355.799804688 c 128,-1,45
 327 340.625976562 327 340.625976562 327 319.963867188 c 0,46,47
 327 293.646484375 327 293.646484375 331.47265625 271.594726562 c 128,-1,48
 335.9453125 249.54296875 335.9453125 249.54296875 344.521484375 232.00390625 c 128,-1,49
 353.096679688 214.46484375 353.096679688 214.46484375 369.17223019 200.153320312 c 0,50,51
 396.017102977 178.655273438 396.017102977 178.655273438 433.016240684 167.828125 c 128,-1,52
 470.016731392 157 470.016731392 157 519.5 157 c 2,53,-1
 707.5 157 l 2,54,55
 728.218602651 157 728.218602651 157 746.119846351 157 c 0,56,57
 764.018771237 157.888671875 764.018771237 157.888671875 776.818624246 159.333007812 c 0,58,59
 787.084960938 160.776367188 787.084960938 160.776367188 791.42578125 162.780273438 c 128,-1,60
 795.766601562 164.784179688 795.766601562 164.784179688 798.463867188 166.8359375 c 128,-1,61
 801.161132812 168.887695312 801.161132812 168.887695312 802.944335938 171.170898438 c 0,62,63
 816 187.879882812 816 187.879882812 816 240.356445312 c 2,64,-1
 816 410.5 l 1,38,-1
EndSplineSet
EndChar

StartChar: b
Encoding: 98 98 69
Width: 1024
GlyphClass: 2
Flags: W
LayerCount: 2
Fore
SplineSet
128 1280 m 1,0,-1
 150.5 1280 l 1,1,-1
 320.5 1280 l 1,2,-1
 343 1280 l 1,3,-1
 343 1257.5 l 1,4,-1
 343 989.623046875 l 1,5,6
 445.700340113 1024 445.700340113 1024 555.93327012 1024 c 0,7,8
 665.785468306 1024 665.785468306 1024 754.229249002 990.520507812 c 0,9,10
 832.504882812 957.040039062 832.504882812 957.040039062 889.393554688 890.633789062 c 0,11,12
 1002 759.1875 1002 759.1875 1002 534.989257812 c 0,13,14
 1047 289.67578125 1047 289.67578125 922.84375 145.76171875 c 0,15,16
 796.249672179 -0 796.249672179 -0 535.5 0 c 2,17,-1
 451.5 0 l 2,18,19
 253.180664062 0 253.180664062 0 190.58984375 60.427734375 c 128,-1,20
 128 120.85546875 128 120.85546875 128 268.877929688 c 2,21,-1
 128 1257.5 l 1,22,-1
 128 1280 l 1,0,-1
652.584920542 846.325195312 m 128,-1,24
 610.799603171 867 610.799603171 867 555.93327012 867 c 0,25,26
 444.783927473 867 444.783927473 867 343 819.499023438 c 1,27,-1
 343 238.676757812 l 2,28,29
 343 217.7578125 343 217.7578125 347.5078125 202.6015625 c 128,-1,30
 352.014648438 187.4453125 352.014648438 187.4453125 360.4921875 177.016601562 c 0,31,32
 368.74609375 166.86328125 368.74609375 166.86328125 387.941309608 161.931640625 c 0,33,34
 414.030285369 157 414.030285369 157 451.5 157 c 2,35,-1
 535.5 157 l 2,36,37
 605.9881042 157 605.9881042 157 660.086551468 181.408203125 c 128,-1,38
 714.184998736 205.815429688 714.184998736 205.815429688 754.897560213 255.923828125 c 0,39,40
 796.196768186 306.752929688 796.196768186 306.752929688 814.525390625 377.05859375 c 0,41,42
 832 447.365234375 832 447.365234375 787 537.624023438 c 0,43,44
 787 616.756835938 787 616.756835938 772.453125 677.987304688 c 128,-1,45
 757.90625 739.216796875 757.90625 739.216796875 725.96101806 782.825195312 c 0,46,23
 694.370237912 825.650390625 694.370237912 825.650390625 652.584920542 846.325195312 c 128,-1,24
EndSplineSet
EndChar

StartChar: c
Encoding: 99 99 70
Width: 1024
GlyphClass: 2
Flags: W
LayerCount: 2
Fore
SplineSet
264.37109375 891.4296875 m 0,0,1
 425.049861079 1032 425.049861079 1032 709.5 1032 c 0,2,3
 771.309570312 1032 771.309570312 1032 827.6171875 1027.94140625 c 0,4,5
 855.944335938 1025.90039062 855.944335938 1025.90039062 876.338867188 1023.875 c 128,-1,6
 896.732421875 1021.84863281 896.732421875 1021.84863281 910.0546875 1019.71777344 c 2,7,-1
 935.0546875 1015.71777344 l 1,8,-1
 954 1012.68652344 l 1,9,-1
 954 998.02734375 l 1,10,-1
 954 884.190429688 l 1,11,-1
 954 867 l 1,12,-1
 931.5 867 l 1,13,-1
 709.5 867 l 2,14,15
 648.504004456 867 648.504004456 867 596.560254814 856.284179688 c 128,-1,16
 544.616505172 845.569335938 544.616505172 845.569335938 502.201919929 824.552734375 c 128,-1,17
 459.786214267 803.53515625 459.786214267 803.53515625 425.528280033 771.985351562 c 0,18,19
 374.052865572 724.579101562 374.052865572 724.579101562 349.48046875 660.03515625 c 0,20,21
 327 595.491210938 327 595.491210938 327 512 c 0,22,23
 327 318.84375 327 318.84375 419.382781299 238.459960938 c 0,24,25
 517.59423745 157 517.59423745 157 709.5 157 c 2,26,-1
 931.5 157 l 1,27,-1
 954 157 l 1,28,-1
 954 139.82421875 l 1,29,-1
 954 26.083984375 l 1,30,-1
 954 11.83984375 l 1,31,-1
 935.662109375 8.388671875 l 2,32,33
 848.599609375 -8 848.599609375 -8 709.5 -8 c 0,34,35
 652.239481717 -8 652.239481717 -8 600.172485975 -3.76953125 c 128,-1,36
 548.105490233 0.4609375 548.105490233 0.4609375 501.333595131 8.9755859375 c 0,37,38
 477.745411934 13.26953125 477.745411934 13.26953125 455.009867667 18.9755859375 c 0,39,40
 432.273202982 24.4384765625 432.273202982 24.4384765625 410.393658904 31.2529296875 c 128,-1,41
 388.512994406 38.0673828125 388.512994406 38.0673828125 367.493932193 46.2412109375 c 0,42,43
 347.923828125 54.4150390625 347.923828125 54.4150390625 330.399414062 63.931640625 c 0,44,45
 259.357421875 102.510742188 259.357421875 102.510742188 211.5546875 163.028320312 c 0,46,47
 163.999023438 223.233398438 163.999023438 223.233398438 137.84765625 311.872070312 c 0,48,49
 112 399.48046875 112 399.48046875 112 512.573242188 c 0,50,51
 112 750.553710938 112 750.553710938 264.37109375 891.4296875 c 0,0,1
EndSplineSet
EndChar

StartChar: d
Encoding: 100 100 71
Width: 1024
GlyphClass: 2
Flags: W
LayerCount: 2
Fore
SplineSet
986 1280 m 1,0,-1
 986 1257.5 l 1,1,-1
 1031 268.877929688 l 2,2,3
 1031 120.85546875 1031 120.85546875 968.41015625 60.427734375 c 128,-1,4
 905.819335938 0 905.819335938 0 707.5 0 c 2,5,-1
 623.5 0 l 2,6,7
 363.516847893 0 363.516847893 0 236.845703125 132.546875 c 0,8,9
 112 264.196289062 112 264.196289062 112 489.010742188 c 0,10,11
 112 733.728515625 112 733.728515625 223.969726562 877.40234375 c 0,12,13
 338.21875 1024 338.21875 1024 558.06672988 1024 c 0,14,15
 668.299659887 1024 668.299659887 1024 771 989.623046875 c 1,16,-1
 771 1257.5 l 1,17,-1
 771 1280 l 1,18,-1
 793.5 1280 l 1,19,-1
 963.5 1280 l 1,20,-1
 986 1280 l 1,0,-1
771 819.499023438 m 1,21,22
 669.216072527 867 669.216072527 867 558.06672988 867 c 0,23,24
 451.200620222 867 451.200620222 867 388.936579344 769.716796875 c 0,25,26
 327 666.536132812 327 666.536132812 327 486.375976562 c 0,27,28
 327 433.721679688 327 433.721679688 334.796875 388.936523438 c 128,-1,29
 342.59375 344.15234375 342.59375 344.15234375 357.694335938 307.955078125 c 0,30,31
 375.859937207 271.7578125 375.859937207 271.7578125 402.963240478 242.814453125 c 0,32,33
 483.324405356 157 483.324405356 157 623.5 157 c 2,34,-1
 707.5 157 l 2,35,36
 778.105565989 157 778.105565989 157 798.5078125 177.016601562 c 0,37,38
 816 198.53515625 816 198.53515625 816 238.676757812 c 2,39,-1
 771 819.499023438 l 1,21,22
EndSplineSet
EndChar

StartChar: e
Encoding: 101 101 72
Width: 1024
GlyphClass: 2
Flags: W
LayerCount: 2
Fore
SplineSet
902.920898438 8.26171875 m 2,0,1
 797.220703125 -8 797.220703125 -8 612.237976689 -8 c 0,2,3
 366.150676842 -8 366.150676842 -8 237.97265625 133.227539062 c 0,4,5
 112 273.059570312 112 273.059570312 112 512.165039062 c 0,6,7
 112 631.62890625 112 631.62890625 140.262695312 727.474609375 c 128,-1,8
 168.526367188 823.321289062 168.526367188 823.321289062 225.62890625 894.900390625 c 0,9,10
 341.3828125 1040 341.3828125 1040 557 1040 c 0,11,12
 610.181524591 1040 610.181524591 1040 658.42668344 1033.26464844 c 128,-1,13
 706.670741405 1026.52832031 706.670741405 1026.52832031 749.988341588 1013.03613281 c 0,14,15
 789.119140625 1000.02929688 789.119140625 1000.02929688 823.028320312 980.3125 c 128,-1,16
 856.938476562 960.596679688 856.938476562 960.596679688 885.9140625 934.330078125 c 0,17,18
 1002 829.095703125 1002 829.095703125 1002 651.018554688 c 2,19,-1
 1002 584.501953125 l 2,20,21
 1002 489.274414062 1002 489.274414062 957.84375 449.583984375 c 0,22,23
 914.362304688 410.5 914.362304688 410.5 809.5 410.5 c 2,24,-1
 336.291992188 410.5 l 1,25,26
 337.146484375 403.877929688 337.146484375 403.877929688 338.233398438 397.005859375 c 128,-1,27
 339.321289062 390.134765625 339.321289062 390.134765625 341.092773438 380.061523438 c 0,28,29
 343.694335938 365.263671875 343.694335938 365.263671875 347.11328125 351.1640625 c 128,-1,30
 350.53125 337.064453125 350.53125 337.064453125 354.76171875 323.651367188 c 0,31,32
 357.391601562 315.314453125 357.391601562 315.314453125 361.672279019 306.123046875 c 128,-1,33
 365.998754792 296.930664062 365.998754792 296.930664062 371.890688211 286.590820312 c 128,-1,34
 377.78262163 276.25 377.78262163 276.25 385.024239349 265.244140625 c 0,35,36
 406.034618516 233.318359375 406.034618516 233.318359375 434.049925252 210.508789062 c 0,37,38
 447.466403686 199.5859375 447.466403686 199.5859375 465.910621269 190.049804688 c 128,-1,39
 484.355939737 180.513671875 484.355939737 180.513671875 507.767347826 172.6640625 c 128,-1,40
 531.000412638 164.874023438 531.000412638 164.874023438 557.091373407 160.936523438 c 128,-1,41
 583.181233291 157 583.181233291 157 612.237976689 157 c 2,42,-1
 899.5 157 l 1,43,-1
 922 157 l 1,44,-1
 922 139.806640625 l 1,45,-1
 922 25.947265625 l 1,46,-1
 922 11.197265625 l 1,47,-1
 902.920898438 8.26171875 l 2,0,1
335.618164062 591 m 2,48,-1
 787 591 l 1,49,-1
 787 637.5 l 2,50,51
 787 669.405273438 787 669.405273438 780.799804688 696.293945312 c 128,-1,52
 774.598632812 723.181640625 774.598632812 723.181640625 762.532226562 744.920898438 c 0,53,54
 749.730734633 766.66015625 749.730734633 766.66015625 729.238872028 784.39453125 c 0,55,56
 698.411906482 811.073242188 698.411906482 811.073242188 655.787863484 824.537109375 c 128,-1,57
 613.163820487 838 613.163820487 838 557 838 c 0,58,59
 511.520262815 838 511.520262815 838 474.628524996 823.848632812 c 0,60,61
 462.253483224 819.1015625 462.253483224 819.1015625 451.639856525 813.438476562 c 128,-1,62
 441.02733071 807.775390625 441.02733071 807.775390625 432.391993315 801.41015625 c 128,-1,63
 423.756655919 795.044921875 423.756655919 795.044921875 416.665859366 787.776367188 c 0,64,65
 393.170784061 763.692382812 393.170784061 763.692382812 375.911118115 734.928710938 c 0,66,67
 358.8187866 706.44140625 358.8187866 706.44140625 351.869140625 678.208984375 c 0,68,69
 344.543945312 647.930664062 344.543945312 647.930664062 340.169921875 622.663085938 c 0,70,71
 339.537109375 619.00390625 339.537109375 619.00390625 338.94140625 615.2890625 c 128,-1,72
 338.345703125 611.57421875 338.345703125 611.57421875 337.849609375 608.221679688 c 128,-1,73
 337.354492188 604.869140625 337.354492188 604.869140625 336.92578125 601.716796875 c 128,-1,74
 336.497070312 598.565429688 336.497070312 598.565429688 336.171875 595.890625 c 128,-1,75
 335.846679688 593.215820312 335.846679688 593.215820312 335.618164062 591 c 2,48,-1
EndSplineSet
EndChar

StartChar: f
Encoding: 102 102 73
Width: 1024
GlyphClass: 2
Flags: W
LayerCount: 2
Fore
SplineSet
1018 1268.56054688 m 1,0,-1
 1018 1249.5 l 1,1,-1
 1018 1100.5 l 1,2,-1
 1018 1078 l 1,3,-1
 995.5 1078 l 1,4,-1
 787.5 1078 l 2,5,6
 660.764986997 1078 660.764986997 1078 621.11753143 1044.609375 c 0,7,8
 605.333798122 1031.87792969 605.333798122 1031.87792969 594.963624694 1002.84277344 c 128,-1,9
 584.593451265 973.806640625 584.593451265 973.806640625 582.592266257 930.043945312 c 1,10,-1
 995.5 930.043945312 l 1,11,-1
 1018 930.043945312 l 1,12,-1
 1018 908.493164062 l 1,13,-1
 1018 758.11328125 l 1,14,-1
 1018 736.5625 l 1,15,-1
 995.5 736.5625 l 1,16,-1
 582.126595414 736.5625 l 1,17,-1
 582.126595414 22.5 l 1,18,-1
 582.126595414 0 l 1,19,-1
 557 0 l 1,20,-1
 367.154612431 0 l 1,21,-1
 342.028017018 0 l 1,22,-1
 342.028017018 22.5 l 1,23,-1
 342.028017018 735.526367188 l 1,24,-1
 118.5 735.526367188 l 1,25,-1
 96 735.526367188 l 1,26,-1
 96 757.045898438 l 1,27,-1
 96 907.20703125 l 1,28,-1
 96 928.7265625 l 1,29,-1
 118.5 928.7265625 l 1,30,-1
 342.240677005 928.7265625 l 1,31,32
 343.187286589 974.177734375 343.187286589 974.177734375 347.81782149 1010.55859375 c 0,33,34
 352.448356392 1048.59570312 352.448356392 1048.59570312 361.204495045 1079.95703125 c 0,35,36
 381.262148814 1151.80175781 381.262148814 1151.80175781 433.95711252 1200.63476562 c 0,37,38
 486.974883181 1249.76660156 486.974883181 1249.76660156 574.357417214 1269.328125 c 0,39,40
 657.763754767 1288 657.763754767 1288 787.5 1288 c 0,41,42
 799.061523438 1288 799.061523438 1288 810.421875 1287.83789062 c 128,-1,43
 821.78125 1287.67578125 821.78125 1287.67578125 832.954101562 1287.35058594 c 128,-1,44
 844.126953125 1287.02539062 844.126953125 1287.02539062 855.098632812 1286.53808594 c 128,-1,45
 866.071289062 1286.04980469 866.071289062 1286.04980469 876.85546875 1285.39941406 c 128,-1,46
 887.640625 1284.74804688 887.640625 1284.74804688 898.225585938 1283.93359375 c 0,47,48
 924.82421875 1281.88769531 924.82421875 1281.88769531 943.887695312 1279.85644531 c 128,-1,49
 962.952148438 1277.82421875 962.952148438 1277.82421875 975.27734375 1275.68066406 c 2,50,-1
 999.19921875 1271.69433594 l 1,51,-1
 1018 1268.56054688 l 1,0,-1
EndSplineSet
EndChar

StartChar: g
Encoding: 103 103 74
Width: 1024
GlyphClass: 2
Flags: W
LayerCount: 2
Fore
SplineSet
238.653320312 916.953125 m 0,0,1
 365.300300268 1024 365.300300268 1024 623.5 1024 c 2,2,-1
 707.5 1024 l 2,3,4
 905.819335938 1024 905.819335938 1024 968.41015625 963.9453125 c 128,-1,5
 1031 903.891601562 1031 903.891601562 1031 756.783203125 c 2,6,-1
 1031 135.03515625 l 2,7,8
 1031 33.5986328125 1031 33.5986328125 998.083007812 -41.7685546875 c 0,9,10
 965.166015625 -120.318359375 965.166015625 -120.318359375 898.833984375 -169.123046875 c 0,11,12
 833.678710938 -217.063476562 833.678710938 -217.063476562 729.304638076 -240.53125 c 0,13,14
 612.014047129 -264 612.014047129 -264 460.031942634 -264 c 0,15,16
 391.712730893 -264 391.712730893 -264 335.631835938 -259.921875 c 0,17,18
 310.9765625 -257.868164062 310.9765625 -257.868164062 293.379882812 -255.830078125 c 128,-1,19
 275.782226562 -253.791992188 275.782226562 -253.791992188 264.3828125 -251.620117188 c 2,20,-1
 242.474609375 -247.63671875 l 1,21,-1
 224 -244.278320312 l 1,22,-1
 224 -225.5 l 1,23,-1
 224 -76.5 l 1,24,-1
 224 -54 l 1,25,-1
 246.5 -54 l 1,26,-1
 460.031942634 -54 l 2,27,28
 552.821381545 -54 552.821381545 -54 622.307079193 -42.0009765625 c 128,-1,29
 691.791539846 -30.0009765625 691.791539846 -30.0009765625 737.285727233 -7.0419921875 c 0,30,31
 780.736399541 13.009765625 780.736399541 13.009765625 798.841796875 46.4736328125 c 0,32,33
 816 79.9384765625 816 79.9384765625 816 129.708984375 c 2,34,-1
 816 233.5 l 1,35,-1
 581.633459761 233.5 l 2,36,37
 340.556640625 233.5 340.556640625 233.5 226.552734375 338.161132812 c 0,38,39
 112 443.327148438 112 443.327148438 112 622.916015625 c 0,40,41
 112 808.810546875 112 808.810546875 238.653320312 916.953125 c 0,0,1
707.5 867 m 2,42,-1
 623.5 867 l 2,43,44
 575.019956754 867 575.019956754 867 533.835961921 860.094726562 c 128,-1,45
 492.651967087 853.190429688 492.651967087 853.190429688 459.481163678 839.87890625 c 128,-1,46
 426.311535913 826.56640625 426.311535913 826.56640625 399.672612133 806.715820312 c 0,47,48
 359.958172652 777.120117188 359.958172652 777.120117188 343.29296875 737.244140625 c 0,49,50
 327 697.369140625 327 697.369140625 327 644.919921875 c 0,51,52
 327 546.375976562 327 546.375976562 387.927527418 491.137695312 c 0,53,54
 457.559190429 435.5 457.559190429 435.5 581.633459761 435.5 c 2,55,-1
 816 435.5 l 1,56,-1
 816 786.291992188 l 2,57,58
 816 825.95703125 816 825.95703125 798.5078125 847.220703125 c 0,59,60
 778.105565989 867 778.105565989 867 707.5 867 c 2,42,-1
EndSplineSet
EndChar

StartChar: h
Encoding: 104 104 75
Width: 1024
GlyphClass: 2
Flags: W
LayerCount: 2
Fore
SplineSet
128 1280 m 1,0,-1
 150.5 1280 l 1,1,-1
 320.5 1280 l 1,2,-1
 343 1280 l 1,3,-1
 343 1257.5 l 1,4,-1
 343 989.623046875 l 1,5,6
 446.12159242 1024 446.12159242 1024 557 1024 c 128,-1,7
 667.907352324 1024 667.907352324 1024 752.141601562 1001.74023438 c 0,8,9
 827.493164062 980.458007812 827.493164062 980.458007812 880.192382812 937.014648438 c 0,10,11
 986 849.791015625 986 849.791015625 986 651.590820312 c 2,12,-1
 986 22.5 l 1,13,-1
 986 0 l 1,14,-1
 963.5 0 l 1,15,-1
 793.5 0 l 1,16,-1
 771 0 l 1,17,-1
 771 22.5 l 1,18,-1
 771 680.227539062 l 2,19,20
 769.442382812 733.748046875 769.442382812 733.748046875 756.9375 769.174804688 c 128,-1,21
 744.432617188 804.602539062 744.432617188 804.602539062 719.417863767 824.752929688 c 0,22,23
 665.737609795 867 665.737609795 867 557 867 c 0,24,25
 445.199813655 867 445.199813655 867 343 822.509765625 c 1,26,-1
 343 22.5 l 1,27,-1
 343 0 l 1,28,-1
 320.5 0 l 1,29,-1
 150.5 0 l 1,30,-1
 128 0 l 1,31,-1
 128 22.5 l 1,32,-1
 128 1257.5 l 1,33,-1
 128 1280 l 1,0,-1
EndSplineSet
EndChar

StartChar: i
Encoding: 105 105 76
Width: 1024
GlyphClass: 2
Flags: W
LayerCount: 2
Fore
SplineSet
326 1374 m 1,0,-1
 348.5 1374 l 1,1,-1
 688.097424412 1374 l 1,2,-1
 713.746920493 1374 l 1,3,-1
 713.746920493 1351.5 l 1,4,-1
 713.746920493 1165.5 l 1,5,-1
 713.746920493 1143 l 1,6,-1
 688.097424412 1143 l 1,7,-1
 348.5 1143 l 1,8,-1
 326 1143 l 1,9,-1
 326 1165.5 l 1,10,-1
 326 1351.5 l 1,11,-1
 326 1374 l 1,0,-1
160 925 m 1,12,-1
 182.5 925 l 1,13,-1
 653.898096305 925 l 1,14,-1
 679.547592385 925 l 1,15,-1
 679.547592385 902.5 l 1,16,-1
 679.547592385 157 l 1,17,-1
 963.5 157 l 1,18,-1
 986 157 l 1,19,-1
 986 140.140625 l 1,20,-1
 986 22.5 l 1,21,-1
 986 0 l 1,22,-1
 963.5 0 l 1,23,-1
 150.5 0 l 1,24,-1
 128 0 l 1,25,-1
 128 22.5 l 1,26,-1
 128 140.140625 l 1,27,-1
 128 157 l 1,28,-1
 150.5 157 l 1,29,-1
 434.452407615 157 l 1,30,-1
 434.452407615 723 l 1,31,-1
 182.5 723 l 1,32,-1
 160 723 l 1,33,-1
 160 745.5 l 1,34,-1
 160 902.5 l 1,35,-1
 160 925 l 1,12,-1
EndSplineSet
EndChar

StartChar: j
Encoding: 106 106 77
Width: 1024
GlyphClass: 2
Flags: W
LayerCount: 2
Fore
SplineSet
556.343823391 1374 m 1,0,-1
 582.80695162 1374 l 1,1,-1
 897.5 1374 l 1,2,-1
 920 1374 l 1,3,-1
 920 1351.5 l 1,4,-1
 920 1165.5 l 1,5,-1
 920 1143 l 1,6,-1
 897.5 1143 l 1,7,-1
 582.80695162 1143 l 1,8,-1
 556.343823391 1143 l 1,9,-1
 556.343823391 1165.5 l 1,10,-1
 556.343823391 1351.5 l 1,11,-1
 556.343823391 1374 l 1,0,-1
192 970 m 1,12,-1
 214.5 970 l 1,13,-1
 867.5 970 l 1,14,-1
 890 970 l 1,15,-1
 890 947.5 l 1,16,-1
 890 142.5 l 2,17,18
 890 -76.001953125 890 -76.001953125 758.17578125 -171.23828125 c 0,19,20
 621.9457345 -264 621.9457345 -264 342.5 -264 c 0,21,22
 288.564453125 -264 288.564453125 -264 239.631835938 -259.921875 c 0,23,24
 190.452148438 -255.82421875 190.452148438 -255.82421875 168.3828125 -251.620117188 c 2,25,-1
 146.474609375 -247.63671875 l 1,26,-1
 128 -244.278320312 l 1,27,-1
 128 -225.5 l 1,28,-1
 128 -76.5 l 1,29,-1
 128 -54 l 1,30,-1
 150.5 -54 l 1,31,-1
 342.5 -54 l 2,32,33
 508.031385774 -54 508.031385774 -54 594.429364578 -7.0419921875 c 0,34,35
 634.774149395 14.8857421875 634.774149395 14.8857421875 654.953433243 51.4794921875 c 128,-1,36
 675 88.07421875 675 88.07421875 675 142.5 c 2,37,-1
 675 768 l 1,38,-1
 214.5 768 l 1,39,-1
 192 768 l 1,40,-1
 192 790.5 l 1,41,-1
 192 947.5 l 1,42,-1
 192 970 l 1,12,-1
EndSplineSet
EndChar

StartChar: k
Encoding: 107 107 78
Width: 1024
GlyphClass: 2
Flags: W
LayerCount: 2
Fore
SplineSet
128 1280 m 1,0,-1
 150.5 1280 l 1,1,-1
 320.5 1280 l 1,2,-1
 343 1280 l 1,3,-1
 343 1257.5 l 1,4,-1
 343 687.205078125 l 1,5,-1
 712.367270741 1017.53808594 l 1,6,-1
 719.658177393 1024 l 1,7,-1
 729.888650959 1024 l 1,8,-1
 963.5 1024 l 1,9,-1
 1018.49804688 1024 l 1,10,-1
 979.270507812 987.07421875 l 1,11,-1
 563.093438793 619.973632812 l 1,12,-1
 1045.53125 34.4453125 l 1,13,-1
 1072.37109375 0 l 1,14,-1
 1027.5 0 l 1,15,-1
 831.5 0 l 1,16,-1
 819.515623299 0 l 1,17,-1
 812.023034816 9.037109375 l 1,18,-1
 343 578.768554688 l 1,19,-1
 343 22.5 l 1,20,-1
 343 0 l 1,21,-1
 320.5 0 l 1,22,-1
 150.5 0 l 1,23,-1
 128 0 l 1,24,-1
 128 22.5 l 1,25,-1
 128 1257.5 l 1,26,-1
 128 1280 l 1,0,-1
EndSplineSet
EndChar

StartChar: l
Encoding: 108 108 79
Width: 1024
GlyphClass: 2
Flags: W
LayerCount: 2
Fore
SplineSet
160 1280 m 1,0,-1
 182.5 1280 l 1,1,-1
 653.898096305 1280 l 1,2,-1
 679.547592385 1280 l 1,3,-1
 679.547592385 1257.5 l 1,4,-1
 679.547592385 157 l 1,5,-1
 963.5 157 l 1,6,-1
 986 157 l 1,7,-1
 986 140.140625 l 1,8,-1
 986 22.5 l 1,9,-1
 986 0 l 1,10,-1
 963.5 0 l 1,11,-1
 150.5 0 l 1,12,-1
 128 0 l 1,13,-1
 128 22.5 l 1,14,-1
 128 140.140625 l 1,15,-1
 128 157 l 1,16,-1
 150.5 157 l 1,17,-1
 434.452407615 157 l 1,18,-1
 434.452407615 1078 l 1,19,-1
 182.5 1078 l 1,20,-1
 160 1078 l 1,21,-1
 160 1100.5 l 1,22,-1
 160 1257.5 l 1,23,-1
 160 1280 l 1,0,-1
EndSplineSet
EndChar

StartChar: m
Encoding: 109 109 80
Width: 1024
GlyphClass: 2
Flags: W
LayerCount: 2
Fore
SplineSet
254.27734375 1020.88574219 m 0,0,1
 300.852539062 1032 300.852539062 1032 353.47859749 1032 c 0,2,3
 401.069344367 1032 401.069344367 1032 441.458845673 1024.55078125 c 0,4,5
 482.627237481 1016.95800781 482.627237481 1016.95800781 508.663666904 1005.125 c 0,6,7
 533.319580056 993.918945312 533.319580056 993.918945312 550.70119308 983.022460938 c 0,8,9
 552.943323396 981.616210938 552.943323396 981.616210938 555.426104019 979.97265625 c 128,-1,10
 557.90781031 978.328125 557.90781031 978.328125 560.103744362 976.807617188 c 128,-1,11
 562.299678413 975.286132812 562.299678413 975.286132812 564.20017124 973.916992188 c 128,-1,12
 566.099589734 972.547851562 566.099589734 972.547851562 567.426389418 971.529296875 c 0,13,14
 574.27955151 976.15234375 574.27955151 976.15234375 585.355911623 983.056640625 c 0,15,16
 606.334387271 996.131835938 606.334387271 996.131835938 629.686061706 1005.92871094 c 0,17,18
 641.698164754 1010.96875 641.698164754 1010.96875 656.162967137 1015.39550781 c 128,-1,19
 670.62776952 1019.82324219 670.62776952 1019.82324219 687.865422092 1023.80664062 c 0,20,21
 723.320517772 1032 723.320517772 1032 760.52140251 1032 c 0,22,23
 829.713867188 1032 829.713867188 1032 882.325195312 1013.05371094 c 0,24,25
 934.9375 994.931640625 934.9375 994.931640625 973.352539062 958.447265625 c 128,-1,26
 1011.83691406 921.8984375 1011.83691406 921.8984375 1030.91796875 871.18359375 c 128,-1,27
 1050 820.467773438 1050 820.467773438 1050 757.126953125 c 2,28,-1
 1050 22.5 l 1,29,-1
 1050 0 l 1,30,-1
 1027.5 0 l 1,31,-1
 870.5 0 l 1,32,-1
 848 0 l 1,33,-1
 848 22.5 l 1,34,-1
 848 750.84375 l 2,35,36
 848 798.94921875 848 798.94921875 824.862304688 824.741210938 c 0,37,38
 802.986512713 849 802.986512713 849 760.52140251 849 c 0,39,40
 733.961773536 849 733.961773536 849 709.675430497 839.51953125 c 0,41,42
 684.628460596 829.7421875 684.628460596 829.7421875 674.61354023 821.108398438 c 2,43,-1
 668.661742458 815.978515625 l 1,44,-1
 668.661742458 22.5 l 1,45,-1
 668.661742458 0 l 1,46,-1
 643.90913945 0 l 1,47,-1
 470.09086055 0 l 1,48,-1
 445.338257542 0 l 1,49,-1
 445.338257542 22.5 l 1,50,-1
 445.338257542 750.84375 l 2,51,52
 445.338257542 775.251953125 445.338257542 775.251953125 438.91375381 793.448242188 c 128,-1,53
 432.489250078 811.64453125 432.489250078 811.64453125 420.180631473 824.529296875 c 0,54,55
 408.324306525 836.939453125 408.324306525 836.939453125 392.274864844 842.969726562 c 128,-1,56
 376.226497494 849 376.226497494 849 353.47859749 849 c 0,57,58
 326.918968516 849 326.918968516 849 303.28125 839.51953125 c 0,59,60
 291.752929688 834.569335938 291.752929688 834.569335938 283.569335938 829.724609375 c 128,-1,61
 275.385742188 824.879882812 275.385742188 824.879882812 271.41015625 821.108398438 c 2,62,-1
 266 815.978515625 l 1,63,-1
 266 22.5 l 1,64,-1
 266 0 l 1,65,-1
 243.5 0 l 1,66,-1
 86.5 0 l 1,67,-1
 64 0 l 1,68,-1
 64 22.5 l 1,69,-1
 64 917.681640625 l 1,70,-1
 64 926.595703125 l 1,71,-1
 70.58984375 932.8984375 l 2,72,73
 73.0078125 935.209960938 73.0078125 935.209960938 76.1083984375 937.916992188 c 128,-1,74
 79.2080078125 940.624023438 79.2080078125 940.624023438 83.263671875 943.985351562 c 0,75,76
 92.103515625 951.311523438 92.103515625 951.311523438 120.107421875 967.98828125 c 128,-1,77
 147.98046875 984.586914062 147.98046875 984.586914062 177.962890625 997.163085938 c 0,78,79
 193.385742188 1003.6328125 193.385742188 1003.6328125 212.379882812 1009.39453125 c 0,80,81
 231.374023438 1015.41992188 231.374023438 1015.41992188 254.27734375 1020.88574219 c 0,0,1
EndSplineSet
EndChar

StartChar: n
Encoding: 110 110 81
Width: 1024
GlyphClass: 2
Flags: W
LayerCount: 2
Fore
SplineSet
986 0 m 1,0,-1
 963.5 0 l 1,1,-1
 793.5 0 l 1,2,-1
 771 0 l 1,3,-1
 771 22.5 l 1,4,-1
 771 646.08984375 l 2,5,6
 771 751.634765625 771 751.634765625 721.120037357 794.615234375 c 0,7,8
 666.424490831 838 666.424490831 838 557 838 c 0,9,10
 492.350801372 838 492.350801372 838 433.918043113 828.01171875 c 0,11,12
 375.792544443 818.077148438 375.792544443 818.077148438 353.875 808.665039062 c 2,13,-1
 343 803.94140625 l 1,14,-1
 343 22.5 l 1,15,-1
 343 0 l 1,16,-1
 320.5 0 l 1,17,-1
 150.5 0 l 1,18,-1
 128 0 l 1,19,-1
 128 22.5 l 1,20,-1
 128 917.419921875 l 1,21,-1
 128 928.93359375 l 1,22,-1
 138.01953125 935.319335938 l 2,23,24
 140.232421875 936.73046875 140.232421875 936.73046875 143.014648438 938.428710938 c 128,-1,25
 145.796875 940.126953125 145.796875 940.126953125 149.069335938 942.067382812 c 128,-1,26
 152.340820312 944.008789062 152.340820312 944.008789062 156.30078125 946.313476562 c 0,27,28
 168.805664062 953.590820312 168.805664062 953.590820312 207.868164062 971.282226562 c 128,-1,29
 247.059570312 989.03125 247.059570312 989.03125 289.807617188 1002.81933594 c 0,30,31
 332.9921875 1017.38769531 332.9921875 1017.38769531 403.38356488 1028.68457031 c 0,32,33
 479.606208007 1040 479.606208007 1040 557 1040 c 0,34,35
 776.119140625 1040 776.119140625 1040 880.533203125 950.211914062 c 0,36,37
 986 859.517578125 986 859.517578125 986 652.631835938 c 2,38,-1
 986 22.5 l 1,39,-1
 986 0 l 1,0,-1
EndSplineSet
EndChar

StartChar: o
Encoding: 111 111 82
Width: 1024
GlyphClass: 2
Flags: W
LayerCount: 2
Fore
SplineSet
87.5498046875 379.809570312 m 128,-1,1
 80 440.791015625 80 440.791015625 80 512 c 128,-1,2
 80 583.208984375 80 583.208984375 87.5498046875 644.190429688 c 128,-1,3
 95.099609375 705.170898438 95.099609375 705.170898438 110.370117188 756.188476562 c 0,4,5
 141.388671875 859.823242188 141.388671875 859.823242188 202.690429688 921.541015625 c 128,-1,6
 263.883789062 983.150390625 263.883789062 983.150390625 348.107015418 1011.18945312 c 0,7,8
 393.055794589 1025.68066406 393.055794589 1025.68066406 445.262542891 1032.83984375 c 128,-1,9
 497.469291194 1040 497.469291194 1040 557 1040 c 0,10,11
 676.527684522 1040 676.527684522 1040 765.892984582 1011.18945312 c 0,12,13
 809.005859375 997.19921875 809.005859375 997.19921875 844.91015625 974.720703125 c 128,-1,14
 880.815429688 952.2421875 880.815429688 952.2421875 911.309570312 921.541015625 c 0,15,16
 921.646484375 911.133789062 921.646484375 911.133789062 931.1171875 899.543945312 c 128,-1,17
 940.587890625 887.955078125 940.587890625 887.955078125 949.133789062 875.264648438 c 128,-1,18
 957.6796875 862.575195312 957.6796875 862.575195312 965.358398438 848.778320312 c 128,-1,19
 973.037109375 834.982421875 973.037109375 834.982421875 979.842773438 820.065429688 c 128,-1,20
 986.649414062 805.1484375 986.649414062 805.1484375 992.583984375 789.206054688 c 128,-1,21
 998.51953125 773.264648438 998.51953125 773.264648438 1003.62988281 756.188476562 c 0,22,23
 1018.90039062 705.170898438 1018.90039062 705.170898438 1026.45019531 644.190429688 c 128,-1,24
 1034 583.208984375 1034 583.208984375 1034 512 c 0,25,26
 1034 369.274414062 1034 369.274414062 1003.62988281 267.811523438 c 0,27,28
 972.611328125 164.176757812 972.611328125 164.176757812 911.309570312 102.458984375 c 128,-1,29
 850.116210938 40.849609375 850.116210938 40.849609375 765.892984582 12.810546875 c 0,30,31
 676.527684522 -16 676.527684522 -16 557 -16 c 128,-1,32
 437.472315478 -16 437.472315478 -16 348.107015418 12.810546875 c 0,33,34
 263.883789062 40.849609375 263.883789062 40.849609375 202.690429688 102.458984375 c 128,-1,35
 141.388671875 164.176757812 141.388671875 164.176757812 110.370117188 267.811523438 c 0,36,0
 95.099609375 318.829101562 95.099609375 318.829101562 87.5498046875 379.809570312 c 128,-1,1
753.400060519 766.084960938 m 0,37,38
 686.662228393 838 686.662228393 838 557 838 c 128,-1,39
 427.337771607 838 427.337771607 838 360.599939481 766.084960938 c 0,40,41
 295 691.823242188 295 691.823242188 295 512 c 0,42,43
 295 421.465820312 295 421.465820312 311.013671875 357.706054688 c 128,-1,44
 327.163950219 293.9453125 327.163950219 293.9453125 360.599939481 257.915039062 c 0,45,46
 427.337771607 186 427.337771607 186 557 186 c 128,-1,47
 686.662228393 186 686.662228393 186 753.400060519 257.915039062 c 0,48,49
 819 332.176757812 819 332.176757812 819 512 c 128,-1,50
 819 691.823242188 819 691.823242188 753.400060519 766.084960938 c 0,37,38
EndSplineSet
EndChar

StartChar: p
Encoding: 112 112 83
Width: 1024
GlyphClass: 2
Flags: W
LayerCount: 2
Fore
SplineSet
190.58984375 963.572265625 m 128,-1,1
 253.180664062 1024 253.180664062 1024 451.5 1024 c 2,2,-1
 579.5 1024 l 2,3,4
 700.072556041 1024 700.072556041 1024 797.112573886 997.90234375 c 0,5,6
 875.297851562 971.8046875 875.297851562 971.8046875 932.447265625 919.338867188 c 0,7,8
 961.12890625 893.0078125 961.12890625 893.0078125 982.694335938 861.75 c 128,-1,9
 1004.26074219 830.493164062 1004.26074219 830.493164062 1018.50488281 794.763671875 c 128,-1,10
 1032.74902344 759.033203125 1032.74902344 759.033203125 1039.875 718.967773438 c 128,-1,11
 1047 678.901367188 1047 678.901367188 1047 634.583984375 c 0,12,13
 1047 448.689453125 1047 448.689453125 920.346679688 340.546875 c 0,14,15
 793.306213516 233.5 793.306213516 233.5 521.632511556 233.5 c 2,16,-1
 343 233.5 l 1,17,-1
 343 -233.5 l 1,18,-1
 343 -256 l 1,19,-1
 320.5 -256 l 1,20,-1
 150.5 -256 l 1,21,-1
 128 -256 l 1,22,-1
 128 -233.5 l 1,23,-1
 128 755.122070312 l 2,24,0
 128 903.14453125 128 903.14453125 190.58984375 963.572265625 c 128,-1,1
579.5 867 m 2,25,-1
 451.5 867 l 2,26,27
 380.894434011 867 380.894434011 867 360.4921875 847.220703125 c 0,28,29
 343 825.95703125 343 825.95703125 343 786.291992188 c 2,30,-1
 343 435.5 l 1,31,-1
 521.632511556 435.5 l 2,32,33
 543.584217722 435.5 543.584217722 435.5 564.105958131 436.774414062 c 128,-1,34
 584.62769854 438.048828125 584.62769854 438.048828125 603.521554055 440.559570312 c 128,-1,35
 622.416646565 443.069335938 622.416646565 443.069335938 639.942386053 446.827148438 c 128,-1,36
 657.469362536 450.5859375 657.469362536 450.5859375 673.448858775 455.51953125 c 128,-1,37
 689.427118019 460.453125 689.427118019 460.453125 704.10034796 466.610351562 c 128,-1,38
 718.772340907 472.767578125 718.772340907 472.767578125 731.976021264 480.041015625 c 128,-1,39
 745.180938616 487.313476562 745.180938616 487.313476562 757.140202406 495.784179688 c 0,40,41
 798.949158191 525.379882812 798.949158191 525.379882812 815.70703125 565.255859375 c 0,42,43
 832 605.130859375 832 605.130859375 832 657.580078125 c 0,44,45
 832 756.124023438 832 756.124023438 771.359961799 811.362304688 c 0,46,47
 702.391871645 867 702.391871645 867 579.5 867 c 2,25,-1
EndSplineSet
EndChar

StartChar: q
Encoding: 113 113 84
Width: 1024
GlyphClass: 2
Flags: W
LayerCount: 2
Fore
SplineSet
238.653320312 916.953125 m 0,0,1
 365.300300268 1024 365.300300268 1024 623.5 1024 c 2,2,-1
 707.5 1024 l 2,3,4
 905.819335938 1024 905.819335938 1024 968.41015625 963.572265625 c 128,-1,5
 1031 903.14453125 1031 903.14453125 1031 755.122070312 c 2,6,-1
 1031 -233.5 l 1,7,-1
 1031 -256 l 1,8,-1
 1008.5 -256 l 1,9,-1
 838.5 -256 l 1,10,-1
 816 -256 l 1,11,-1
 816 -233.5 l 1,12,-1
 816 233.5 l 1,13,-1
 581.633459761 233.5 l 2,14,15
 340.556640625 233.5 340.556640625 233.5 226.552734375 338.161132812 c 0,16,17
 112 443.327148438 112 443.327148438 112 622.916015625 c 0,18,19
 112 808.810546875 112 808.810546875 238.653320312 916.953125 c 0,0,1
707.5 867 m 2,20,-1
 623.5 867 l 2,21,22
 575.019956754 867 575.019956754 867 533.835961921 860.094726562 c 128,-1,23
 492.651967087 853.190429688 492.651967087 853.190429688 459.481163678 839.87890625 c 128,-1,24
 426.311535913 826.56640625 426.311535913 826.56640625 399.672612133 806.715820312 c 0,25,26
 359.958172652 777.120117188 359.958172652 777.120117188 343.29296875 737.244140625 c 0,27,28
 327 697.369140625 327 697.369140625 327 644.919921875 c 0,29,30
 327 546.375976562 327 546.375976562 387.927527418 491.137695312 c 0,31,32
 457.559190429 435.5 457.559190429 435.5 581.633459761 435.5 c 2,33,-1
 816 435.5 l 1,34,-1
 816 786.291992188 l 2,35,36
 816 825.95703125 816 825.95703125 798.5078125 847.220703125 c 0,37,38
 778.105565989 867 778.105565989 867 707.5 867 c 2,20,-1
EndSplineSet
EndChar

StartChar: r
Encoding: 114 114 85
Width: 1024
GlyphClass: 2
Flags: W
LayerCount: 2
Fore
SplineSet
1018 613 m 1,0,-1
 995.5 613 l 1,1,-1
 825.5 613 l 1,2,-1
 803 613 l 1,3,-1
 803 635.5 l 2,4,5
 803 746.869140625 803 746.869140625 753.120037357 792.220703125 c 0,6,7
 698.424490831 838 698.424490831 838 589 838 c 0,8,9
 524.350801372 838 524.350801372 838 465.918043113 828.01171875 c 0,10,11
 407.792544443 818.077148438 407.792544443 818.077148438 385.875 808.665039062 c 2,12,-1
 375 803.94140625 l 1,13,-1
 375 22.5 l 1,14,-1
 375 0 l 1,15,-1
 352.5 0 l 1,16,-1
 182.5 0 l 1,17,-1
 160 0 l 1,18,-1
 160 22.5 l 1,19,-1
 160 917.419921875 l 1,20,-1
 160 928.93359375 l 1,21,-1
 170.01953125 935.319335938 l 2,22,23
 172.232421875 936.73046875 172.232421875 936.73046875 175.014648438 938.428710938 c 128,-1,24
 177.796875 940.126953125 177.796875 940.126953125 181.069335938 942.067382812 c 128,-1,25
 184.340820312 944.008789062 184.340820312 944.008789062 188.30078125 946.313476562 c 0,26,27
 200.805664062 953.590820312 200.805664062 953.590820312 239.868164062 971.282226562 c 128,-1,28
 279.059570312 989.03125 279.059570312 989.03125 321.807617188 1002.81933594 c 0,29,30
 364.9921875 1017.38769531 364.9921875 1017.38769531 435.38356488 1028.68457031 c 0,31,32
 511.606208007 1040 511.606208007 1040 589 1040 c 0,33,34
 808.119140625 1040 808.119140625 1040 912.533203125 946.241210938 c 0,35,36
 1018 851.536132812 1018 851.536132812 1018 635.5 c 2,37,-1
 1018 613 l 1,0,-1
EndSplineSet
EndChar

StartChar: s
Encoding: 115 115 86
Width: 1024
GlyphClass: 2
Flags: W
LayerCount: 2
Fore
SplineSet
280.56640625 959.665039062 m 0,0,1
 413.915879875 1032 413.915879875 1032 697.965040763 1032 c 0,2,3
 710.640023976 1032 710.640023976 1032 723.10625869 1031.83789062 c 0,4,5
 734.047851562 1031.67480469 734.047851562 1031.67480469 744.668945312 1031.34960938 c 128,-1,6
 755.290039062 1031.02441406 755.290039062 1031.02441406 765.731445312 1030.53515625 c 128,-1,7
 776.172851562 1030.046875 776.172851562 1030.046875 786.4453125 1029.39453125 c 128,-1,8
 796.71875 1028.7421875 796.71875 1028.7421875 806.8125 1027.92675781 c 0,9,10
 857.33984375 1023.84375 857.33984375 1023.84375 881.440429688 1019.65234375 c 2,11,-1
 903.525390625 1015.63671875 l 1,12,-1
 922 1012.27832031 l 1,13,-1
 922 997.940429688 l 1,14,-1
 922 884.178710938 l 1,15,-1
 922 867 l 1,16,-1
 899.5 867 l 1,17,-1
 697.965040763 867 l 2,18,19
 521.408945026 867 521.408945026 867 431.762184024 837.012695312 c 0,20,21
 359 811.07421875 359 811.07421875 359 753.5 c 0,22,23
 359 735.692382812 359 735.692382812 364.90625 721.499023438 c 128,-1,24
 370.811523438 707.305664062 370.811523438 707.305664062 383.280273438 695.0390625 c 0,25,26
 397.935900149 681.702148438 397.935900149 681.702148438 418.846857944 670.977539062 c 128,-1,27
 439.757815739 660.251953125 439.757815739 660.251953125 466.219226879 652.236328125 c 0,28,29
 522.841975266 635.084960938 522.841975266 635.084960938 591.565366401 620.338867188 c 0,30,31
 626.955571467 612.745117188 626.955571467 612.745117188 662.337877941 604.013671875 c 128,-1,32
 697.720184415 595.282226562 697.720184415 595.282226562 731.90234375 585.415039062 c 0,33,34
 794.619140625 565.201171875 794.619140625 565.201171875 846.641601562 535.547851562 c 0,35,36
 874.092773438 519.900390625 874.092773438 519.900390625 896.456054688 497.952148438 c 128,-1,37
 918.818359375 476.00390625 918.818359375 476.00390625 935.7265625 448.186523438 c 0,38,39
 970 391.801757812 970 391.801757812 970 314.5 c 0,40,41
 970 138.969726562 970 138.969726562 828.048828125 63.6259765625 c 0,42,43
 688.261056463 -8 688.261056463 -8 392.925936161 -8 c 0,44,45
 333.64453125 -8 333.64453125 -8 280.291015625 -3.9345703125 c 0,46,47
 266.920898438 -2.916015625 266.920898438 -2.916015625 255.583007812 -1.9150390625 c 128,-1,48
 244.244140625 -0.9130859375 244.244140625 -0.9130859375 234.529296875 0.1123046875 c 128,-1,49
 224.813476562 1.138671875 224.813476562 1.138671875 216.877929688 2.1884765625 c 128,-1,50
 208.942382812 3.2373046875 208.942382812 3.2373046875 202.72265625 4.3193359375 c 2,51,-1
 178.80078125 8.3056640625 l 1,52,-1
 160 11.439453125 l 1,53,-1
 160 25.9990234375 l 1,54,-1
 160 139.813476562 l 1,55,-1
 160 157 l 1,56,-1
 182.5 157 l 1,57,-1
 392.925936161 157 l 2,58,59
 581.368284294 157 581.368284294 157 677.06198156 186.680664062 c 0,60,61
 706.809206918 195.907226562 706.809206918 195.907226562 725.13671875 208.252929688 c 0,62,63
 741.118164062 220.598632812 741.118164062 220.598632812 748.059570312 235.461914062 c 128,-1,64
 755 250.326171875 755 250.326171875 755 269.5 c 0,65,66
 755 275.842773438 755 275.842773438 754.247070312 281.702148438 c 128,-1,67
 753.495117188 287.5625 753.495117188 287.5625 751.984375 293.022460938 c 128,-1,68
 750.473632812 298.482421875 750.473632812 298.482421875 748.16796875 303.609375 c 128,-1,69
 745.862304688 308.736328125 745.862304688 308.736328125 742.791015625 313.544921875 c 128,-1,70
 739.720703125 318.353515625 739.720703125 318.353515625 735.8125 322.979492188 c 0,71,72
 728.8828125 331.181640625 728.8828125 331.181640625 720.008882306 338.142578125 c 0,73,74
 710.413221552 345.102539062 710.413221552 345.102539062 698.823730536 351.012695312 c 128,-1,75
 687.23536789 356.922851562 687.23536789 356.922851562 673.761498528 361.645507812 c 0,76,77
 628.402142149 377.43359375 628.402142149 377.43359375 571.393491131 392.47265625 c 0,78,79
 513.365921761 407.735351562 513.365921761 407.735351562 453.045504007 419.555664062 c 0,80,81
 431.882919643 423.702148438 431.882919643 423.702148438 410.98211718 428.9453125 c 128,-1,82
 390.080186347 434.1875 390.080186347 434.1875 372.197265625 440.517578125 c 128,-1,83
 354.358398438 446.84765625 354.358398438 446.84765625 336.759765625 454.266601562 c 0,84,85
 283.583007812 476.684570312 283.583007812 476.684570312 242.14453125 505.534179688 c 0,86,87
 220.075195312 520.899414062 220.075195312 520.899414062 202.2421875 541.795898438 c 128,-1,88
 184.41015625 562.693359375 184.41015625 562.693359375 171.002929688 588.685546875 c 0,89,90
 161.950195312 606.23828125 161.950195312 606.23828125 155.926757812 625.579101562 c 128,-1,91
 149.903320312 644.919921875 149.903320312 644.919921875 146.951171875 665.59375 c 128,-1,92
 144 686.268554688 144 686.268554688 144 708.5 c 0,93,94
 144 794.612304688 144 794.612304688 178.3828125 858.290039062 c 128,-1,95
 212.765625 921.967773438 212.765625 921.967773438 280.56640625 959.665039062 c 0,0,1
EndSplineSet
EndChar

StartChar: t
Encoding: 116 116 87
Width: 1024
GlyphClass: 2
Flags: W
LayerCount: 2
Fore
SplineSet
954 13.140625 m 1,0,-1
 937.208984375 8.736328125 l 2,1,2
 904.840820312 0.24609375 904.840820312 0.24609375 863.58984375 -3.876953125 c 128,-1,3
 822.338867188 -8 822.338867188 -8 771.4202357 -8 c 0,4,5
 565.453589843 -8 565.453589843 -8 456.694399095 68.255859375 c 0,6,7
 345.475136533 146.23828125 345.475136533 146.23828125 345.475136533 324.670898438 c 2,8,-1
 345.475136533 741.353515625 l 1,9,-1
 86.5 741.353515625 l 1,10,-1
 64 741.353515625 l 1,11,-1
 64 763.081054688 l 1,12,-1
 64 914.690429688 l 1,13,-1
 64 936.416992188 l 1,14,-1
 86.5 936.416992188 l 1,15,-1
 345.475136533 936.416992188 l 1,16,-1
 345.475136533 1257.5 l 1,17,-1
 345.475136533 1280 l 1,18,-1
 370.400402414 1280 l 1,19,-1
 558.724633515 1280 l 1,20,-1
 583.649899396 1280 l 1,21,-1
 583.649899396 1257.5 l 1,22,-1
 583.649899396 925 l 1,23,-1
 995.5 925 l 1,24,-1
 1018 925 l 1,25,-1
 1018 902.5 l 1,26,-1
 1018 745.5 l 1,27,-1
 1018 723 l 1,28,-1
 995.5 723 l 1,29,-1
 583.649899396 723 l 1,30,-1
 583.649899396 291.5 l 2,31,32
 583.649899396 253.143554688 583.649899396 253.143554688 594.911705725 228.047851562 c 128,-1,33
 606.172430229 202.952148438 606.172430229 202.952148438 627.763509068 188.6328125 c 0,34,35
 650.834525569 173.331054688 650.834525569 173.331054688 686.743568554 165.166015625 c 128,-1,36
 722.651529714 157 722.651529714 157 771.4202357 157 c 2,37,-1
 931.5 157 l 1,38,-1
 954 157 l 1,39,-1
 954 139.861328125 l 1,40,-1
 954 26.36328125 l 1,41,-1
 954 13.140625 l 1,0,-1
EndSplineSet
EndChar

StartChar: u
Encoding: 117 117 88
Width: 1024
GlyphClass: 2
Flags: W
LayerCount: 2
Fore
SplineSet
128 1024 m 1,0,-1
 150.5 1024 l 1,1,-1
 320.5 1024 l 1,2,-1
 343 1024 l 1,3,-1
 343 1001.5 l 1,4,-1
 343 377.91015625 l 2,5,6
 343 324.001953125 343 324.001953125 355.283203125 287.076171875 c 128,-1,7
 367.567382812 250.150390625 367.567382812 250.150390625 392.879962643 229.384765625 c 0,8,9
 447.575509169 186 447.575509169 186 557 186 c 0,10,11
 578.600571721 186 578.600571721 186 599.500903293 187.115234375 c 128,-1,12
 620.401234865 188.229492188 620.401234865 188.229492188 640.522284872 190.447265625 c 128,-1,13
 660.64222162 192.665039062 660.64222162 192.665039062 680.081956887 195.98828125 c 0,14,15
 709.038946581 200.9375 709.038946581 200.9375 730.203120626 205.9375 c 0,16,17
 750.000976562 210.9375 750.000976562 210.9375 760.125 215.334960938 c 2,18,-1
 771 220.05859375 l 1,19,-1
 771 1001.5 l 1,20,-1
 771 1024 l 1,21,-1
 793.5 1024 l 1,22,-1
 963.5 1024 l 1,23,-1
 986 1024 l 1,24,-1
 986 1001.5 l 1,25,-1
 986 106.580078125 l 1,26,-1
 986 95.06640625 l 1,27,-1
 975.98046875 88.6806640625 l 2,28,29
 969.594726562 84.6103515625 969.594726562 84.6103515625 957.69921875 77.6865234375 c 0,30,31
 954.194335938 75.6474609375 954.194335938 75.6474609375 949.328125 73.1298828125 c 128,-1,32
 944.4609375 70.61328125 944.4609375 70.61328125 937.953125 67.4794921875 c 128,-1,33
 931.446289062 64.345703125 931.446289062 64.345703125 923.752929688 60.7802734375 c 128,-1,34
 916.060546875 57.21484375 916.060546875 57.21484375 906.131835938 52.7177734375 c 0,35,36
 866.940429688 34.96875 866.940429688 34.96875 824.192382812 21.1806640625 c 0,37,38
 781.0078125 6.6123046875 781.0078125 6.6123046875 710.61643512 -4.6845703125 c 0,39,40
 634.393791993 -16 634.393791993 -16 557 -16 c 0,41,42
 337.880859375 -16 337.880859375 -16 233.466796875 73.7880859375 c 0,43,44
 179.984375 119.779296875 179.984375 119.779296875 153.9921875 194.473632812 c 128,-1,45
 128 269.168945312 128 269.168945312 128 371.368164062 c 2,46,-1
 128 1001.5 l 1,47,-1
 128 1024 l 1,0,-1
EndSplineSet
EndChar

StartChar: v
Encoding: 118 118 89
Width: 1024
GlyphClass: 2
Flags: W
LayerCount: 2
Fore
SplineSet
64 1024 m 1,0,-1
 95.3525390625 1024 l 1,1,-1
 274.352539062 1024 l 1,2,-1
 290.5078125 1024 l 1,3,-1
 295.671875 1008.69140625 l 1,4,-1
 542.083602075 338.69140625 l 1,5,-1
 542.427273255 337.763671875 l 1,6,-1
 542.679941164 336.811523438 l 1,7,-1
 565.852586095 249.810546875 l 1,8,-1
 589.024160399 336.811523438 l 1,9,-1
 589.277898934 337.763671875 l 1,10,-1
 589.620499487 338.69140625 l 1,11,-1
 836.032226562 1008.69140625 l 1,12,-1
 841.196289062 1024 l 1,13,-1
 857.352539062 1024 l 1,14,-1
 1036.35253906 1024 l 1,15,-1
 1067.70410156 1024 l 1,16,-1
 1057.66796875 995.56640625 l 1,17,-1
 701.045976349 15.2978515625 l 1,18,-1
 695.379149071 0 l 1,19,-1
 677.677406727 0 l 1,20,-1
 454.027765463 0 l 1,21,-1
 436.324952492 0 l 1,22,-1
 430.658125213 15.2978515625 l 1,23,-1
 74.0361328125 995.56640625 l 1,24,-1
 64 1024 l 1,0,-1
EndSplineSet
EndChar

StartChar: w
Encoding: 119 119 90
Width: 1024
GlyphClass: 2
Flags: W
LayerCount: 2
Fore
SplineSet
32 1024 m 1,0,-1
 57.33984375 1024 l 1,1,-1
 215.33984375 1024 l 1,2,-1
 235.313476562 1024 l 1,3,-1
 237.680664062 1004.16796875 l 1,4,-1
 321.183377032 333.846679688 l 1,5,-1
 325.096056476 294.014648438 l 1,6,-1
 336.100799039 336.694335938 l 1,7,-1
 336.321530616 337.547851562 l 1,8,-1
 336.612302021 338.381835938 l 1,9,-1
 481.140546883 752.381835938 l 1,10,-1
 486.593041318 768 l 1,11,-1
 504.419238577 768 l 1,12,-1
 615.260448923 768 l 1,13,-1
 633.086646182 768 l 1,14,-1
 638.539140617 752.381835938 l 1,15,-1
 783.067385479 338.381835938 l 1,16,-1
 783.358156884 337.547851562 l 1,17,-1
 783.577827251 336.694335938 l 1,18,-1
 794.583631024 294.014648438 l 1,19,-1
 798.496310468 333.846679688 l 1,20,-1
 881.998046875 1004.16796875 l 1,21,-1
 884.366210938 1024 l 1,22,-1
 904.33984375 1024 l 1,23,-1
 1062.33984375 1024 l 1,24,-1
 1087.6796875 1024 l 1,25,-1
 1084.68164062 999.916992188 l 1,26,-1
 962.681640625 19.837890625 l 1,27,-1
 960.318359375 -0 l 1,28,-1
 940.33984375 0 l 1,29,-1
 727.188337801 0 l 1,30,-1
 708.774230475 0 l 1,31,-1
 703.688914529 16.287109375 l 1,32,-1
 559.83984375 477.020507812 l 1,33,-1
 415.990772971 16.287109375 l 1,34,-1
 410.905457025 0 l 1,35,-1
 392.491349699 0 l 1,36,-1
 179.33984375 0 l 1,37,-1
 159.361328125 0 l 1,38,-1
 156.998046875 19.837890625 l 1,39,-1
 34.998046875 999.916992188 l 1,40,-1
 32 1024 l 1,0,-1
EndSplineSet
EndChar

StartChar: x
Encoding: 120 120 91
Width: 1024
GlyphClass: 2
Flags: W
LayerCount: 2
Fore
SplineSet
64 1024 m 1,0,-1
 106.291992188 1024 l 1,1,-1
 311.432954338 1024 l 1,2,-1
 324.961536611 1024 l 1,3,-1
 332.196118208 1013.53125 l 1,4,-1
 576.79194726 659.577148438 l 1,5,-1
 821.38884273 1013.53125 l 1,6,-1
 828.623424327 1024 l 1,7,-1
 842.150940182 1024 l 1,8,-1
 1047.29199219 1024 l 1,9,-1
 1089.58496094 1024 l 1,10,-1
 1065.95214844 990.403320312 l 1,11,-1
 718.897514879 512 l 1,12,-1
 1065.95214844 33.5966796875 l 1,13,-1
 1089.58496094 -0 l 1,14,-1
 1047.29199219 0 l 1,15,-1
 842.150940182 0 l 1,16,-1
 828.623424327 0 l 1,17,-1
 821.38884273 10.46875 l 1,18,-1
 576.79194726 364.422851562 l 1,19,-1
 332.196118208 10.46875 l 1,20,-1
 324.961536611 -0 l 1,21,-1
 311.432954338 0 l 1,22,-1
 106.291992188 0 l 1,23,-1
 64 0 l 1,24,-1
 87.6328125 33.5966796875 l 1,25,-1
 434.687446059 512 l 1,26,-1
 87.6328125 990.403320312 l 1,27,-1
 64 1024 l 1,0,-1
EndSplineSet
EndChar

StartChar: y
Encoding: 121 121 92
Width: 1024
GlyphClass: 2
Flags: W
LayerCount: 2
Fore
SplineSet
128 1024 m 1,0,-1
 150.5 1024 l 1,1,-1
 320.5 1024 l 1,2,-1
 343 1024 l 1,3,-1
 343 1001.5 l 1,4,-1
 343 561.010742188 l 2,5,6
 343 503.873046875 343 503.873046875 393.484462486 470.912109375 c 0,7,8
 452.350278643 435.5 452.350278643 435.5 557 435.5 c 2,9,-1
 771 435.5 l 1,10,-1
 771 1001.5 l 1,11,-1
 771 1024 l 1,12,-1
 793.5 1024 l 1,13,-1
 963.5 1024 l 1,14,-1
 986 1024 l 1,15,-1
 986 1001.5 l 1,16,-1
 986 130.90625 l 2,17,18
 986 -79.521484375 986 -79.521484375 854.17578125 -171.23828125 c 0,19,20
 723.752895787 -264 723.752895787 -264 447.562150056 -264 c 0,21,22
 386.076834581 -264 386.076834581 -264 335.631835938 -259.921875 c 0,23,24
 310.9765625 -257.868164062 310.9765625 -257.868164062 293.379882812 -255.830078125 c 128,-1,25
 275.782226562 -253.791992188 275.782226562 -253.791992188 264.3828125 -251.620117188 c 2,26,-1
 242.474609375 -247.63671875 l 1,27,-1
 224 -244.278320312 l 1,28,-1
 224 -225.5 l 1,29,-1
 224 -76.5 l 1,30,-1
 224 -54 l 1,31,-1
 246.5 -54 l 1,32,-1
 447.562150056 -54 l 2,33,34
 531.069962556 -54 531.069962556 -54 593.605081624 -42.0009765625 c 128,-1,35
 656.139087434 -30.0009765625 656.139087434 -30.0009765625 697.082540856 -7.0419921875 c 0,36,37
 736.186889785 13.009765625 736.186889785 13.009765625 753.841796875 46.4736328125 c 0,38,39
 771 79.9384765625 771 79.9384765625 771 129.708984375 c 2,40,-1
 771 233.5 l 1,41,-1
 557 233.5 l 2,42,43
 451.891615779 233.5 451.891615779 233.5 368.3125 254.73046875 c 0,44,45
 294.326171875 275.9609375 294.326171875 275.9609375 239.381835938 318.9765625 c 0,46,47
 128 406.17578125 128 406.17578125 128 556.536132812 c 2,48,-1
 128 1001.5 l 1,49,-1
 128 1024 l 1,0,-1
EndSplineSet
EndChar

StartChar: z
Encoding: 122 122 93
Width: 1024
GlyphClass: 2
Flags: W
LayerCount: 2
Fore
SplineSet
160 1024 m 1,0,-1
 182.5 1024 l 1,1,-1
 931.5 1024 l 1,2,-1
 954 1024 l 1,3,-1
 954 1001.5 l 1,4,-1
 954 844.5 l 1,5,-1
 954 836.926757812 l 1,6,-1
 949.420898438 830.895507812 l 1,7,-1
 395.499461961 157 l 1,8,-1
 963.5 157 l 1,9,-1
 986 157 l 1,10,-1
 986 140.140625 l 1,11,-1
 986 22.5 l 1,12,-1
 986 0 l 1,13,-1
 963.5 0 l 1,14,-1
 150.5 0 l 1,15,-1
 128 0 l 1,16,-1
 128 22.5 l 1,17,-1
 128 179.5 l 1,18,-1
 128 187.073242188 l 1,19,-1
 132.579101562 193.104492188 l 1,20,-1
 682.021254724 867 l 1,21,-1
 182.5 867 l 1,22,-1
 160 867 l 1,23,-1
 160 883.859375 l 1,24,-1
 160 1001.5 l 1,25,-1
 160 1024 l 1,0,-1
EndSplineSet
EndChar

StartChar: braceleft
Encoding: 123 123 94
Width: 1024
GlyphClass: 2
Flags: W
LayerCount: 2
Fore
SplineSet
822 1257.5 m 1,0,-1
 704 1257.5 l 2,1,2
 624.319805153 1257.5 624.319805153 1257.5 579.409902577 1212.59009742 c 0,3,4
 534.789917303 1167.97011215 534.789917303 1167.97011215 534.499702702 1088.43722328 c 2,5,-1
 550.483613364 669.858562802 l 1,6,-1
 551.283295476 648.916887489 l 1,7,-1
 530.45107892 646.633904853 l 1,8,-1
 404.5 632.831046889 l 1,9,-1
 404.5 548.168953111 l 1,10,-1
 530.45107892 534.366095147 l 1,11,-1
 551.283295476 532.083112511 l 1,12,-1
 550.483613364 511.141437198 l 1,13,-1
 534.485369085 92.187415143 l 2,14,15
 533.123060694 52.226368997 533.123060694 52.226368997 543.859385711 21.8667739487 c 128,-1,16
 554.595710728 -8.4928210995 554.595710728 -8.4928210995 577.333597401 -31.0141564704 c 0,17,18
 623.25680481 -76.5 623.25680481 -76.5 704 -76.5 c 2,19,-1
 822 -76.5 l 1,20,-1
 844.5 -76.5 l 1,21,-1
 844.5 -99 l 1,22,-1
 844.5 -256 l 1,23,-1
 844.5 -278.5 l 1,24,-1
 822 -278.5 l 1,25,-1
 704 -278.5 l 2,26,27
 526.921412443 -278.5 526.921412443 -278.5 423.385040586 -178.699476612 c 0,28,29
 319.5 -78.5628653254 319.5 -78.5628653254 319.5 93 c 2,30,-1
 319.5 94.0715497874 l 1,31,-1
 319.60183294 95.1382498386 l 1,32,-1
 357.249732717 489.5 l 1,33,-1
 64 489.5 l 1,34,-1
 41.5 489.5 l 1,35,-1
 41.5 512 l 1,36,-1
 41.5 669 l 1,37,-1
 41.5 691.5 l 1,38,-1
 64 691.5 l 1,39,-1
 357.249732717 691.5 l 1,40,-1
 319.600715708 1085.87348567 l 2,41,42
 303.553234658 1254.90695273 303.553234658 1254.90695273 414.162150911 1357.96208934 c 0,43,44
 523.142630943 1459.5 523.142630943 1459.5 704 1459.5 c 2,45,-1
 822 1459.5 l 1,46,-1
 844.5 1459.5 l 1,47,-1
 844.5 1437 l 1,48,-1
 844.5 1280 l 1,49,-1
 844.5 1257.5 l 1,50,-1
 822 1257.5 l 1,0,-1
EndSplineSet
EndChar

StartChar: bar
Encoding: 124 124 95
Width: 1024
GlyphClass: 2
Flags: W
LayerCount: 2
Fore
SplineSet
597 -278.5 m 1,0,-1
 427 -278.5 l 1,1,-1
 404.5 -278.5 l 1,2,-1
 404.5 -256 l 1,3,-1
 404.5 1437 l 1,4,-1
 404.5 1459.5 l 1,5,-1
 427 1459.5 l 1,6,-1
 597 1459.5 l 1,7,-1
 619.5 1459.5 l 1,8,-1
 619.5 1437 l 1,9,-1
 619.5 -256 l 1,10,-1
 619.5 -278.5 l 1,11,-1
 597 -278.5 l 1,0,-1
EndSplineSet
EndChar

StartChar: braceright
Encoding: 125 125 96
Width: 1024
GlyphClass: 2
Flags: W
LayerCount: 2
Fore
SplineSet
179.5 1280 m 1,0,-1
 179.5 1437 l 1,1,-1
 179.5 1459.5 l 1,2,-1
 202 1459.5 l 1,3,-1
 320 1459.5 l 2,4,5
 500.857369057 1459.5 500.857369057 1459.5 609.837849089 1357.96208934 c 0,6,7
 646.586391666 1323.72320333 646.586391666 1323.72320333 669.444278911 1281.52391802 c 128,-1,8
 692.302166156 1239.32463271 692.302166156 1239.32463271 700.985344674 1190.35040041 c 128,-1,9
 709.668523193 1141.3761681 709.668523193 1141.3761681 704.39816706 1085.86175016 c 2,10,-1
 666.750267283 691.5 l 1,11,-1
 960 691.5 l 1,12,-1
 982.5 691.5 l 1,13,-1
 982.5 669 l 1,14,-1
 982.5 512 l 1,15,-1
 982.5 489.5 l 1,16,-1
 960 489.5 l 1,17,-1
 666.750267283 489.5 l 1,18,-1
 704.39816706 95.1382498386 l 1,19,-1
 704.5 94.0715497874 l 1,20,-1
 704.5 93 l 2,21,22
 704.5 -78.5628653254 704.5 -78.5628653254 600.614959414 -178.699476612 c 0,23,24
 497.078587557 -278.5 497.078587557 -278.5 320 -278.5 c 2,25,-1
 202 -278.5 l 1,26,-1
 179.5 -278.5 l 1,27,-1
 179.5 -256 l 1,28,-1
 179.5 -99 l 1,29,-1
 179.5 -76.5 l 1,30,-1
 202 -76.5 l 1,31,-1
 320 -76.5 l 2,32,33
 400.74319519 -76.5 400.74319519 -76.5 446.666402599 -31.0141564704 c 0,34,35
 492.177931566 14.0639293635 492.177931566 14.0639293635 489.514630915 92.187415143 c 2,36,-1
 473.516386636 511.141437198 l 1,37,-1
 472.716704524 532.083112511 l 1,38,-1
 493.54892108 534.366095147 l 1,39,-1
 619.5 548.168953111 l 1,40,-1
 619.5 632.831046889 l 1,41,-1
 493.54892108 646.633904853 l 1,42,-1
 472.716704524 648.916887489 l 1,43,-1
 473.516386636 669.858562802 l 1,44,-1
 489.500297298 1088.43722328 l 2,45,46
 489.210082697 1167.97011215 489.210082697 1167.97011215 444.590097423 1212.59009742 c 0,47,48
 399.680194847 1257.5 399.680194847 1257.5 320 1257.5 c 2,49,-1
 202 1257.5 l 1,50,-1
 179.5 1257.5 l 1,51,-1
 179.5 1280 l 1,0,-1
EndSplineSet
EndChar

StartChar: asciitilde
Encoding: 126 126 97
Width: 1024
GlyphClass: 2
Flags: W
LayerCount: 2
Fore
SplineSet
41.5 379 m 2,0,1
 41.5 586.417420663 41.5 586.417420663 67.0135318117 703.779666997 c 0,2,3
 80.1269475097 764.101379208 80.1269475097 764.101379208 101.670744083 808.673189872 c 128,-1,4
 123.214540657 853.245000535 123.214540657 853.245000535 154.195550402 881.993144712 c 0,5,6
 216.168957557 939.5 216.168957557 939.5 325 939.5 c 0,7,8
 393.161147661 939.5 393.161147661 939.5 444.047063499 920.011776913 c 0,9,10
 461.133935216 913.467868596 461.133935216 913.467868596 475.692311338 905.533964532 c 128,-1,11
 490.250687461 897.600060467 490.250687461 897.600060467 502.756151531 887.818063932 c 128,-1,12
 515.261615601 878.036067398 515.261615601 878.036067398 525.041724136 866.691141497 c 0,13,14
 538.583751054 850.982390271 538.583751054 850.982390271 550.049842855 833.0413559 c 128,-1,15
 561.515934656 815.100321529 561.515934656 815.100321529 570.88912065 795.01492297 c 0,16,17
 589.698612823 754.708868312 589.698612823 754.708868312 596.701411917 712.153396898 c 0,18,19
 603.115381733 673.176195708 603.115381733 673.176195708 611.00483882 636.194365615 c 0,20,21
 613.61950225 623.938130784 613.61950225 623.938130784 616.289533021 612.606357636 c 128,-1,22
 618.959563792 601.274584488 618.959563792 601.274584488 621.656287031 590.973368587 c 128,-1,23
 624.353010269 580.672152686 624.353010269 580.672152686 627.091642237 571.328584794 c 0,24,25
 633.839272157 548.307259185 633.839272157 548.307259185 648.761302311 534.533077504 c 0,26,27
 655.349361836 528.451791789 655.349361836 528.451791789 663.534695537 525.475895895 c 128,-1,28
 671.720029238 522.5 671.720029238 522.5 683 522.5 c 0,29,30
 697.569485229 522.5 697.569485229 522.5 709.370855522 526.373052317 c 128,-1,31
 721.172225816 530.246104634 721.172225816 530.246104634 731.33599349 538.737574632 c 128,-1,32
 741.499761164 547.22904463 741.499761164 547.22904463 749.614463208 561.059297019 c 128,-1,33
 757.729165251 574.889549408 757.729165251 574.889549408 764.106229866 594.468256558 c 0,34,35
 777.354403452 635.142473707 777.354403452 635.142473707 784.427201726 712.709308525 c 128,-1,36
 791.5 790.276143342 791.5 790.276143342 791.5 901 c 2,37,-1
 791.5 923.5 l 1,38,-1
 814 923.5 l 1,39,-1
 960 923.5 l 1,40,-1
 982.5 923.5 l 1,41,-1
 982.5 901 l 2,42,43
 982.5 693.582579337 982.5 693.582579337 956.986468188 576.220333003 c 0,44,45
 943.868798374 515.879051859 943.868798374 515.879051859 922.311682919 471.413097367 c 128,-1,46
 900.754567463 426.947142875 900.754567463 426.947142875 869.72406901 398.432630783 c 0,47,48
 807.767970805 341.5 807.767970805 341.5 699 341.5 c 0,49,50
 665.152130905 341.5 665.152130905 341.5 635.397806962 346.324645189 c 128,-1,51
 605.643483019 351.149290378 605.643483019 351.149290378 579.952936501 360.988223087 c 0,52,53
 567.172415303 365.88289078 567.172415303 365.88289078 555.791359905 371.574588358 c 128,-1,54
 544.410304506 377.266285936 544.410304506 377.266285936 534.217775621 383.891015818 c 128,-1,55
 524.025246736 390.5157457 524.025246736 390.5157457 515.168652967 398.147107768 c 128,-1,56
 506.312059198 405.778469836 506.312059198 405.778469836 498.958275864 414.308858503 c 0,57,58
 471.926674407 445.665516193 471.926674407 445.665516193 453.11087935 485.98507703 c 128,-1,59
 434.301387177 526.291131688 434.301387177 526.291131688 427.298588083 568.846603102 c 0,60,61
 420.884618267 607.823804292 420.884618267 607.823804292 412.99516118 644.805634385 c 0,62,63
 410.38049775 657.061869216 410.38049775 657.061869216 407.710466979 668.393642364 c 128,-1,64
 405.040436208 679.725415512 405.040436208 679.725415512 402.343712969 690.026631413 c 128,-1,65
 399.646989731 700.327847314 399.646989731 700.327847314 396.908357763 709.671415206 c 0,66,67
 390.160727843 732.692740815 390.160727843 732.692740815 375.238697689 746.466922496 c 0,68,69
 368.650638164 752.548208211 368.650638164 752.548208211 360.465304463 755.524104105 c 128,-1,70
 352.279970762 758.5 352.279970762 758.5 341 758.5 c 0,71,72
 311.694907051 758.5 311.694907051 758.5 292.075880144 741.66145763 c 128,-1,73
 272.456853238 724.82291526 272.456853238 724.82291526 259.905405405 686.067567568 c 0,74,75
 246.643693424 645.119123555 246.643693424 645.119123555 239.571846712 567.43328388 c 128,-1,76
 232.5 489.747444204 232.5 489.747444204 232.5 379 c 2,77,-1
 232.5 356.5 l 1,78,-1
 210 356.5 l 1,79,-1
 64 356.5 l 1,80,-1
 41.5 356.5 l 1,81,-1
 41.5 379 l 2,0,1
EndSplineSet
EndChar

StartChar: cent
Encoding: 162 162 100
Width: 1024
GlyphClass: 2
Flags: W
LayerCount: 2
Fore
SplineSet
512 1302.5 m 1,0,-1
 682 1302.5 l 1,1,-1
 704.5 1302.5 l 1,2,-1
 704.5 1280 l 1,3,-1
 704.5 1053.32227892 l 1,4,5
 724.941334743 1052.98386077 724.941334743 1052.98386077 742.869835059 1052.16753704 c 128,-1,6
 760.798335375 1051.3512133 760.798335375 1051.3512133 779.225671225 1049.93372592 c 0,7,8
 825.977081857 1046.33746357 825.977081857 1046.33746357 848.311408449 1042.08330612 c 2,9,-1
 868.412613041 1038.0630652 l 1,10,-1
 886.5 1034.44558781 l 1,11,-1
 886.5 1016 l 1,12,-1
 886.5 867 l 1,13,-1
 886.5 844.5 l 1,14,-1
 864 844.5 l 1,15,-1
 683.5 844.5 l 1,16,-1
 683.5 435.5 l 1,17,-1
 864 435.5 l 1,18,-1
 886.5 435.5 l 1,19,-1
 886.5 413 l 1,20,-1
 886.5 264 l 1,21,-1
 886.5 246.062584623 l 1,22,-1
 869.013558034 242.065683602 l 2,23,24
 803.977703886 227.200345511 803.977703886 227.200345511 704.5 225.665102239 c 1,25,-1
 704.5 0 l 1,26,-1
 704.5 -22.5 l 1,27,-1
 682 -22.5 l 1,28,-1
 512 -22.5 l 1,29,-1
 489.5 -22.5 l 1,30,-1
 489.5 0 l 1,31,-1
 489.5 234.046503413 l 1,32,33
 304.870442837 258.343647756 304.870442837 258.343647756 201.09208765 350.147577344 c 0,34,35
 89.5 448.863654881 89.5 448.863654881 89.5 640 c 0,36,37
 89.5 802.700368253 89.5 802.700368253 204.053205019 910.859906015 c 0,38,39
 311.00290488 1011.8403203 311.00290488 1011.8403203 489.5 1042.22365763 c 1,40,-1
 489.5 1280 l 1,41,-1
 489.5 1302.5 l 1,42,-1
 512 1302.5 l 1,0,-1
510.5 832.18411234 m 1,43,44
 417.156577482 813.120086193 417.156577482 813.120086193 363.216439764 766.48011749 c 0,45,46
 304.5 715.710263558 304.5 715.710263558 304.5 640 c 0,47,48
 304.5 608.940410601 304.5 608.940410601 310.854447366 583.519988827 c 128,-1,49
 317.208894733 558.099567054 317.208894733 558.099567054 329.499070922 538.40007509 c 128,-1,50
 341.789247111 518.700583126 341.789247111 518.700583126 360.350814352 503.329285255 c 0,51,52
 412.42038524 460.209171863 412.42038524 460.209171863 510.5 444.723133268 c 1,53,-1
 510.5 832.18411234 l 1,43,44
EndSplineSet
EndChar

StartChar: sterling
Encoding: 163 163 101
Width: 1024
GlyphClass: 2
Flags: W
LayerCount: 2
Fore
SplineSet
618 1310.5 m 0,0,1
 675.312533088 1310.5 675.312533088 1310.5 729.984515497 1294.04532568 c 0,2,3
 757.068950102 1285.89369973 757.068950102 1285.89369973 780.185643064 1275.79708712 c 128,-1,4
 803.302336027 1265.70047451 803.302336027 1265.70047451 822.545039134 1253.50439508 c 0,5,6
 859.194541964 1230.27583695 859.194541964 1230.27583695 887.747850281 1206.91403923 c 0,7,8
 902.211457233 1195.080179 902.211457233 1195.080179 912.897281338 1185.18876897 c 128,-1,9
 923.583105443 1175.29735895 923.583105443 1175.29735895 930.968085277 1166.77622837 c 2,10,-1
 944.932975631 1150.81635368 l 1,11,-1
 957.764411719 1136.15185529 l 1,12,-1
 945.083273553 1121.3571941 l 1,13,-1
 849.083273553 1009.3571941 l 1,14,-1
 830.829316686 988.060911085 l 1,15,-1
 814 1010.5 l 2,16,17
 811.476677684 1013.86442975 811.476677684 1013.86442975 805.496995637 1020.76406289 c 0,18,19
 800.075873325 1027.01920401 800.075873325 1027.01920401 779.82455692 1044.44475534 c 128,-1,20
 759.724079216 1061.74051522 759.724079216 1061.74051522 738.301193695 1074.7805325 c 0,21,22
 717.595170871 1087.38419857 717.595170871 1087.38419857 684.153348191 1098.06700303 c 0,23,24
 651.493531597 1108.5 651.493531597 1108.5 618 1108.5 c 0,25,26
 572.26604818 1108.5 572.26604818 1108.5 537.531440442 1095.73851378 c 128,-1,27
 502.796832704 1082.97702755 502.796832704 1082.97702755 477.409902577 1057.59009742 c 128,-1,28
 452.022667882 1032.20286273 452.022667882 1032.20286273 439.261333941 997.468581368 c 128,-1,29
 426.5 962.734300007 426.5 962.734300007 426.5 917 c 2,30,-1
 426.5 741.5 l 1,31,-1
 832 741.5 l 1,32,-1
 854.5 741.5 l 1,33,-1
 854.5 719 l 1,34,-1
 854.5 561 l 1,35,-1
 854.5 538.5 l 1,36,-1
 832 538.5 l 1,37,-1
 426.5 538.5 l 1,38,-1
 426.5 179.5 l 1,39,-1
 928 179.5 l 1,40,-1
 950.5 179.5 l 1,41,-1
 950.5 157 l 1,42,-1
 950.5 0 l 1,43,-1
 950.5 -22.5 l 1,44,-1
 928 -22.5 l 1,45,-1
 64 -22.5 l 1,46,-1
 41.5 -22.5 l 1,47,-1
 41.5 0 l 1,48,-1
 41.5 157 l 1,49,-1
 41.5 179.5 l 1,50,-1
 64 179.5 l 1,51,-1
 211.5 179.5 l 1,52,-1
 211.5 538.5 l 1,53,-1
 64 538.5 l 1,54,-1
 41.5 538.5 l 1,55,-1
 41.5 561 l 1,56,-1
 41.5 719 l 1,57,-1
 41.5 741.5 l 1,58,-1
 64 741.5 l 1,59,-1
 211.5 741.5 l 1,60,-1
 211.5 917 l 2,61,62
 211.5 1098.54841225 211.5 1098.54841225 321.367418219 1204.68247159 c 0,63,64
 430.907171243 1310.5 430.907171243 1310.5 618 1310.5 c 0,0,1
EndSplineSet
EndChar

StartChar: currency
Encoding: 164 164 102
Width: 1024
GlyphClass: 2
Flags: W
LayerCount: 2
Fore
SplineSet
215.170237981 1259.77930286 m 1,0,-1
 357.953160861 1027.40709503 l 1,1,2
 426.256792902 1054.5 426.256792902 1054.5 512 1054.5 c 0,3,4
 596.826624205 1054.5 596.826624205 1054.5 666.005620956 1027.34001446 c 1,5,-1
 808.829762019 1259.77930286 l 1,6,-1
 820.796026253 1279.25381131 l 1,7,-1
 840.079698574 1266.98238347 l 1,8,-1
 972.079698574 1182.98238347 l 1,9,-1
 991.382780498 1170.69860407 l 1,10,-1
 978.777362682 1151.60400667 l 1,11,-1
 818.465838699 908.765248444 l 1,12,13
 894.5 801.658976853 894.5 801.658976853 894.5 640 c 0,14,15
 894.5 600.032831347 894.5 600.032831347 889.689313731 562.971699254 c 128,-1,16
 884.878627461 525.910567162 884.878627461 525.910567162 875.351961496 492.194477996 c 128,-1,17
 865.825295531 458.47838883 865.825295531 458.47838883 851.564206153 428.124229013 c 128,-1,18
 837.303116774 397.770069195 837.303116774 397.770069195 818.465838699 371.234751556 c 1,19,-1
 978.777362682 128.395993333 l 1,20,-1
 991.382780498 109.301395932 l 1,21,-1
 972.079698574 97.017616526 l 1,22,-1
 840.079698574 13.017616526 l 1,23,-1
 820.796026253 0.746188685308 l 1,24,-1
 808.829762019 20.2206971444 l 1,25,-1
 666.005620956 252.659985541 l 1,26,27
 596.826624205 225.5 596.826624205 225.5 512 225.5 c 0,28,29
 469.70360072 225.5 469.70360072 225.5 431.079924935 232.315050102 c 128,-1,30
 392.456249149 239.130100204 392.456249149 239.130100204 357.994379044 252.659985541 c 1,31,-1
 215.170237981 20.2206971444 l 1,32,-1
 203.203973747 0.746188685308 l 1,33,-1
 183.920301426 13.017616526 l 1,34,-1
 51.9203014257 97.017616526 l 1,35,-1
 32.6172195024 109.301395932 l 1,36,-1
 45.2226373181 128.395993333 l 1,37,-1
 205.534161301 371.234751556 l 1,38,39
 129.5 478.341023147 129.5 478.341023147 129.5 640 c 128,-1,40
 129.5 801.658976853 129.5 801.658976853 205.534161301 908.765248444 c 1,41,-1
 45.2226373181 1151.60400667 l 1,42,-1
 32.6172195024 1170.69860407 l 1,43,-1
 51.9203014257 1182.98238347 l 1,44,-1
 183.920301426 1266.98238347 l 1,45,-1
 203.203973747 1279.25381131 l 1,46,-1
 215.170237981 1259.77930286 l 1,0,-1
512 863.5 m 0,47,48
 428.60006231 863.5 428.60006231 863.5 380.849444999 805.673564357 c 0,49,50
 331.5 745.910933716 331.5 745.910933716 331.5 640 c 0,51,52
 331.5 621.933828189 331.5 621.933828189 332.921995554 605.249024699 c 128,-1,53
 334.343991108 588.564221209 334.343991108 588.564221209 337.162948475 573.432394881 c 128,-1,54
 339.981905842 558.300568553 339.981905842 558.300568553 344.130386401 544.55008476 c 128,-1,55
 348.27886696 530.799600967 348.27886696 530.799600967 353.788652575 518.426467697 c 128,-1,56
 359.29843819 506.053334427 359.29843819 506.053334427 366.04148693 495.07322463 c 128,-1,57
 372.784535669 484.093114832 372.784535669 484.093114832 380.849444999 474.326435643 c 0,58,59
 404.947351734 445.143649505 404.947351734 445.143649505 437.17265764 430.821824753 c 128,-1,60
 469.397963545 416.5 469.397963545 416.5 512 416.5 c 0,61,62
 595.39993769 416.5 595.39993769 416.5 643.150555001 474.326435643 c 0,63,64
 692.5 534.089066284 692.5 534.089066284 692.5 640 c 0,65,66
 692.5 667.043785878 692.5 667.043785878 689.318363325 690.981340996 c 128,-1,67
 686.136726649 714.918896113 686.136726649 714.918896113 679.851817433 735.505631081 c 128,-1,68
 673.566908217 756.09236605 673.566908217 756.09236605 664.421031182 773.541464804 c 128,-1,69
 655.275154146 790.990563558 655.275154146 790.990563558 643.150555001 805.673564357 c 0,70,71
 619.052648266 834.856350495 619.052648266 834.856350495 586.82734236 849.178175247 c 128,-1,72
 554.602036455 863.5 554.602036455 863.5 512 863.5 c 0,47,48
EndSplineSet
EndChar

StartChar: yen
Encoding: 165 165 103
Width: 1024
GlyphClass: 2
Flags: W
LayerCount: 2
Fore
SplineSet
32 1302.5 m 1,0,-1
 223 1302.5 l 1,1,-1
 236.927232993 1302.5 l 1,2,-1
 243.138481235 1290.0345191 l 1,3,-1
 512 750.450848221 l 1,4,-1
 780.861518765 1290.0345191 l 1,5,-1
 787.072767007 1302.5 l 1,6,-1
 801 1302.5 l 1,7,-1
 992 1302.5 l 1,8,-1
 1028.86030843 1302.5 l 1,9,-1
 1012.01201949 1269.71559064 l 1,10,-1
 714.860308426 691.5 l 1,11,-1
 960 691.5 l 1,12,-1
 982.5 691.5 l 1,13,-1
 982.5 669 l 1,14,-1
 982.5 512 l 1,15,-1
 982.5 489.5 l 1,16,-1
 960 489.5 l 1,17,-1
 619.5 489.5 l 1,18,-1
 619.5 377.5 l 1,19,-1
 960 377.5 l 1,20,-1
 982.5 377.5 l 1,21,-1
 982.5 355 l 1,22,-1
 982.5 198 l 1,23,-1
 982.5 175.5 l 1,24,-1
 960 175.5 l 1,25,-1
 619.5 175.5 l 1,26,-1
 619.5 0 l 1,27,-1
 619.5 -22.5 l 1,28,-1
 597 -22.5 l 1,29,-1
 427 -22.5 l 1,30,-1
 404.5 -22.5 l 1,31,-1
 404.5 0 l 1,32,-1
 404.5 175.5 l 1,33,-1
 64 175.5 l 1,34,-1
 41.5 175.5 l 1,35,-1
 41.5 198 l 1,36,-1
 41.5 355 l 1,37,-1
 41.5 377.5 l 1,38,-1
 64 377.5 l 1,39,-1
 404.5 377.5 l 1,40,-1
 404.5 489.5 l 1,41,-1
 64 489.5 l 1,42,-1
 41.5 489.5 l 1,43,-1
 41.5 512 l 1,44,-1
 41.5 669 l 1,45,-1
 41.5 691.5 l 1,46,-1
 64 691.5 l 1,47,-1
 309.139691574 691.5 l 1,48,-1
 11.9879805097 1269.71559064 l 1,49,-1
 -4.86030842579 1302.5 l 1,50,-1
 32 1302.5 l 1,0,-1
EndSplineSet
EndChar

StartChar: brokenbar
Encoding: 166 166 104
Width: 1024
GlyphClass: 2
Flags: W
LayerCount: 2
Fore
SplineSet
427 1459.5 m 1,0,-1
 597 1459.5 l 1,1,-1
 619.5 1459.5 l 1,2,-1
 619.5 1437 l 1,3,-1
 619.5 733 l 1,4,-1
 619.5 710.5 l 1,5,-1
 597 710.5 l 1,6,-1
 427 710.5 l 1,7,-1
 404.5 710.5 l 1,8,-1
 404.5 733 l 1,9,-1
 404.5 1437 l 1,10,-1
 404.5 1459.5 l 1,11,-1
 427 1459.5 l 1,0,-1
427 470.5 m 1,12,-1
 597 470.5 l 1,13,-1
 619.5 470.5 l 1,14,-1
 619.5 448 l 1,15,-1
 619.5 -256 l 1,16,-1
 619.5 -278.5 l 1,17,-1
 597 -278.5 l 1,18,-1
 427 -278.5 l 1,19,-1
 404.5 -278.5 l 1,20,-1
 404.5 -256 l 1,21,-1
 404.5 448 l 1,22,-1
 404.5 470.5 l 1,23,-1
 427 470.5 l 1,12,-1
EndSplineSet
EndChar

StartChar: section
Encoding: 167 167 105
Width: 1024
GlyphClass: 2
Flags: W
LayerCount: 2
Fore
SplineSet
661 1310.5 m 0,0,1
 717.889695826 1310.5 717.889695826 1310.5 769.276613788 1306.42974907 c 0,2,3
 782.154677321 1305.40970444 782.154677321 1305.40970444 793.11271221 1304.40835545 c 128,-1,4
 804.070747098 1303.40700646 804.070747098 1303.40700646 813.530228312 1302.38073571 c 128,-1,5
 822.989709526 1301.35446496 822.989709526 1301.35446496 830.801080444 1300.30371038 c 128,-1,6
 838.612451362 1299.2529558 838.612451362 1299.2529558 844.855176432 1298.16726448 c 2,7,-1
 867.855176432 1294.16726448 l 1,8,-1
 886.5 1290.92468647 l 1,9,-1
 886.5 1272 l 1,10,-1
 886.5 1142 l 1,11,-1
 886.5 1119.5 l 1,12,-1
 864 1119.5 l 1,13,-1
 661 1119.5 l 2,14,15
 608.738007983 1119.5 608.738007983 1119.5 564.650649643 1114.87524041 c 128,-1,16
 520.563291304 1110.25048083 520.563291304 1110.25048083 486.336722222 1101.48810557 c 128,-1,17
 452.110153141 1092.72573031 452.110153141 1092.72573031 426.610421971 1079.89951823 c 0,18,19
 355.5 1044.13140178 355.5 1044.13140178 355.5 960 c 0,20,21
 355.5 945.954714685 355.5 945.954714685 361.139360916 934.597632028 c 128,-1,22
 366.778721832 923.240549372 366.778721832 923.240549372 379.350814352 912.829285255 c 0,23,24
 383.331725568 909.532593154 383.331725568 909.532593154 387.678342417 906.403303472 c 128,-1,25
 392.024959266 903.274013791 392.024959266 903.274013791 396.806299234 900.273201978 c 128,-1,26
 401.587639203 897.272390165 401.587639203 897.272390165 406.737793949 894.449381675 c 128,-1,27
 411.887948696 891.626373186 411.887948696 891.626373186 417.489730705 888.945685176 c 128,-1,28
 423.091512715 886.264997166 423.091512715 886.264997166 429.064298983 883.772283935 c 128,-1,29
 435.03708525 881.279570705 435.03708525 881.279570705 441.478402925 878.943020566 c 128,-1,30
 447.919720599 876.606470427 447.919720599 876.606470427 454.735151677 874.468295971 c 0,31,32
 471.503224537 869.207724093 471.503224537 869.207724093 489.442842642 863.995854768 c 128,-1,33
 507.382460748 858.783985443 507.382460748 858.783985443 526.5350318 853.610397178 c 128,-1,34
 545.687602853 848.436808913 545.687602853 848.436808913 565.998778044 843.317732238 c 0,35,36
 628.836163092 827.480667714 628.836163092 827.480667714 692.122367308 802.982782211 c 0,37,38
 724.289908217 790.530830891 724.289908217 790.530830891 753.705242207 775.172374971 c 128,-1,39
 783.120576197 759.813919051 783.120576197 759.813919051 809.731456181 741.551550434 c 0,40,41
 828.380475101 728.753204116 828.380475101 728.753204116 844.724893028 712.51104005 c 128,-1,42
 861.069310956 696.268875983 861.069310956 696.268875983 874.857866476 676.964931564 c 128,-1,43
 888.646421997 657.660987144 888.646421997 657.660987144 900.060524532 635.189472778 c 0,44,45
 934.5 567.386755451 934.5 567.386755451 934.5 477 c 0,46,47
 934.5 308.230950916 934.5 308.230950916 832.730526572 205.249631615 c 0,48,49
 833.591463547 203.948346548 833.591463547 203.948346548 834.346238429 202.791025062 c 0,50,51
 843.429084114 188.863995012 843.429084114 188.863995012 856.845374206 148.615124735 c 0,52,53
 870.5 107.651247354 870.5 107.651247354 870.5 64 c 0,54,55
 870.5 -32.4592800747 870.5 -32.4592800747 834.998071267 -101.311505497 c 0,56,57
 798.98768707 -171.149826364 798.98768707 -171.149826364 728.808960291 -211.9514117 c 0,58,59
 661.033471733 -251.355765513 661.033471733 -251.355765513 570.314946618 -269.082373869 c 0,60,61
 481.177683476 -286.5 481.177683476 -286.5 363 -286.5 c 0,62,63
 306.110304174 -286.5 306.110304174 -286.5 254.723386212 -282.429749072 c 0,64,65
 244.43585208 -281.614894884 244.43585208 -281.614894884 235.394617166 -280.814155426 c 128,-1,66
 226.353382252 -280.013415968 226.353382252 -280.013415968 218.24549638 -279.195201361 c 128,-1,67
 210.137610507 -278.376986754 210.137610507 -278.376986754 203.164289352 -277.555143475 c 128,-1,68
 196.190968197 -276.733300196 196.190968197 -276.733300196 190.167976582 -275.885078983 c 128,-1,69
 184.144984967 -275.03685777 184.144984967 -275.03685777 179.144823568 -274.167264483 c 2,70,-1
 156.144823568 -270.167264483 l 1,71,-1
 137.5 -266.924686472 l 1,72,-1
 137.5 -248 l 1,73,-1
 137.5 -118 l 1,74,-1
 137.5 -95.5 l 1,75,-1
 160 -95.5 l 1,76,-1
 363 -95.5 l 2,77,78
 518.660048787 -95.5 518.660048787 -95.5 597.389578029 -55.8995182252 c 0,79,80
 633.821891084 -37.5742829162 633.821891084 -37.5742829162 651.160945542 -8.50279476264 c 128,-1,81
 668.5 20.5686933909 668.5 20.5686933909 668.5 64 c 0,82,83
 668.5 91.4192591102 668.5 91.4192591102 644.649185648 111.170714745 c 0,84,85
 630.575789405 122.825246009 630.575789405 122.825246009 611.741254312 132.469946251 c 128,-1,86
 592.906719218 142.114646493 592.906719218 142.114646493 569.264848323 149.531704029 c 0,87,88
 518.878044686 165.3393287 518.878044686 165.3393287 458.001221956 180.682267762 c 0,89,90
 395.163836908 196.519332286 395.163836908 196.519332286 331.877632692 221.017217789 c 0,91,92
 310.44349869 229.314301919 310.44349869 229.314301919 290.247139544 238.892616093 c 128,-1,93
 270.050780399 248.470930267 270.050780399 248.470930267 251.03383387 259.369572041 c 128,-1,94
 232.016887341 270.268213815 232.016887341 270.268213815 214.268543819 282.448449566 c 0,95,96
 158.537829114 320.695018481 158.537829114 320.695018481 123.939475468 388.810527222 c 0,97,98
 89.5 456.613244549 89.5 456.613244549 89.5 547 c 0,99,100
 89.5 715.769049084 89.5 715.769049084 191.269473428 818.750368385 c 0,101,102
 190.408536453 820.051653452 190.408536453 820.051653452 189.653761571 821.208974938 c 0,103,104
 186.864837052 825.485325866 186.864837052 825.485325866 184.19828556 830.81830509 c 128,-1,105
 181.531734069 836.151284313 181.531734069 836.151284313 178.737252792 843.117375809 c 128,-1,106
 175.942771515 850.083467306 175.942771515 850.083467306 173.278291254 857.545393487 c 128,-1,107
 170.613810993 865.007319668 170.613810993 865.007319668 167.154625794 875.384875265 c 0,108,109
 160.336946761 895.837912362 160.336946761 895.837912362 156.918473381 917.03223286 c 128,-1,110
 153.5 938.226553358 153.5 938.226553358 153.5 960 c 0,111,112
 153.5 1056.45928007 153.5 1056.45928007 189.001928733 1125.3115055 c 0,113,114
 206.94284681 1160.10601328 206.94284681 1160.10601328 233.635967964 1187.89442453 c 128,-1,115
 260.329089118 1215.68283578 260.329089118 1215.68283578 295.191039709 1235.9514117 c 0,116,117
 329.211707255 1255.73086958 329.211707255 1255.73086958 368.854423975 1269.99171071 c 128,-1,118
 408.497140695 1284.25255185 408.497140695 1284.25255185 453.685053382 1293.08237387 c 0,119,120
 542.822316524 1310.5 542.822316524 1310.5 661 1310.5 c 0,0,1
359.506390535 700.801963462 m 1,121,122
 291.5 648.338596052 291.5 648.338596052 291.5 547 c 0,123,124
 291.5 527.574161751 291.5 527.574161751 295.44653444 511.040591223 c 128,-1,125
 299.39306888 494.507020695 299.39306888 494.507020695 307.196208689 480.377010769 c 0,126,127
 315.321979873 465.662776464 315.321979873 465.662776464 325.259994384 454.22869352 c 128,-1,128
 335.198008894 442.794610577 335.198008894 442.794610577 347.077859359 434.309003102 c 0,129,130
 372.890946277 415.871083875 372.890946277 415.871083875 413.897641527 399.37413751 c 0,131,132
 455.991403061 382.439865629 455.991403061 382.439865629 494.021992007 372.811868427 c 0,133,134
 533.852955951 362.728080087 533.852955951 362.728080087 586.681225378 347.634288822 c 0,135,136
 609.030123706 341.2488893 609.030123706 341.2488893 628.842068452 335.019636545 c 128,-1,137
 648.654013199 328.790383791 648.654013199 328.790383791 664.493609465 323.198036538 c 1,138,139
 732.5 375.661403948 732.5 375.661403948 732.5 477 c 0,140,141
 732.5 496.425838249 732.5 496.425838249 728.55346556 512.959408777 c 128,-1,142
 724.60693112 529.492979305 724.60693112 529.492979305 716.803791311 543.622989231 c 0,143,144
 708.678020127 558.337223536 708.678020127 558.337223536 698.740005616 569.77130648 c 128,-1,145
 688.801991106 581.205389423 688.801991106 581.205389423 676.922140641 589.690996898 c 0,146,147
 651.109053723 608.128916125 651.109053723 608.128916125 610.102358473 624.62586249 c 0,148,149
 568.008596939 641.560134372 568.008596939 641.560134372 529.978007993 651.188131573 c 0,150,151
 490.147044049 661.271919913 490.147044049 661.271919913 437.318774622 676.365711178 c 0,152,153
 392.234567712 689.246913152 392.234567712 689.246913152 359.506390535 700.801963462 c 1,121,122
EndSplineSet
EndChar

StartChar: copyright
Encoding: 169 169 107
Width: 1024
GlyphClass: 2
Flags: W
LayerCount: 2
Fore
SplineSet
512 1318.5 m 0,0,1
 745.638356401 1318.5 745.638356401 1318.5 880.889259949 1153.77808245 c 0,2,3
 1014.5 991.053718107 1014.5 991.053718107 1014.5 712 c 0,4,5
 1014.5 619.663770473 1014.5 619.663770473 999.858342424 539.960636317 c 128,-1,6
 985.216684848 460.257502161 985.216684848 460.257502161 955.448163153 392.514786533 c 128,-1,7
 925.679641457 324.772070905 925.679641457 324.772070905 880.889259949 270.22191755 c 0,8,9
 813.482487703 188.127288317 813.482487703 188.127288317 720.69299477 146.813644159 c 128,-1,10
 627.903501837 105.5 627.903501837 105.5 512 105.5 c 0,11,12
 278.361643599 105.5 278.361643599 105.5 143.110740051 270.22191755 c 0,13,14
 9.5 432.946281893 9.5 432.946281893 9.5 712 c 128,-1,15
 9.5 991.053718107 9.5 991.053718107 143.110740051 1153.77808245 c 0,16,17
 210.517512297 1235.87271168 210.517512297 1235.87271168 303.30700523 1277.18635584 c 128,-1,18
 396.096498163 1318.5 396.096498163 1318.5 512 1318.5 c 0,0,1
512 1145.5 m 128,-1,20
 363.213211312 1145.5 363.213211312 1145.5 277.964598131 1032.452926 c 0,21,22
 190.5 916.46726326 190.5 916.46726326 190.5 712 c 128,-1,23
 190.5 507.53273674 190.5 507.53273674 277.964598131 391.547074001 c 0,24,25
 363.213211312 278.5 363.213211312 278.5 512 278.5 c 128,-1,26
 660.786788688 278.5 660.786788688 278.5 746.035401869 391.547074001 c 0,27,28
 833.5 507.53273674 833.5 507.53273674 833.5 712 c 128,-1,29
 833.5 916.46726326 833.5 916.46726326 746.035401869 1032.452926 c 0,30,19
 660.786788688 1145.5 660.786788688 1145.5 512 1145.5 c 128,-1,20
572 998.5 m 0,31,32
 610.688338511 998.5 610.688338511 998.5 646.301000576 989.866627378 c 0,33,34
 664.28201963 985.507592456 664.28201963 985.507592456 677.185145517 981.21359052 c 128,-1,35
 690.088271405 976.919588584 690.088271405 976.919588584 699.588235294 971.852941176 c 2,36,-1
 714.588235294 963.852941176 l 1,37,-1
 726.5 957.5 l 1,38,-1
 726.5 944 l 1,39,-1
 726.5 840 l 1,40,-1
 726.5 817.5 l 1,41,-1
 704 817.5 l 1,42,-1
 572 817.5 l 1,43,-1
 571.447055462 817.5 l 2,44,45
 519.857020012 820.037214858 519.857020012 820.037214858 491.409902577 791.590097423 c 0,46,47
 476.980774721 777.160969568 476.980774721 777.160969568 469.74038736 757.681739756 c 128,-1,48
 462.5 738.202509944 462.5 738.202509944 462.5 712 c 0,49,50
 462.5 662.508642725 462.5 662.508642725 491.181018232 634.635540499 c 0,51,52
 520.132081644 606.5 520.132081644 606.5 572 606.5 c 2,53,-1
 704 606.5 l 1,54,-1
 726.5 606.5 l 1,55,-1
 726.5 584 l 1,56,-1
 726.5 480 l 1,57,-1
 726.5 467.686520257 l 1,58,-1
 716.12870817 461.048893485 l 2,59,60
 660.583562099 425.5 660.583562099 425.5 572 425.5 c 0,61,62
 438.772229622 425.5 438.772229622 425.5 360.201741763 502.979231084 c 0,63,64
 320.807462046 541.826368026 320.807462046 541.826368026 301.153731023 594.507881864 c 128,-1,65
 281.5 647.189395702 281.5 647.189395702 281.5 712 c 0,66,67
 281.5 843.4121069 281.5 843.4121069 360.201741763 921.020768916 c 128,-1,68
 438.772229622 998.5 438.772229622 998.5 572 998.5 c 0,31,32
EndSplineSet
EndChar

StartChar: ordfeminine
Encoding: 170 170 108
Width: 1024
GlyphClass: 2
Flags: W
LayerCount: 2
Fore
SplineSet
408 1306.5 m 0,0,1
 521.694843682 1306.5 521.694843682 1306.5 600.586336177 1292.50319503 c 128,-1,2
 679.477828673 1278.50639005 679.477828673 1278.50639005 726.594053952 1248.4732406 c 0,3,4
 774.930864771 1217.6620571 774.930864771 1217.6620571 798.715432386 1163.26953882 c 128,-1,5
 822.5 1108.87702055 822.5 1108.87702055 822.5 1034 c 2,6,-1
 822.5 648 l 2,7,8
 822.5 630.401481972 822.5 630.401481972 819.651370779 614.243930537 c 128,-1,9
 816.802741558 598.086379101 816.802741558 598.086379101 811.111552923 583.457119243 c 128,-1,10
 805.420364288 568.827859384 805.420364288 568.827859384 796.685296069 555.866844178 c 128,-1,11
 787.950227849 542.905828972 787.950227849 542.905828972 776.3746582 532.072283019 c 0,12,13
 730.886465386 489.5 730.886465386 489.5 654 489.5 c 2,14,-1
 469 489.5 l 2,15,16
 342.876297071 489.5 342.876297071 489.5 268.329304014 561.854434438 c 0,17,18
 193.5 634.482876569 193.5 634.482876569 193.5 759 c 0,19,20
 193.5 864.739965241 193.5 864.739965241 269.850441888 926.493999121 c 0,21,22
 344.039679339 986.5 344.039679339 986.5 469 986.5 c 2,23,-1
 631.5 986.5 l 1,24,-1
 631.5 1034 l 2,25,26
 631.5 1039.94414978 631.5 1039.94414978 631.018491616 1045.30838381 c 128,-1,27
 630.536983233 1050.67261783 630.536983233 1050.67261783 629.575491918 1055.52921181 c 128,-1,28
 628.614000603 1060.38580578 628.614000603 1060.38580578 627.13807745 1064.74560552 c 128,-1,29
 625.662154298 1069.10540525 625.662154298 1069.10540525 623.709750588 1073.01032131 c 128,-1,30
 621.757346877 1076.91523737 621.757346877 1076.91523737 619.255159488 1080.40850504 c 128,-1,31
 616.752972098 1083.90177272 616.752972098 1083.90177272 613.777806524 1086.9929131 c 128,-1,32
 610.802640949 1090.08405348 610.802640949 1090.08405348 607.242339853 1092.84869133 c 128,-1,33
 603.682038757 1095.61332919 603.682038757 1095.61332919 599.652261849 1098.02859612 c 128,-1,34
 595.622484941 1100.44386306 595.622484941 1100.44386306 590.974649058 1102.61574899 c 0,35,36
 542.002351886 1125.5 542.002351886 1125.5 408 1125.5 c 2,37,-1
 256 1125.5 l 1,38,-1
 233.5 1125.5 l 1,39,-1
 233.5 1148 l 1,40,-1
 233.5 1276 l 1,41,-1
 233.5 1295.60957423 l 1,42,-1
 252.925658564 1298.28897541 l 2,43,44
 312.455586857 1306.5 312.455586857 1306.5 408 1306.5 c 0,0,1
469 805.5 m 2,45,46
 425.662352182 805.5 425.662352182 805.5 402.750597691 790.627457611 c 0,47,48
 384.5 778.780578408 384.5 778.780578408 384.5 759 c 0,49,50
 384.5 716.09338574 384.5 716.09338574 406.681806277 693.133270471 c 0,51,52
 428.54784724 670.5 428.54784724 670.5 469 670.5 c 2,53,-1
 631.5 670.5 l 1,54,-1
 631.5 805.5 l 1,55,-1
 469 805.5 l 2,45,46
224 414.5 m 1,56,-1
 800 414.5 l 1,57,-1
 822.5 414.5 l 1,58,-1
 822.5 392 l 1,59,-1
 822.5 256 l 1,60,-1
 822.5 233.5 l 1,61,-1
 800 233.5 l 1,62,-1
 224 233.5 l 1,63,-1
 201.5 233.5 l 1,64,-1
 201.5 256 l 1,65,-1
 201.5 392 l 1,66,-1
 201.5 414.5 l 1,67,-1
 224 414.5 l 1,56,-1
EndSplineSet
EndChar

StartChar: guillemotleft
Encoding: 171 171 109
Width: 1024
GlyphClass: 2
Flags: W
LayerCount: 2
Fore
SplineSet
402.049695571 1121.00144302 m 1,0,-1
 525.049695571 1043.00144302 l 1,1,-1
 544.068351593 1030.94083188 l 1,2,-1
 531.990524604 1011.93310416 l 1,3,-1
 295.658031337 640 l 1,4,-1
 531.990524604 268.066895842 l 1,5,-1
 544.068351593 249.059168121 l 1,6,-1
 525.049695571 236.998556985 l 1,7,-1
 402.049695571 158.998556985 l 1,8,-1
 383.078246922 146.967882232 l 1,9,-1
 371.017616526 165.920301426 l 1,10,-1
 77.017616526 627.920301426 l 1,11,-1
 69.3305356151 640 l 1,12,-1
 77.017616526 652.079698574 l 1,13,-1
 371.017616526 1114.07969857 l 1,14,-1
 383.078246922 1133.03211777 l 1,15,-1
 402.049695571 1121.00144302 l 1,0,-1
817.049695571 1121.00144302 m 1,16,-1
 940.049695571 1043.00144302 l 1,17,-1
 959.068351593 1030.94083188 l 1,18,-1
 946.990524604 1011.93310416 l 1,19,-1
 710.658031337 640 l 1,20,-1
 946.990524604 268.066895842 l 1,21,-1
 959.068351593 249.059168121 l 1,22,-1
 940.049695571 236.998556985 l 1,23,-1
 817.049695571 158.998556985 l 1,24,-1
 798.078246922 146.967882232 l 1,25,-1
 786.017616526 165.920301426 l 1,26,-1
 492.017616526 627.920301426 l 1,27,-1
 484.330535615 640 l 1,28,-1
 492.017616526 652.079698574 l 1,29,-1
 786.017616526 1114.07969857 l 1,30,-1
 798.078246922 1133.03211777 l 1,31,-1
 817.049695571 1121.00144302 l 1,16,-1
EndSplineSet
EndChar

StartChar: logicalnot
Encoding: 172 172 110
Width: 1024
GlyphClass: 2
Flags: W
LayerCount: 2
Fore
SplineSet
128 741.5 m 1,0,-1
 896 741.5 l 1,1,-1
 918.5 741.5 l 1,2,-1
 918.5 719 l 1,3,-1
 918.5 256 l 1,4,-1
 918.5 233.5 l 1,5,-1
 896 233.5 l 1,6,-1
 739 233.5 l 1,7,-1
 716.5 233.5 l 1,8,-1
 716.5 256 l 1,9,-1
 716.5 538.5 l 1,10,-1
 128 538.5 l 1,11,-1
 105.5 538.5 l 1,12,-1
 105.5 561 l 1,13,-1
 105.5 719 l 1,14,-1
 105.5 741.5 l 1,15,-1
 128 741.5 l 1,0,-1
EndSplineSet
EndChar

